<svg width="29" height="22" viewBox="0 0 29 22" fill="none" xmlns="http://www.w3.org/2000/svg">
<path d="M19.0183 9.79839C19.3319 9.37982 19.7685 9.23862 20.7486 9.23862H25.1115C25.4107 9.32339 25.6734 9.49333 25.874 9.73272L27.119 11.2161C27.2956 11.4265 27.6026 11.4697 27.8307 11.3161C28.0585 11.1626 28.1336 10.8617 28.0048 10.619L26.9171 8.56912C26.8943 8.5259 26.8697 8.48373 26.8456 8.44135L26.8597 7.86228C26.8685 7.49679 26.8267 7.13277 26.7355 6.77966C26.4115 5.52647 25.4669 4.52086 24.2085 4.08949L19.6628 2.53124V1.84076C19.6628 1.40205 19.4182 1.00908 19.0246 0.815214L17.8091 0.216839C17.3553 -0.00660714 16.8176 0.0911639 16.4712 0.459798L15.6519 1.33176C15.4083 1.07852 15.0663 0.920538 14.6878 0.920538C13.9495 0.920538 13.3488 1.52122 13.3488 2.25975C13.3488 2.99807 13.9495 3.59875 14.6878 3.59875C15.0218 3.59875 15.3275 3.47559 15.5623 3.2725L16.4607 4.4554C16.4382 4.49778 16.4181 4.54121 16.4005 4.58611C16.2335 4.58044 16.0686 4.60268 15.9125 4.62996L12.5146 5.19183C12.3673 5.21596 12.2171 5.22833 12.0681 5.22833H9.50972C9.21305 5.22833 8.97261 5.46899 8.97261 5.76545C8.97261 6.06212 9.21305 6.30256 9.50972 6.30256H12.0681C12.2756 6.30256 12.4848 6.28556 12.6898 6.25157L16.0925 5.68907C16.3449 5.64502 16.4057 5.66285 16.4103 5.66432C16.4103 5.66432 16.4282 5.67481 16.467 5.72243L17.536 7.02933L14.6467 8.14447C14.41 8.23574 14.1643 8.29343 13.9136 8.31651C13.8299 8.32407 13.7458 8.32805 13.6612 8.32805H11.6989C11.308 7.96718 10.8563 7.66925 10.358 7.44937C9.92997 7.25991 9.47364 7.12312 9.00912 7.06332C8.76364 7.03017 8.51334 7.01507 8.25884 7.01947C8.25381 7.01947 8.24898 7.01926 8.24395 7.01926H4.19694V6.3783C4.19694 6.33655 4.23093 6.30256 4.27268 6.30256H5.42768C5.72414 6.30256 5.96479 6.06212 5.96479 5.76545C5.96479 5.46878 5.72414 5.22833 5.42768 5.22833H4.27268C3.63864 5.22833 3.12272 5.74426 3.12272 6.3783V7.01926H2.17082C1.74847 7.01926 1.22269 7.01926 1.06974 7.467C0.9919 7.69464 1.07016 7.94872 1.26465 8.09915L2.85374 9.32905C3.12629 9.53991 3.46639 9.65614 3.8111 9.65614H7.89126C8.24793 9.65614 8.60272 9.70608 8.94576 9.8049C10.011 10.1116 10.8873 10.8644 11.3514 11.8709L13.4646 17.0227C13.5456 17.2225 13.7466 17.3578 13.9623 17.3578H15.8888C16.1854 17.3578 16.4259 17.1174 16.4259 16.8207V16.8045C16.4315 13.7107 18.0517 11.0877 19.0183 9.79839ZM25.6954 7.04843C25.7028 7.07696 25.7097 7.1057 25.7162 7.13445C25.5303 6.98884 25.3323 6.85834 25.1243 6.74295C24.9095 6.62314 24.6839 6.52034 24.4523 6.43725C24.2488 6.36424 24.0222 6.2992 23.7788 6.2436C23.4899 6.17772 23.2016 6.35837 23.1358 6.64769C23.0697 6.93681 23.2505 7.22488 23.5396 7.29076C23.7413 7.33691 23.9261 7.38979 24.0893 7.44832C24.2704 7.52322 24.449 7.59519 24.6202 7.6917C24.8577 7.82577 25.078 7.98795 25.2771 8.17321C25.2454 8.16755 25.2131 8.1644 25.1808 8.1644L20.7486 8.16419C19.8546 8.16419 18.8433 8.24077 18.1587 9.15386C17.6539 9.82735 16.9844 10.8384 16.4259 12.087V11.8604C16.4259 10.8088 16.8018 9.7858 17.485 8.97951C17.4978 8.9644 17.5104 8.94993 17.523 8.93503C17.5471 8.9067 17.5712 8.87859 17.5951 8.85089C17.606 8.83831 17.6169 8.82572 17.6279 8.81334C18.0865 8.28798 18.5063 7.88577 18.8525 7.63862C18.9656 7.55805 19.0844 7.48252 19.2117 7.42629C19.2919 7.39104 19.4431 7.33712 19.7117 7.27922C20.0014 7.21669 20.1859 6.93093 20.1233 6.64098C20.0608 6.35102 19.775 6.1666 19.4851 6.22912C19.1968 6.29144 18.9583 6.36382 18.7755 6.44439C18.6991 6.47838 18.6213 6.5174 18.5422 6.56251L17.4353 5.20882C17.3824 5.14441 17.3811 5.07538 17.3851 5.03972C17.3891 5.00426 17.4055 4.93712 17.4709 4.88593L19.2266 3.51713L23.8602 5.1056C24.776 5.41968 25.4621 6.14583 25.6954 7.04843ZM14.6878 2.52453C14.5418 2.52453 14.423 2.40578 14.423 2.25975C14.423 2.11372 14.5418 1.99476 14.6878 1.99476C14.8338 1.99476 14.9526 2.11372 14.9526 2.25975C14.9526 2.40578 14.8338 2.52453 14.6878 2.52453ZM17.2542 1.19539C17.275 1.17315 17.3075 1.16727 17.3348 1.1807L18.55 1.77908C18.5735 1.79041 18.5886 1.81474 18.5886 1.84076V2.65272L17.3813 3.59392L17.2395 3.70449L16.1923 2.32584L17.2542 1.19539ZM15.0334 9.14652L16.4053 8.61717C15.8734 9.3515 15.5319 10.2111 15.4043 11.108C15.3688 11.3566 15.3512 11.6093 15.3512 11.8606V16.2836H14.3905L13.1231 10.7379C13.0954 10.6148 13.0568 10.4929 13.0169 10.3733C12.9032 10.0309 12.7536 9.70566 12.5717 9.40227H13.6612C14.1322 9.40227 14.594 9.31625 15.0334 9.14652ZM9.24306 8.77264C8.80351 8.64612 8.34864 8.58192 7.89126 8.58192H3.8111C3.70305 8.58192 3.59647 8.54541 3.51108 8.47932L3.01236 8.09348H3.66004C3.66046 8.09348 3.66109 8.09369 3.66151 8.09369H8.24395C8.24562 8.09369 8.24751 8.09348 8.24919 8.09348C8.47075 8.09369 8.66021 8.10293 8.83687 8.12391C9.24851 8.17615 9.66477 8.29784 10.0368 8.48373C10.4299 8.67361 10.791 8.93125 11.0971 9.24198C11.5123 9.66349 11.8233 10.1763 12.006 10.7371C12.0255 10.7977 12.0434 10.859 12.0602 10.9207C11.4267 9.88274 10.4257 9.11316 9.24306 8.77264Z" fill="#231F20"/>
<path d="M6.54114 12.4181C5.69519 12.4181 4.89981 12.7475 4.30164 13.3456C3.70348 13.9438 3.37408 14.7392 3.37408 15.5851C3.37408 17.3316 4.7949 18.7522 6.54114 18.7522C8.28759 18.7522 9.70821 17.3316 9.70821 15.5853C9.70821 13.8389 8.28738 12.4181 6.54114 12.4181ZM6.54114 17.6782C5.38719 17.678 4.4483 16.7391 4.4483 15.5851C4.4483 15.0262 4.66587 14.5006 5.06115 14.1051C5.45643 13.7101 5.98221 13.4923 6.54114 13.4923C7.69509 13.4923 8.63399 14.4312 8.63399 15.5853C8.63399 16.7393 7.69509 17.6782 6.54114 17.6782Z" fill="#231F20"/>
<path d="M22.8685 12.4181C22.8685 12.4181 22.8685 12.4181 22.8683 12.4181C22.0225 12.4181 21.2271 12.7475 20.629 13.3456C20.0308 13.9438 19.7014 14.7392 19.7014 15.5851C19.7014 17.3316 21.122 18.7522 22.8685 18.7522C24.6147 18.7522 26.0355 17.3316 26.0355 15.5853C26.0355 13.8389 24.6147 12.4181 22.8685 12.4181ZM22.8685 17.6782C21.7145 17.678 20.7756 16.7391 20.7756 15.5851C20.7756 15.0262 20.9932 14.5006 21.3885 14.1051C21.784 13.7101 22.3093 13.4923 22.8685 13.4923C24.0224 13.4923 24.9613 14.4312 24.9613 15.5853C24.9613 16.7393 24.0224 17.6782 22.8685 17.6782Z" fill="#231F20"/>
<path d="M11.8413 14.5931C11.7985 14.5762 11.7547 14.5655 11.711 14.5598C11.5459 13.7256 11.1834 12.9617 10.6742 12.3186L10.2867 11.3959C10.1717 11.1223 9.85696 10.9937 9.58337 11.1086C9.53302 11.1298 9.4877 11.1577 9.44784 11.1911C8.76973 10.7411 7.98232 10.4438 7.13427 10.3483L6.23252 9.95385C5.9606 9.8351 5.644 9.95889 5.52525 10.2308C5.49797 10.2931 5.48392 10.3577 5.48119 10.4219C4.66105 10.59 3.90972 10.9494 3.2761 11.4511L2.34476 11.7912C2.06613 11.8931 1.92283 12.2015 2.02459 12.48C2.05228 12.5559 2.09571 12.6216 2.14921 12.6751C1.70505 13.3433 1.40922 14.1179 1.30893 14.9521L0.885745 15.839C0.757971 16.1067 0.871478 16.4273 1.13919 16.5551C1.21389 16.5905 1.29256 16.6075 1.37019 16.6075C1.37019 16.6075 1.3704 16.6073 1.37061 16.6073C1.53217 17.4256 1.88339 18.1763 2.37686 18.8116L2.71591 19.7421C2.79543 19.9603 3.00125 20.0954 3.2205 20.0954C3.28155 20.0954 3.34366 20.0851 3.4045 20.0629C3.47542 20.0371 3.53731 19.9976 3.58913 19.9489C4.258 20.403 5.03618 20.7074 5.87542 20.8136L6.77949 21.2091C6.84956 21.2397 6.92258 21.2542 6.99454 21.2542C7.20141 21.2542 7.39863 21.1339 7.48696 20.9323C7.5113 20.8767 7.52494 20.8192 7.52955 20.7619C8.36522 20.6027 9.13165 20.2458 9.77787 19.7414L10.6889 19.3634C10.9629 19.2496 11.0927 18.9354 10.979 18.6613C10.9599 18.6154 10.9348 18.5739 10.9054 18.5363C11.3678 17.8548 11.6745 17.0599 11.775 16.2026L12.1399 15.2916C12.2505 15.0161 12.1166 14.7037 11.8413 14.5931ZM6.54114 19.7813C4.22737 19.7813 2.34497 17.8989 2.34497 15.5851C2.34497 13.2714 4.22737 11.3889 6.54114 11.3889C8.85492 11.3889 10.7373 13.2714 10.7373 15.5851C10.7373 17.8989 8.85492 19.7813 6.54114 19.7813Z" fill="#231F20"/>
<path d="M28.1317 16.1807C28.0959 16.1518 28.057 16.1291 28.0168 16.1109C28.1003 15.2645 27.9746 14.4284 27.6735 13.6655L27.5699 12.67C27.539 12.375 27.2749 12.1612 26.9799 12.1914C26.9255 12.1971 26.8741 12.2107 26.8263 12.2311C26.3077 11.604 25.6398 11.0914 24.8558 10.7544L24.107 10.1158C23.8814 9.92318 23.5424 9.95003 23.3498 10.1758C23.3057 10.2276 23.2736 10.2855 23.2524 10.3462C22.4186 10.2696 21.5958 10.3959 20.8438 10.6925L19.8537 10.7486C19.5577 10.7654 19.3311 11.019 19.3479 11.315C19.3525 11.3958 19.3752 11.4709 19.4108 11.5379C18.7921 12.0488 18.2846 12.7046 17.947 13.474L17.285 14.2003C17.0853 14.4196 17.101 14.7593 17.3203 14.959C17.3813 15.0146 17.4516 15.053 17.5255 15.0755C17.4428 15.8933 17.5534 16.7162 17.8519 17.4876L17.9065 18.4662C17.9224 18.7521 18.1593 18.9735 18.4423 18.9735C18.4524 18.9735 18.4625 18.9731 18.4726 18.9726C18.5472 18.9684 18.6171 18.9491 18.6801 18.9183C19.1989 19.5597 19.8596 20.0666 20.6176 20.4042L21.3713 21.047C21.4724 21.1333 21.5962 21.1754 21.7196 21.1754C21.8712 21.1754 22.0221 21.1114 22.1285 20.987C22.1677 20.9409 22.1973 20.8899 22.2185 20.8366C22.4027 20.8559 22.5863 20.866 22.7688 20.866C23.4245 20.866 24.0661 20.7415 24.6636 20.5108L25.6476 20.4126C25.9428 20.383 26.1581 20.1199 26.1287 19.8247C26.1236 19.7747 26.1115 19.7275 26.0941 19.6828C26.7336 19.1648 27.2572 18.4937 27.6018 17.7029L28.2157 16.9356C28.4009 16.704 28.3634 16.366 28.1317 16.1807ZM21.5563 19.6113C20.4836 19.2867 19.6013 18.5639 19.0722 17.5757C18.5433 16.5878 18.4306 15.4527 18.7552 14.3799C19.3032 12.5689 20.9722 11.3986 22.7738 11.3986C23.175 11.3986 23.5831 11.4567 23.9867 11.5788C26.2013 12.2489 27.4578 14.5956 26.7879 16.8101C26.1178 19.0249 23.7709 20.2814 21.5563 19.6113Z" fill="#231F20"/>
<path d="M21.3503 7.00835C21.5385 7.13339 21.7898 7.12647 21.9707 6.99135C22.149 6.85812 22.2275 6.61915 22.1622 6.40598C22.098 6.1968 21.9098 6.04553 21.6919 6.02707C21.4655 6.00797 21.246 6.13994 21.1562 6.34829C21.0551 6.58243 21.1357 6.86756 21.3503 7.00835Z" fill="#231F20"/>
<path d="M6.97314 5.97069C7.05685 6.17484 7.2654 6.30954 7.4857 6.3024C7.70138 6.29548 7.89483 6.15575 7.97099 5.95454C8.05155 5.74221 7.98546 5.49422 7.80964 5.3505C7.63068 5.20426 7.3724 5.1902 7.17812 5.31441C6.96265 5.45246 6.87474 5.73466 6.97314 5.97069Z" fill="#231F20"/>
</svg>
