<svg width="30" height="14" viewBox="0 0 30 14" fill="none" xmlns="http://www.w3.org/2000/svg">
<path d="M29.9566 6.25434C29.8689 6.05161 29.6633 5.92553 29.4433 5.9379L15.9913 6.71193C15.9769 6.63441 15.9453 6.55894 15.8946 6.49169L14.2976 4.37308C14.2948 4.36946 14.2921 4.36584 14.2892 4.36222C13.9895 3.98544 12.9086 2.75594 11.5818 2.75594H9.20977L8.44581 1.88289C8.34586 1.76866 8.20149 1.70312 8.04962 1.70312H6.33879V0.699385C6.33879 0.408674 6.10309 0.172974 5.81237 0.172974C5.52166 0.172974 5.28596 0.408674 5.28596 0.699385V1.76971C4.37882 2.00403 3.70673 2.82938 3.70673 3.8087V7.41863L2.10828 7.51062C2.10413 7.51082 2.10005 7.51115 2.09597 7.51148C1.25345 7.57998 0 8.28425 0 9.94456V13.3004C0 13.5911 0.235701 13.8268 0.526412 13.8268H20.59C21.4783 13.8268 22.4399 13.7152 23.4522 12.9054C23.4639 12.8961 23.4751 12.8863 23.4859 12.8761L29.8362 6.84517C29.9963 6.69304 30.0444 6.45708 29.9566 6.25434ZM13.7813 5.43715L14.7941 6.78082L6.89185 7.23551V5.43715H13.7813ZM4.75962 3.80883C4.75962 3.22833 5.23194 2.75601 5.81244 2.75601H7.81083L8.57479 3.62906C8.67474 3.74329 8.81911 3.80883 8.97098 3.80883H11.582C11.9854 3.80883 12.4413 4.05282 12.843 4.38433H6.68135C6.21699 4.38433 5.83916 4.76216 5.83916 5.22653V7.29611L4.75968 7.35823V3.80883H4.75962ZM22.7775 12.0968C21.9874 12.7215 21.2637 12.774 20.5899 12.774H1.05282V10.6411L23.7454 9.34958C24.0357 9.33306 24.2576 9.08433 24.2411 8.79408C24.2245 8.50383 23.9762 8.28129 23.6856 8.29847L1.0879 9.58455C1.24615 8.81968 1.89804 8.58622 2.17592 8.56147L28.0688 7.0716L22.7775 12.0968Z" fill="black"/>
</svg>
