<svg width="30" height="20" viewBox="0 0 30 20" fill="none" xmlns="http://www.w3.org/2000/svg">
<path d="M29.8723 10.9374C29.8862 10.9213 29.8993 10.9048 29.911 10.8876C29.9117 10.8866 29.9124 10.8858 29.9131 10.8849C29.9259 10.8656 29.937 10.8455 29.9471 10.8251C29.949 10.8211 29.9507 10.8172 29.9526 10.8132C29.9615 10.7936 29.9696 10.7736 29.976 10.7531C29.9764 10.7516 29.9771 10.7502 29.9775 10.7487C29.9842 10.7268 29.9889 10.7046 29.9926 10.6822C29.9935 10.6772 29.9941 10.6722 29.9948 10.6671C29.9979 10.6441 30 10.621 30 10.5978V6.94552C30 5.80486 29.072 4.87688 27.9314 4.87688H26.6048L24.126 2.398C24.224 2.1943 24.2789 1.96617 24.2789 1.72543C24.2789 0.866941 23.5805 0.168579 22.7221 0.168579C22.368 0.168579 22.0413 0.287591 21.7795 0.487409C21.7705 0.494067 21.7616 0.500984 21.7528 0.508354C21.6742 0.571124 21.6017 0.641329 21.5365 0.717998L16.4504 5.70977L15.9624 4.13339C15.9602 4.12628 15.9579 4.11924 15.9554 4.11226C15.5654 3.02098 14.5812 2.25882 13.562 2.25882H5.68942C4.54876 2.25882 3.62077 3.1868 3.62077 4.32746V6.8971H2.5743C1.43364 6.8971 0.505654 7.82509 0.505654 8.96575V12.0687C0.505654 12.6463 0.745682 13.1831 1.14958 13.5667C0.442884 14.2279 0 15.1678 0 16.2097C0 18.2068 1.62473 19.8316 3.62187 19.8316H21.687C23.6837 19.8316 25.3081 18.2068 25.3081 16.2097C25.3081 15.2282 24.9151 14.3373 24.279 13.6844V11.0667C24.279 9.92599 23.351 8.99801 22.2103 8.99801H19.5692L23.5341 3.26877L25.1422 4.87688H24.2951C24.0861 4.87688 23.8976 5.00268 23.8175 5.19577C23.7373 5.38887 23.7813 5.61112 23.9289 5.75916L28.7521 10.5974L28.1044 11.2451C27.9024 11.447 27.9024 11.7745 28.1044 11.9764C28.2054 12.0774 28.3377 12.1279 28.4701 12.1279C28.6025 12.1279 28.7348 12.0774 28.8358 11.9764L29.8486 10.9636C29.8526 10.9596 29.856 10.9553 29.8598 10.9512C29.864 10.9466 29.8682 10.942 29.8723 10.9374ZM23.2446 1.72536C23.2446 2.01349 23.0102 2.24789 22.7221 2.24789C22.4339 2.24789 22.1995 2.01349 22.1995 1.72536C22.1995 1.60939 22.238 1.50247 22.3022 1.41565L22.4211 1.2989C22.5063 1.23859 22.61 1.20277 22.7221 1.20277C23.0102 1.20284 23.2446 1.43724 23.2446 1.72536ZM15.0962 4.8324L16.3857 8.99801H8.78023V4.8324H15.0962ZM21.687 18.7972H3.62187C2.19509 18.7972 1.03432 17.6365 1.03432 16.2097C1.03432 14.7831 2.19509 13.6225 3.62187 13.6225H21.687C23.1134 13.6225 24.2737 14.7831 24.2737 16.2097C24.2737 17.6365 23.1134 18.7972 21.687 18.7972ZM23.0718 10.4956H22.2051C21.9195 10.4956 21.6879 10.7271 21.6879 11.0127C21.6879 11.2983 21.9195 11.5299 22.2051 11.5299H23.2446V12.941C22.7725 12.715 22.2443 12.5882 21.687 12.5882H3.62187C3.05487 12.5882 2.51806 12.7194 2.03968 12.9527C1.73204 12.7661 1.53998 12.4333 1.53998 12.0686V8.96562C1.53998 8.39532 2.004 7.9313 2.5743 7.9313H4.13794C4.42354 7.9313 4.6551 7.69974 4.6551 7.41414V4.32733C4.6551 3.75703 5.11912 3.29301 5.68942 3.29301H13.562C13.9266 3.29301 14.2973 3.48675 14.5828 3.79808H8.45591C8.06442 3.79808 7.74597 4.11652 7.74597 4.50801V9.51517C7.74597 9.80077 7.97753 10.0323 8.26314 10.0323H17.0833C17.0854 10.0323 17.0875 10.0323 17.0896 10.0323H18.581C18.5812 10.0323 18.5815 10.0324 18.5818 10.0324C18.5821 10.0324 18.5825 10.0323 18.5828 10.0323H22.2102C22.5696 10.0323 22.8864 10.2166 23.0718 10.4956ZM17.4684 8.99794L16.7945 6.82115L21.3129 2.38649C21.5043 2.79285 21.8663 3.10327 22.3061 3.22532L18.3112 8.99788H17.4684V8.99794ZM27.9314 5.91114C28.5017 5.91114 28.9657 6.37516 28.9657 6.94546V9.34664L25.5408 5.91114H27.9314Z" fill="black"/>
<path d="M4.62387 15.6927C4.33827 15.6927 4.10671 15.9243 4.10671 16.2099C4.10671 16.4773 3.88924 16.6947 3.62187 16.6947C3.3545 16.6947 3.13703 16.4773 3.13703 16.2099C3.13703 15.9425 3.3545 15.7251 3.62187 15.7251C3.90747 15.7251 4.13903 15.4935 4.13903 15.2079C4.13903 14.9223 3.90747 14.6907 3.62187 14.6907C2.7842 14.6907 2.10271 15.3722 2.10271 16.2099C2.10271 17.0476 2.7842 17.7291 3.62187 17.7291C4.45954 17.7291 5.14103 17.0476 5.14103 16.2099C5.14103 15.9242 4.90947 15.6927 4.62387 15.6927Z" fill="black"/>
<path d="M8.22765 15.6927C7.94204 15.6927 7.71049 15.9243 7.71049 16.2099C7.71049 16.4773 7.49302 16.6947 7.22565 16.6947C6.95827 16.6947 6.74081 16.4773 6.74081 16.2099C6.74081 15.9425 6.95827 15.7251 7.22565 15.7251C7.51125 15.7251 7.74281 15.4935 7.74281 15.2079C7.74281 14.9223 7.51125 14.6907 7.22565 14.6907C6.38797 14.6907 5.70649 15.3722 5.70649 16.2099C5.70649 17.0476 6.38797 17.7291 7.22565 17.7291C8.06332 17.7291 8.74481 17.0476 8.74481 16.2099C8.74481 15.9242 8.51325 15.6927 8.22765 15.6927Z" fill="black"/>
<path d="M11.8601 15.6927C11.5745 15.6927 11.343 15.9243 11.343 16.2099C11.343 16.4773 11.1255 16.6947 10.8581 16.6947C10.5907 16.6947 10.3733 16.4773 10.3733 16.2099C10.3733 15.9425 10.5907 15.7251 10.8581 15.7251C11.1437 15.7251 11.3753 15.4935 11.3753 15.2079C11.3753 14.9223 11.1437 14.6907 10.8581 14.6907C10.0204 14.6907 9.33896 15.3722 9.33896 16.2099C9.33896 17.0476 10.0204 17.7291 10.8581 17.7291C11.6958 17.7291 12.3773 17.0476 12.3773 16.2099C12.3773 15.9242 12.1458 15.6927 11.8601 15.6927Z" fill="black"/>
<path d="M15.4639 15.6927C15.1783 15.6927 14.9467 15.9243 14.9467 16.2099C14.9467 16.4773 14.7293 16.6947 14.4619 16.6947C14.1945 16.6947 13.9771 16.4773 13.9771 16.2099C13.9771 15.9425 14.1945 15.7251 14.4619 15.7251C14.7475 15.7251 14.9791 15.4935 14.9791 15.2079C14.9791 14.9223 14.7475 14.6907 14.4619 14.6907C13.6242 14.6907 12.9427 15.3722 12.9427 16.2099C12.9427 17.0476 13.6242 17.7291 14.4619 17.7291C15.2996 17.7291 15.9811 17.0476 15.9811 16.2099C15.9811 15.9242 15.7495 15.6927 15.4639 15.6927Z" fill="black"/>
<path d="M19.1055 15.6927C18.8199 15.6927 18.5884 15.9243 18.5884 16.2099C18.5884 16.4773 18.3709 16.6947 18.1035 16.6947C17.8362 16.6947 17.6187 16.4773 17.6187 16.2099C17.6187 15.9425 17.8362 15.7251 18.1035 15.7251C18.3892 15.7251 18.6207 15.4935 18.6207 15.2079C18.6207 14.9223 18.3892 14.6907 18.1035 14.6907C17.2659 14.6907 16.5844 15.3722 16.5844 16.2099C16.5844 17.0476 17.2659 17.7291 18.1035 17.7291C18.9412 17.7291 19.6227 17.0476 19.6227 16.2099C19.6227 15.9242 19.3912 15.6927 19.1055 15.6927Z" fill="black"/>
<path d="M22.7243 15.6927C22.4387 15.6927 22.2072 15.9243 22.2072 16.2099C22.2072 16.4773 21.9897 16.6947 21.7223 16.6947C21.4549 16.6947 21.2375 16.4773 21.2375 16.2099C21.2375 15.9425 21.4549 15.7251 21.7223 15.7251C22.0079 15.7251 22.2395 15.4935 22.2395 15.2079C22.2395 14.9223 22.0079 14.6907 21.7223 14.6907C20.8846 14.6907 20.2032 15.3722 20.2032 16.2099C20.2032 17.0476 20.8846 17.7291 21.7223 17.7291C22.56 17.7291 23.2415 17.0476 23.2415 16.2099C23.2415 15.9242 23.0099 15.6927 22.7243 15.6927Z" fill="black"/>
</svg>
