<svg width="24" height="24" viewBox="0 0 24 24" fill="none" xmlns="http://www.w3.org/2000/svg">
<path d="M16.0001 17.8682L16 17.8682L2.90916 17.8682C2.33452 17.8688 1.86881 18.3345 1.8682 18.9091L1.8682 21.0908C1.86881 21.6655 2.33449 22.1312 2.90911 22.1318C2.90913 22.1318 2.90914 22.1318 2.90916 22.1318L20.3636 22.1318C21.3397 22.1306 22.1307 21.3397 22.1318 20.3635L22.1318 2.90911L22.1318 2.90906M16.0001 17.8682L21.0909 1.81815C21.6931 1.81879 22.1812 2.30684 22.1818 2.90906L22.1318 2.90906M16.0001 17.8682C17.0313 17.8669 17.867 17.0313 17.8682 16L17.8682 16L17.8682 2.90912C17.8688 2.33447 18.3345 1.86876 18.9092 1.86815L21.0909 1.86815M16.0001 17.8682L21.0909 1.86815M22.1318 2.90906C22.1312 2.33444 21.6655 1.86876 21.0909 1.86815M22.1318 2.90906L21.0909 1.86815M2.90905 22.9591L2.90911 22.9591L20.3636 22.9591L20.3637 22.9591C21.7964 22.9575 22.9575 21.7964 22.9591 20.3637L22.9591 20.3636L22.9591 2.9091L22.9591 2.90904C22.9579 1.8778 22.1222 1.04214 21.091 1.04091L21.0909 1.04091L18.9091 1.04091L18.909 1.04091C17.8778 1.04214 17.0421 1.8778 17.0409 2.90904L17.0409 2.9091L17.0409 16C17.0403 16.5746 16.5746 17.0403 15.9999 17.0409L2.90906 17.0409L2.90901 17.0409C1.87776 17.0421 1.0421 17.8778 1.04087 18.9091L1.04087 18.9091L1.04087 21.0909L1.04087 21.091C1.04214 22.1222 1.8778 22.9579 2.90905 22.9591Z" fill="black" stroke="black" stroke-width="0.1"/>
<path d="M3.99991 21.5046L3.99997 21.5046C4.83089 21.5046 5.5045 20.831 5.5045 20.0001C5.5045 19.1691 4.83089 18.4955 3.99997 18.4955C3.16904 18.4955 2.49544 19.1691 2.49544 20.0001L2.49544 20.0001C2.49627 20.8306 3.16937 21.5037 3.99991 21.5046ZM4.00002 19.3228C4.37406 19.3228 4.67725 19.626 4.67725 20.0001C4.67725 20.3741 4.37399 20.6773 3.99997 20.6773C3.62597 20.6773 3.32271 20.3741 3.32268 20.0001C3.32312 19.6262 3.62609 19.3232 4.00002 19.3228Z" fill="black" stroke="black" stroke-width="0.1"/>
<path d="M19.9999 21.5046L20 21.5046C20.8309 21.5046 21.5045 20.831 21.5045 20.0001C21.5045 19.1691 20.831 18.4955 20 18.4955C19.169 18.4955 18.4955 19.1691 18.4955 20L18.4955 20.0001C18.4964 20.8306 19.1694 21.5036 19.9999 21.5046ZM20 19.3228C20.3741 19.3228 20.6773 19.626 20.6773 20.0001C20.6773 20.3741 20.3741 20.6773 20 20.6773C19.626 20.6773 19.3227 20.3741 19.3227 20.0001C19.3231 19.6262 19.6262 19.3231 20 19.3228Z" fill="black" stroke="black" stroke-width="0.1"/>
<path d="M19.9999 13.5045L20 13.5045C20.8309 13.5045 21.5045 12.8309 21.5045 12C21.5045 11.1691 20.8309 10.4955 20 10.4955C19.1691 10.4955 18.4955 11.1691 18.4955 12L18.4955 12.0001C18.4964 12.8305 19.1694 13.5036 19.9999 13.5045ZM20.0001 11.3227C20.3741 11.3227 20.6773 11.626 20.6773 12C20.6773 12.3741 20.3741 12.6773 20 12.6773C19.626 12.6773 19.3228 12.3741 19.3228 12C19.3231 11.6261 19.6262 11.3231 20.0001 11.3227Z" fill="black" stroke="black" stroke-width="0.1"/>
<path d="M19.9999 5.50453L20 5.50453C20.8309 5.50453 21.5045 4.83092 21.5045 4C21.5045 3.16907 20.8309 2.49547 20 2.49547C19.1691 2.49547 18.4955 3.16907 18.4955 4L18.4955 4.00006C18.4964 4.83055 19.1694 5.50356 19.9999 5.50453ZM20 3.32271C20.3741 3.32274 20.6773 3.62595 20.6773 4C20.6773 4.37406 20.3741 4.67729 20 4.67729C19.626 4.67729 19.3227 4.37409 19.3227 4.00005C19.3231 3.62611 19.6262 3.32307 20 3.32271Z" fill="black" stroke="black" stroke-width="0.1"/>
<path d="M12 21.5046L12 21.5046C12.831 21.5046 13.5046 20.831 13.5046 20.0001C13.5046 19.1691 12.831 18.4955 12 18.4955C11.1691 18.4955 10.4955 19.1691 10.4955 20L10.4955 20.0001C10.4964 20.8306 11.1695 21.5036 12 21.5046ZM12.0001 19.3228C12.3741 19.3228 12.6773 19.626 12.6773 20.0001C12.6773 20.3741 12.3741 20.6773 12 20.6773C11.626 20.6773 11.3228 20.3741 11.3227 20.0001C11.3231 19.6262 11.6262 19.3231 12.0001 19.3228Z" fill="black" stroke="black" stroke-width="0.1"/>
</svg>
