<svg width="27" height="23" viewBox="0 0 27 23" fill="none" xmlns="http://www.w3.org/2000/svg">
<path d="M0.928797 12.9973C1.23507 12.9973 1.48335 12.749 1.48335 12.4427C1.48335 12.1365 1.23507 11.8882 0.928797 11.8882C0.622524 11.8882 0.37424 12.1365 0.37424 12.4427C0.37424 12.749 0.622524 12.9973 0.928797 12.9973Z" fill="black" stroke="black" stroke-width="0.1"/>
<mask id="path-2-outside-1" maskUnits="userSpaceOnUse" x="-0.57576" y="-0.666656" width="27" height="24" fill="black">
<rect fill="white" x="-0.57576" y="-0.666656" width="27" height="24"/>
<path d="M0.928797 21.0202H3.66683C3.89146 21.8897 4.6825 22.5339 5.62118 22.5339C6.55986 22.5339 7.3509 21.8897 7.57553 21.0202H19.1063C19.3309 21.8897 20.122 22.5339 21.0606 22.5339C21.9993 22.5339 22.7904 21.8897 23.015 21.0202H25.753C26.0317 21.0202 26.2576 20.7943 26.2576 20.5156V14.2011C26.2576 11.2586 25.0738 8.5272 23.0824 6.53582C22.9878 6.44121 22.8595 6.38803 22.7257 6.38803H18.3865V4.3698H23.9366C24.2153 4.3698 24.4412 4.14391 24.4412 3.86524C24.4412 3.58658 24.2153 3.36069 23.9366 3.36069H7.60278C7.35716 1.65145 5.88365 0.333344 4.10751 0.333344H2.59384C2.31517 0.333344 2.08928 0.559234 2.08928 0.837901C2.08928 1.11657 2.31517 1.34246 2.59384 1.34246C3.15026 1.34246 3.60295 1.79515 3.60295 2.35157V3.36069H0.928797C0.65013 3.36069 0.42424 3.58658 0.42424 3.86524C0.42424 4.14391 0.65013 4.3698 0.928797 4.3698H5.11662V6.38803H2.44247C1.32962 6.38803 0.42424 7.29341 0.42424 8.40626V10.1722C0.42424 10.4509 0.65013 10.6768 0.928797 10.6768C1.20746 10.6768 1.43335 10.4509 1.43335 10.1722V8.40626C1.43335 7.84983 1.88604 7.39715 2.44247 7.39715H22.5136C23.0971 8.00549 23.5963 8.68165 24.0048 9.41537C22.8143 9.41537 5.26607 9.41537 4.10751 9.41537C3.82884 9.41537 3.60295 9.64126 3.60295 9.91993V14.4609C3.60295 14.7396 3.82884 14.9655 4.10751 14.9655H9.80901V20.0111H7.57553C7.3509 19.1416 6.55986 18.4974 5.62118 18.4974C4.6825 18.4974 3.89146 19.1416 3.66683 20.0111H1.43335V17.9928H2.44247C2.72114 17.9928 2.94703 17.767 2.94703 17.4883C2.94703 17.2096 2.72114 16.9837 2.44247 16.9837H1.43335V14.7132C1.43335 14.4346 1.20746 14.2087 0.928797 14.2087C0.65013 14.2087 0.42424 14.4346 0.42424 14.7132V20.5156C0.42424 20.7943 0.65013 21.0202 0.928797 21.0202ZM4.61207 3.36069V2.35157C4.61207 1.9889 4.51595 1.64827 4.34773 1.35381C5.45791 1.45911 6.36026 2.28709 6.57913 3.36069H4.61207ZM11.3227 6.38803H6.12574V4.3698H11.3227V6.38803ZM17.3774 6.38803H12.3318V4.3698H17.3774V6.38803ZM21.0606 21.5247C20.5042 21.5247 20.0515 21.0721 20.0515 20.5156C20.0515 19.9592 20.5042 19.5065 21.0606 19.5065C21.6171 19.5065 22.0697 19.9592 22.0697 20.5156C22.0697 21.0721 21.6171 21.5247 21.0606 21.5247ZM21.5652 10.4245H24.4936C24.963 11.5504 25.2156 12.7358 25.2453 13.9564H21.5652V10.4245ZM16.8728 10.4245H20.5561V13.9564H16.8728V10.4245ZM16.8728 14.9655H25.2485V16.9837H24.2393C23.9607 16.9837 23.7348 17.2096 23.7348 17.4883C23.7348 17.767 23.9607 17.9928 24.2393 17.9928H25.2485V20.0111H23.015C22.7904 19.1416 21.9993 18.4974 21.0606 18.4974C20.122 18.4974 19.3309 19.1416 19.1063 20.0111H16.8728V14.9655ZM10.8181 10.4245H15.8637V20.0111H10.8181V10.4245ZM4.61207 13.9564V10.4245H9.80901V13.9564H4.61207ZM5.62118 19.5065C6.17761 19.5065 6.6303 19.9592 6.6303 20.5156C6.6303 21.0721 6.17761 21.5247 5.62118 21.5247C5.06475 21.5247 4.61207 21.0721 4.61207 20.5156C4.61207 19.9592 5.06475 19.5065 5.62118 19.5065Z"/>
</mask>
<path d="M0.928797 21.0202H3.66683C3.89146 21.8897 4.6825 22.5339 5.62118 22.5339C6.55986 22.5339 7.3509 21.8897 7.57553 21.0202H19.1063C19.3309 21.8897 20.122 22.5339 21.0606 22.5339C21.9993 22.5339 22.7904 21.8897 23.015 21.0202H25.753C26.0317 21.0202 26.2576 20.7943 26.2576 20.5156V14.2011C26.2576 11.2586 25.0738 8.5272 23.0824 6.53582C22.9878 6.44121 22.8595 6.38803 22.7257 6.38803H18.3865V4.3698H23.9366C24.2153 4.3698 24.4412 4.14391 24.4412 3.86524C24.4412 3.58658 24.2153 3.36069 23.9366 3.36069H7.60278C7.35716 1.65145 5.88365 0.333344 4.10751 0.333344H2.59384C2.31517 0.333344 2.08928 0.559234 2.08928 0.837901C2.08928 1.11657 2.31517 1.34246 2.59384 1.34246C3.15026 1.34246 3.60295 1.79515 3.60295 2.35157V3.36069H0.928797C0.65013 3.36069 0.42424 3.58658 0.42424 3.86524C0.42424 4.14391 0.65013 4.3698 0.928797 4.3698H5.11662V6.38803H2.44247C1.32962 6.38803 0.42424 7.29341 0.42424 8.40626V10.1722C0.42424 10.4509 0.65013 10.6768 0.928797 10.6768C1.20746 10.6768 1.43335 10.4509 1.43335 10.1722V8.40626C1.43335 7.84983 1.88604 7.39715 2.44247 7.39715H22.5136C23.0971 8.00549 23.5963 8.68165 24.0048 9.41537C22.8143 9.41537 5.26607 9.41537 4.10751 9.41537C3.82884 9.41537 3.60295 9.64126 3.60295 9.91993V14.4609C3.60295 14.7396 3.82884 14.9655 4.10751 14.9655H9.80901V20.0111H7.57553C7.3509 19.1416 6.55986 18.4974 5.62118 18.4974C4.6825 18.4974 3.89146 19.1416 3.66683 20.0111H1.43335V17.9928H2.44247C2.72114 17.9928 2.94703 17.767 2.94703 17.4883C2.94703 17.2096 2.72114 16.9837 2.44247 16.9837H1.43335V14.7132C1.43335 14.4346 1.20746 14.2087 0.928797 14.2087C0.65013 14.2087 0.42424 14.4346 0.42424 14.7132V20.5156C0.42424 20.7943 0.65013 21.0202 0.928797 21.0202ZM4.61207 3.36069V2.35157C4.61207 1.9889 4.51595 1.64827 4.34773 1.35381C5.45791 1.45911 6.36026 2.28709 6.57913 3.36069H4.61207ZM11.3227 6.38803H6.12574V4.3698H11.3227V6.38803ZM17.3774 6.38803H12.3318V4.3698H17.3774V6.38803ZM21.0606 21.5247C20.5042 21.5247 20.0515 21.0721 20.0515 20.5156C20.0515 19.9592 20.5042 19.5065 21.0606 19.5065C21.6171 19.5065 22.0697 19.9592 22.0697 20.5156C22.0697 21.0721 21.6171 21.5247 21.0606 21.5247ZM21.5652 10.4245H24.4936C24.963 11.5504 25.2156 12.7358 25.2453 13.9564H21.5652V10.4245ZM16.8728 10.4245H20.5561V13.9564H16.8728V10.4245ZM16.8728 14.9655H25.2485V16.9837H24.2393C23.9607 16.9837 23.7348 17.2096 23.7348 17.4883C23.7348 17.767 23.9607 17.9928 24.2393 17.9928H25.2485V20.0111H23.015C22.7904 19.1416 21.9993 18.4974 21.0606 18.4974C20.122 18.4974 19.3309 19.1416 19.1063 20.0111H16.8728V14.9655ZM10.8181 10.4245H15.8637V20.0111H10.8181V10.4245ZM4.61207 13.9564V10.4245H9.80901V13.9564H4.61207ZM5.62118 19.5065C6.17761 19.5065 6.6303 19.9592 6.6303 20.5156C6.6303 21.0721 6.17761 21.5247 5.62118 21.5247C5.06475 21.5247 4.61207 21.0721 4.61207 20.5156C4.61207 19.9592 5.06475 19.5065 5.62118 19.5065Z" fill="black"/>
<path d="M0.928797 21.0202H3.66683C3.89146 21.8897 4.6825 22.5339 5.62118 22.5339C6.55986 22.5339 7.3509 21.8897 7.57553 21.0202H19.1063C19.3309 21.8897 20.122 22.5339 21.0606 22.5339C21.9993 22.5339 22.7904 21.8897 23.015 21.0202H25.753C26.0317 21.0202 26.2576 20.7943 26.2576 20.5156V14.2011C26.2576 11.2586 25.0738 8.5272 23.0824 6.53582C22.9878 6.44121 22.8595 6.38803 22.7257 6.38803H18.3865V4.3698H23.9366C24.2153 4.3698 24.4412 4.14391 24.4412 3.86524C24.4412 3.58658 24.2153 3.36069 23.9366 3.36069H7.60278C7.35716 1.65145 5.88365 0.333344 4.10751 0.333344H2.59384C2.31517 0.333344 2.08928 0.559234 2.08928 0.837901C2.08928 1.11657 2.31517 1.34246 2.59384 1.34246C3.15026 1.34246 3.60295 1.79515 3.60295 2.35157V3.36069H0.928797C0.65013 3.36069 0.42424 3.58658 0.42424 3.86524C0.42424 4.14391 0.65013 4.3698 0.928797 4.3698H5.11662V6.38803H2.44247C1.32962 6.38803 0.42424 7.29341 0.42424 8.40626V10.1722C0.42424 10.4509 0.65013 10.6768 0.928797 10.6768C1.20746 10.6768 1.43335 10.4509 1.43335 10.1722V8.40626C1.43335 7.84983 1.88604 7.39715 2.44247 7.39715H22.5136C23.0971 8.00549 23.5963 8.68165 24.0048 9.41537C22.8143 9.41537 5.26607 9.41537 4.10751 9.41537C3.82884 9.41537 3.60295 9.64126 3.60295 9.91993V14.4609C3.60295 14.7396 3.82884 14.9655 4.10751 14.9655H9.80901V20.0111H7.57553C7.3509 19.1416 6.55986 18.4974 5.62118 18.4974C4.6825 18.4974 3.89146 19.1416 3.66683 20.0111H1.43335V17.9928H2.44247C2.72114 17.9928 2.94703 17.767 2.94703 17.4883C2.94703 17.2096 2.72114 16.9837 2.44247 16.9837H1.43335V14.7132C1.43335 14.4346 1.20746 14.2087 0.928797 14.2087C0.65013 14.2087 0.42424 14.4346 0.42424 14.7132V20.5156C0.42424 20.7943 0.65013 21.0202 0.928797 21.0202ZM4.61207 3.36069V2.35157C4.61207 1.9889 4.51595 1.64827 4.34773 1.35381C5.45791 1.45911 6.36026 2.28709 6.57913 3.36069H4.61207ZM11.3227 6.38803H6.12574V4.3698H11.3227V6.38803ZM17.3774 6.38803H12.3318V4.3698H17.3774V6.38803ZM21.0606 21.5247C20.5042 21.5247 20.0515 21.0721 20.0515 20.5156C20.0515 19.9592 20.5042 19.5065 21.0606 19.5065C21.6171 19.5065 22.0697 19.9592 22.0697 20.5156C22.0697 21.0721 21.6171 21.5247 21.0606 21.5247ZM21.5652 10.4245H24.4936C24.963 11.5504 25.2156 12.7358 25.2453 13.9564H21.5652V10.4245ZM16.8728 10.4245H20.5561V13.9564H16.8728V10.4245ZM16.8728 14.9655H25.2485V16.9837H24.2393C23.9607 16.9837 23.7348 17.2096 23.7348 17.4883C23.7348 17.767 23.9607 17.9928 24.2393 17.9928H25.2485V20.0111H23.015C22.7904 19.1416 21.9993 18.4974 21.0606 18.4974C20.122 18.4974 19.3309 19.1416 19.1063 20.0111H16.8728V14.9655ZM10.8181 10.4245H15.8637V20.0111H10.8181V10.4245ZM4.61207 13.9564V10.4245H9.80901V13.9564H4.61207ZM5.62118 19.5065C6.17761 19.5065 6.6303 19.9592 6.6303 20.5156C6.6303 21.0721 6.17761 21.5247 5.62118 21.5247C5.06475 21.5247 4.61207 21.0721 4.61207 20.5156C4.61207 19.9592 5.06475 19.5065 5.62118 19.5065Z" stroke="black" stroke-width="0.2" mask="url(#path-2-outside-1)"/>
</svg>
