<svg width="30" height="16" viewBox="0 0 30 16" fill="none" xmlns="http://www.w3.org/2000/svg">
<path d="M27.6142 6.07968C27.6022 6.07459 27.59 6.0701 27.5777 6.06589C27.4271 6.01044 27.2686 5.95807 27.0997 5.90999C25.1308 5.3497 21.0435 5.34327 20.8705 5.34327H20.0079L18.3075 2.49327C17.5319 1.19952 16.8048 0.498474 15.1846 0.498474C15.1844 0.498474 15.1839 0.498474 15.1837 0.498474L8.61991 0.499479C7.3206 0.499679 6.03013 1.37403 5.25208 2.78129C5.25 2.78497 5.24799 2.78865 5.24612 2.7924L4.46946 4.27874L1.54339 4.63131C1.53281 4.63258 1.52223 4.63419 1.51172 4.63606C0.579241 4.80555 0 5.49823 0 6.44383V10.0079C0 11.4593 1.21667 12.155 2.14661 12.4035C2.20902 14.1222 3.62592 15.5015 5.35969 15.5015C6.95002 15.5015 8.27357 14.3404 8.52951 12.8214H21.4996C21.7556 14.3404 23.0794 15.5015 24.6702 15.5015C26.2605 15.5015 27.5841 14.3404 27.84 12.8214H29.4643C29.7601 12.8214 30 12.5815 30 12.2857V9.16626C30 8.14184 29.5693 6.81401 27.6142 6.07968ZM28.5915 8.027L27.3438 8.02727V7.50227C27.3438 7.44093 27.3849 7.30673 27.4908 7.18493C27.9871 7.40551 28.3531 7.68515 28.5915 8.027ZM18.7602 5.34327H8.03926C7.94324 5.34327 7.87467 5.30537 7.84935 5.2678C7.81306 5.21397 7.84199 5.11526 7.86141 5.06336L8.43904 3.86437C8.6779 3.37506 9.03208 3.16633 9.62337 3.16633H17.4615L18.7602 5.34327ZM1.07143 6.91633H1.60788C1.90326 6.91633 2.14359 7.15667 2.14359 7.45205V7.99894H1.07143V6.91633ZM5.35969 14.4301C4.17717 14.4301 3.21509 13.4681 3.21509 12.2855C3.21509 11.1032 4.17717 10.1413 5.35969 10.1413C6.54181 10.1413 7.50355 11.1032 7.50355 12.2855C7.50355 13.4681 6.54181 14.4301 5.35969 14.4301ZM24.6702 14.4301C23.4877 14.4301 22.5256 13.4681 22.5256 12.2855C22.5256 11.1032 23.4877 10.1413 24.6702 10.1413C25.8523 10.1413 26.814 11.1032 26.814 12.2855C26.814 13.4681 25.8523 14.4301 24.6702 14.4301ZM28.9286 11.7499H27.84C27.5842 10.2309 26.2606 9.06977 24.6701 9.06977C23.0793 9.06977 21.7554 10.2309 21.4995 11.7499H8.52951C8.27371 10.2309 6.95009 9.06977 5.35962 9.06977C3.92022 9.06977 2.69873 10.0203 2.28971 11.3265C1.78989 11.1696 1.07143 10.8053 1.07143 10.0079V9.07037H2.67931C2.97516 9.07037 3.21502 8.8305 3.21502 8.53466V7.45205C3.21502 6.56591 2.49408 5.8449 1.60788 5.8449H1.32308C1.41783 5.77251 1.53924 5.72182 1.68877 5.69296L4.84192 5.31307C5.02821 5.30303 5.19904 5.19595 5.28777 5.0262L6.19272 3.29423C6.78241 2.23118 7.71201 1.57097 8.62004 1.57084L15.1839 1.56984C15.1842 1.56984 15.1844 1.56984 15.1846 1.56984C15.8822 1.56984 16.3126 1.71963 16.6953 2.09484H9.6233C8.61951 2.09484 7.8971 2.53198 7.47496 3.39669L6.88728 4.61651C6.88219 4.62709 6.8775 4.63774 6.87308 4.64859C6.69589 5.08767 6.72723 5.52039 6.96114 5.86707C7.19257 6.20992 7.59556 6.41457 8.0392 6.41457H20.8705C20.9088 6.41457 24.483 6.41986 26.4359 6.84816C26.3251 7.07196 26.2723 7.30225 26.2723 7.5022V8.56332C26.2723 8.70548 26.3288 8.84175 26.4293 8.94227C26.5298 9.04265 26.666 9.09903 26.808 9.09903C26.8081 9.09903 26.8083 9.09903 26.8084 9.09903L28.9272 9.0983C28.9278 9.12086 28.9285 9.14336 28.9285 9.16626V11.7499H28.9286Z" fill="black"/>
<path d="M21.9978 8.02765H8.03925C7.74341 8.02765 7.50354 8.26751 7.50354 8.56336C7.50354 8.85921 7.74341 9.09907 8.03925 9.09907H21.9978C22.2936 9.09907 22.5335 8.85921 22.5335 8.56336C22.5335 8.26745 22.2936 8.02765 21.9978 8.02765Z" fill="black"/>
<path d="M6.40987 11.7499C6.11402 11.7499 5.87416 11.9897 5.87416 12.2856C5.87416 12.5696 5.64326 12.8006 5.3594 12.8006C5.07541 12.8006 4.84438 12.5696 4.84438 12.2856C4.84438 12.0017 5.07541 11.7708 5.3594 11.7708C5.65525 11.7708 5.89512 11.5309 5.89512 11.2351C5.89512 10.9392 5.65525 10.6993 5.3594 10.6993C4.48465 10.6993 3.77295 11.4109 3.77295 12.2856C3.77295 13.1603 4.48465 13.872 5.3594 13.872C6.23402 13.872 6.94558 13.1603 6.94558 12.2856C6.94558 11.9897 6.70579 11.7499 6.40987 11.7499Z" fill="black"/>
<path d="M25.7204 11.7499C25.4245 11.7499 25.1847 11.9897 25.1847 12.2856C25.1847 12.5696 24.9538 12.8006 24.6699 12.8006C24.3859 12.8006 24.1549 12.5696 24.1549 12.2856C24.1549 12.0017 24.3859 11.7708 24.6699 11.7708C24.9658 11.7708 25.2056 11.5309 25.2056 11.2351C25.2056 10.9392 24.9658 10.6993 24.6699 10.6993C23.7952 10.6993 23.0835 11.4109 23.0835 12.2856C23.0835 13.1603 23.7952 13.872 24.6699 13.872C25.5445 13.872 26.2561 13.1603 26.2561 12.2856C26.2561 11.9897 26.0163 11.7499 25.7204 11.7499Z" fill="black"/>
</svg>
