<svg width="48" height="53" viewBox="0 0 48 53" fill="none" xmlns="http://www.w3.org/2000/svg">
<path d="M7.80732 0.884502C7.80732 0.965057 7.54707 1.04561 7.23803 1.04561C6.92899 1.04561 6.66875 1.11005 6.66875 1.1745C6.66875 1.23894 6.42477 1.43227 6.14826 1.60949C5.43259 2.01227 4.71692 2.73726 4.71692 3.02726C4.71692 3.15614 4.60306 3.34948 4.47294 3.46225C4.34282 3.57503 4.22896 3.76836 4.22896 3.88113C4.22896 4.01002 4.1639 4.10669 4.06631 4.10669C3.95245 4.10669 3.90366 9.5844 3.90366 20.2176V36.3285L2.92774 37.2791C2.39099 37.8108 1.95183 38.278 1.95183 38.3424C1.95183 38.3907 1.85424 38.5519 1.75665 38.6646C1.26869 39.1963 1.13857 39.3896 1.13857 39.5507C1.13857 39.6313 1.07351 39.7118 0.975915 39.7118C0.894588 39.7118 0.813262 39.9535 0.813262 40.2596C0.813262 40.5657 0.731936 40.8396 0.65061 40.8718C0.553018 40.9041 0.422896 41.339 0.374101 41.8546C0.325305 42.354 0.211448 42.7729 0.146387 42.7729C0.065061 42.7729 0 43.1274 0 43.5785C0 44.0135 0.0813262 44.384 0.162652 44.384C0.260244 44.384 0.325305 44.6579 0.325305 44.9801C0.325305 45.5279 0.764467 47.0745 0.975915 47.284C1.02471 47.3323 1.20363 47.6384 1.36628 47.9768C1.5452 48.299 1.74038 48.5729 1.82171 48.5729C1.88677 48.5729 1.95183 48.6856 1.95183 48.8145C1.95183 49.1045 3.69221 50.8284 4.00125 50.8284C4.13137 50.8284 4.22896 50.8928 4.22896 50.9734C4.22896 51.0539 4.40788 51.1667 4.63559 51.215C4.86331 51.2795 5.04223 51.3923 5.04223 51.4728C5.04223 51.5695 5.22114 51.6339 5.44886 51.6339C5.67657 51.6339 5.85549 51.6984 5.85549 51.7789C5.85549 51.8595 6.05067 51.9562 6.31091 52.0045C6.55489 52.0528 7.04285 52.1656 7.40069 52.2623C8.36034 52.52 10.2796 52.4717 10.9465 52.1978C11.2718 52.0689 11.7598 51.9562 12.0363 51.9562C12.2965 51.9562 12.5242 51.8756 12.5242 51.795C12.5242 51.6984 12.6218 51.6339 12.752 51.6339C13.0447 51.6339 13.9881 51.1184 13.9881 50.9412C13.9881 50.8767 14.0694 50.8284 14.167 50.8284C14.2646 50.8284 14.4435 50.7317 14.5574 50.6189C15.0616 50.1839 15.2731 50.0228 15.3707 50.0228C15.517 50.0228 15.9399 49.5878 15.9399 49.4267C15.9399 49.3623 16.1189 49.1045 16.3466 48.8629C16.5743 48.6212 16.7532 48.2829 16.7532 48.0895C16.7532 47.9123 16.8183 47.7673 16.8996 47.7673C16.9809 47.7673 17.0948 47.5901 17.1436 47.3645C17.2086 47.139 17.3225 46.9618 17.4038 46.9618C17.5014 46.9618 17.5665 46.704 17.5665 46.3979C17.5665 46.0918 17.6478 45.834 17.7291 45.834C17.8267 45.834 17.8918 44.9962 17.8918 43.659C17.8918 42.3218 17.8267 41.484 17.7291 41.484C17.6478 41.484 17.5665 41.2424 17.5665 40.9363C17.5665 40.6302 17.4526 40.2757 17.3225 40.1307C17.1924 40.0018 17.0785 39.7763 17.0785 39.6474C17.0785 39.5024 17.0134 39.3896 16.9159 39.3896C16.8345 39.3896 16.7532 39.2446 16.7532 39.0674C16.7532 38.8902 16.6881 38.7452 16.5905 38.7452C16.5092 38.7452 16.4279 38.6002 16.4279 38.423C16.4279 38.2457 16.3466 38.1008 16.249 38.1008C16.0213 38.1008 15.6146 37.698 15.6146 37.4724C15.6146 37.3758 15.5333 37.2952 15.452 37.2952C15.3544 37.2952 15.0941 37.118 14.8827 36.9085L14.4761 36.5058L14.4435 20.3626C14.411 7.61887 14.3459 4.20335 14.1996 4.13891C14.0857 4.10669 13.9881 3.94558 13.9881 3.76836C13.9881 3.38169 12.264 1.60949 11.7598 1.44838C11.5483 1.40005 11.3857 1.27116 11.3857 1.19061C11.3857 1.11005 11.1254 1.04561 10.8164 1.04561C10.5073 1.04561 10.2471 0.965057 10.2471 0.884502C10.2471 0.787838 9.72662 0.723392 9.02721 0.723392C8.32781 0.723392 7.80732 0.787838 7.80732 0.884502ZM10.2471 3.14003C10.2471 3.22059 10.361 3.30114 10.4911 3.30114C10.7513 3.30114 11.711 4.17113 11.711 4.4128C11.711 4.49335 11.7923 4.59002 11.8899 4.62224C12.264 4.75113 12.3616 6.31388 12.3453 13.2899C12.3453 19.1865 12.3128 20.6687 12.1339 20.9104C11.9387 21.1682 11.6297 21.1843 9.09227 21.1521L6.26212 21.1037L6.21332 12.9677C6.18079 5.49223 6.19706 4.78335 6.4573 4.30002C6.61995 4.02613 6.8802 3.73614 7.02659 3.68781C7.18924 3.63947 7.31936 3.5267 7.31936 3.44614C7.31936 3.36559 7.43322 3.30114 7.56334 3.30114C7.69346 3.30114 7.80732 3.22059 7.80732 3.14003C7.80732 3.04337 8.32781 2.97892 9.02721 2.97892C9.72662 2.97892 10.2471 3.04337 10.2471 3.14003ZM12.264 23.6815C12.3128 23.8265 12.3616 26.8553 12.3616 30.4158C12.3779 37.1663 12.4266 38.1008 12.7845 38.1008C13.0935 38.1008 14.4761 39.4702 14.4761 39.7763C14.4761 39.9213 14.5249 40.0341 14.6062 40.0341C14.7851 40.0341 15.2893 40.9846 15.2893 41.339C15.2893 41.5002 15.3707 41.6452 15.452 41.6452C15.5496 41.6452 15.6146 42.4507 15.6146 43.7396C15.6146 45.0285 15.5496 45.834 15.452 45.834C15.3707 45.834 15.2893 45.979 15.2893 46.1562C15.2893 46.3334 15.1755 46.5268 15.0454 46.5751C14.9152 46.6395 14.8014 46.8168 14.8014 46.994C14.8014 47.3162 13.3212 48.8951 13.0122 48.8951C12.9309 48.8951 12.8495 48.9595 12.8495 49.0562C12.8495 49.1367 12.6706 49.2495 12.4429 49.314C12.2152 49.3623 12.0363 49.4751 12.0363 49.5556C12.0363 49.6362 11.7923 49.7006 11.4833 49.7006C11.1742 49.7006 10.8977 49.7973 10.8489 49.894C10.8001 50.0551 10.2796 50.1034 8.94588 50.1034C7.61213 50.1034 7.09165 50.0551 7.02659 49.894C6.99406 49.7973 6.78261 49.7006 6.57116 49.7006C6.35971 49.7006 6.18079 49.6201 6.18079 49.5395C6.18079 49.4428 6.06694 49.3784 5.93681 49.3784C5.80669 49.3784 5.53018 49.2012 5.30247 48.9756C5.07476 48.7501 4.83078 48.5729 4.76572 48.5729C4.52174 48.5567 3.96872 48.009 3.65968 47.4773C3.48076 47.2034 3.28558 46.9618 3.22052 46.9618C3.15546 46.9618 3.0904 46.7845 3.0904 46.559C3.0904 46.3334 3.02534 46.1562 2.92774 46.1562C2.84642 46.1562 2.76509 45.9951 2.76509 45.7857C2.74883 45.5923 2.65123 45.254 2.52111 45.0285C2.21207 44.4807 2.21207 42.6279 2.52111 42.2251C2.65123 42.0479 2.76509 41.6613 2.76509 41.3713C2.76509 41.0813 2.84642 40.8396 2.92774 40.8396C3.02534 40.8396 3.0904 40.7591 3.0904 40.6624C3.0904 40.5657 3.18799 40.3885 3.30184 40.2757C3.74101 39.7763 3.90366 39.5668 3.90366 39.4702C3.90366 39.3091 4.35909 38.9063 4.538 38.9063C4.63559 38.9063 4.71692 38.8257 4.71692 38.7291C4.71692 38.5357 5.12355 38.1008 5.30247 38.1008C5.48139 38.1008 5.83922 37.553 5.85549 37.2469C5.85549 37.1019 5.93681 36.973 6.01814 36.973C6.132 36.973 6.18079 34.6047 6.18079 30.2064V23.4398H9.1736C11.711 23.4398 12.1827 23.472 12.264 23.6815Z" fill="#5F6262"/>
<path d="M33.1811 1.93237C33.1811 2.15792 33.2624 2.33514 33.3437 2.33514C33.4413 2.33514 33.5064 2.78624 33.5064 3.38235C33.5064 3.97845 33.4413 4.42956 33.3437 4.42956C33.2461 4.42956 33.1811 4.86455 33.1811 5.39621C33.1811 5.92788 33.116 6.36287 33.0184 6.36287C32.9371 6.36287 32.8558 6.57231 32.8558 6.83009C32.8558 7.08786 32.7419 7.41008 32.6118 7.55508C32.4817 7.68397 32.3678 7.94174 32.3678 8.11896C32.3678 8.31229 32.3027 8.45729 32.2377 8.45729C32.1564 8.45729 31.9774 8.71507 31.8311 9.02117C31.6847 9.32728 31.4895 9.58506 31.3919 9.58506C31.3106 9.58506 31.2292 9.73005 31.2292 9.90727C31.2292 10.0845 31.1642 10.2295 31.0666 10.2295C30.9853 10.2295 30.9039 10.3423 30.9039 10.4712C30.9039 10.6 30.8226 10.7128 30.725 10.7128C30.5461 10.7128 30.0907 11.1156 30.0907 11.2767C30.0907 11.3411 29.9931 11.4861 29.8955 11.5989C29.4075 12.1306 29.2774 12.3239 29.2774 12.485C29.2774 12.5656 29.2124 12.6461 29.1148 12.6461C29.0334 12.6461 28.9521 12.7911 28.9521 12.9684C28.9521 13.1456 28.8383 13.3389 28.7081 13.3872C28.5617 13.4517 28.4641 13.6933 28.4641 14.0156C28.4641 14.3056 28.3828 14.5794 28.269 14.6117C27.9925 14.7083 27.9925 19.7672 28.269 19.8638C28.3828 19.896 28.4641 20.0894 28.4641 20.2988C28.4641 20.4922 28.578 20.7499 28.7081 20.8627C28.8383 20.9755 28.9521 21.1688 28.9521 21.2816C28.9521 21.4105 29.0334 21.5071 29.1148 21.5071C29.2124 21.5071 29.2774 21.6521 29.2774 21.8294C29.2774 22.0227 29.4563 22.361 29.684 22.6027C29.9118 22.8443 30.0907 23.1182 30.0907 23.231C30.0907 23.3438 30.172 23.4405 30.2533 23.4405C30.3509 23.4405 30.6112 23.6016 30.8226 23.7949C31.4732 24.4071 31.7009 24.5682 31.8799 24.5682C31.9612 24.5682 32.0425 24.6327 32.0425 24.7293C32.0425 24.8099 32.2214 24.9227 32.4491 24.9871C32.6769 25.0354 32.8558 25.1482 32.8558 25.2288C32.8558 25.3093 33.0022 25.3738 33.1811 25.3738C33.36 25.3738 33.5064 25.4382 33.5064 25.5188C33.5064 25.6638 34.1082 25.8249 35.2142 25.9538C35.7672 26.0182 35.816 26.0021 35.5558 25.841C35.0353 25.5188 34.3196 24.7293 34.3196 24.4877C34.3196 24.3588 34.2546 24.246 34.1895 24.246C34.1082 24.246 33.913 23.9882 33.7341 23.6821C33.5714 23.376 33.3763 23.1182 33.3112 23.1182C33.2299 23.1182 33.1811 22.8282 33.1811 22.4899C33.1811 22.1355 33.0997 21.8294 32.9859 21.7971C32.7256 21.7005 32.7094 17.7694 32.9859 17.6727C33.0997 17.6405 33.1811 17.3022 33.1811 16.8189C33.1811 16.3839 33.2624 16.0294 33.3437 16.0294C33.4413 16.0294 33.5064 15.8522 33.5064 15.6428C33.5064 15.4172 33.6202 15.1433 33.7504 14.9983C33.8805 14.8694 33.9943 14.6439 33.9943 14.515C33.9943 14.37 34.0757 14.2572 34.157 14.2572C34.2546 14.2572 34.3196 14.1122 34.3196 13.935C34.3196 13.7417 34.4986 13.4356 34.7263 13.2261C34.954 13.0167 35.1329 12.8072 35.1329 12.7428C35.1329 12.6784 35.2305 12.5334 35.3444 12.4206C35.4419 12.2917 35.6534 12.05 35.7835 11.8567C36.0763 11.4217 36.5968 11.4056 36.5968 11.8245C36.5968 12.0017 36.5317 12.195 36.4341 12.2434C36.3365 12.3078 36.2715 13.21 36.2715 14.4344C36.2715 16.1261 36.3203 16.5128 36.4992 16.5128C36.6293 16.5128 36.7757 16.6094 36.8245 16.7061C36.9058 16.8672 36.9383 16.8672 37.0197 16.7061C37.0685 16.6094 37.2799 16.5128 37.4751 16.5128C37.8655 16.5128 38.3697 16.1905 39.1016 15.5139C39.3619 15.2561 39.6872 15.0628 39.8498 15.0628C40.1589 15.0628 40.6631 16.0133 40.6631 16.5933C40.6631 16.8189 40.7444 16.9961 40.8257 16.9961C40.9233 16.9961 40.9884 17.4794 40.9884 18.1238C40.9884 18.7683 41.0535 19.2516 41.151 19.2516C41.2486 19.2516 41.3137 19.5738 41.3137 19.9766C41.3137 20.3794 41.2486 20.7016 41.151 20.7016C41.0697 20.7016 40.9884 21.056 40.9884 21.5071C40.9884 21.9421 40.9233 22.3127 40.8257 22.3127C40.7444 22.3127 40.6631 22.4899 40.6631 22.6993C40.6631 22.9249 40.5492 23.1988 40.4191 23.3438C40.289 23.4727 40.1751 23.6177 40.1751 23.6821C40.1751 23.7949 38.5974 25.3738 38.4835 25.3738C38.2884 25.3738 37.7516 25.9215 37.8329 26.0504C37.9305 26.2115 39.2155 26.0343 39.4269 25.841C39.5245 25.7604 39.801 25.696 40.045 25.696C40.289 25.696 40.5004 25.6154 40.5004 25.5349C40.5004 25.4382 40.6468 25.3738 40.8257 25.3738C41.0209 25.3738 41.33 25.1965 41.5414 24.971C41.7529 24.7454 42.0456 24.5682 42.192 24.5682C42.3384 24.5682 42.4523 24.4877 42.4523 24.4071C42.4523 24.3104 42.5661 24.246 42.6962 24.246C42.8264 24.246 42.9402 24.1654 42.9402 24.0688C42.9402 23.8916 43.3469 23.4405 43.5095 23.4405C43.6396 23.4405 44.0788 23.0055 44.0788 22.8766C44.0788 22.8121 44.1764 22.6671 44.2902 22.5544C44.7945 21.9744 44.8921 21.8132 44.8921 21.5071C44.8921 21.3299 44.9734 21.1849 45.0547 21.1849C45.1523 21.1849 45.2174 21.0721 45.2174 20.9433C45.2174 20.8144 45.2824 20.7016 45.3637 20.7016C45.4613 20.7016 45.5752 20.3794 45.6403 19.9766C45.6891 19.5738 45.8029 19.2516 45.8842 19.2516C45.9656 19.2516 46.0306 18.0111 46.0306 16.5128C46.0306 14.9822 45.9656 13.7739 45.8842 13.7739C45.8029 13.7739 45.6891 13.4195 45.624 12.9684C45.5589 12.5334 45.4451 12.1306 45.3637 12.0661C45.2824 12.0178 45.2174 11.7761 45.2174 11.5023C45.2174 11.2445 45.1523 11.035 45.0547 11.035C44.9734 11.035 44.8921 10.7773 44.8921 10.4712C44.8921 10.165 44.827 9.90727 44.7457 9.90727C44.6643 9.90727 44.4692 9.53672 44.3065 9.10173C44.1439 8.65062 43.9487 8.29618 43.8836 8.29618C43.8186 8.29618 43.7535 8.16729 43.7535 8.00619C43.7535 7.84508 43.6396 7.57119 43.5095 7.39397C43.3794 7.23286 43.2655 6.95897 43.2655 6.79786C43.2655 6.65287 43.2005 6.52398 43.1029 6.52398C43.0216 6.52398 42.9402 6.4112 42.9402 6.28232C42.9402 6.15343 42.8752 6.04065 42.7776 6.04065C42.6962 6.04065 42.5824 5.86343 42.5173 5.63788C42.4685 5.41232 42.3547 5.23511 42.2734 5.23511C42.192 5.23511 42.127 5.12233 42.127 4.99344C42.127 4.86455 41.9806 4.60678 41.8017 4.42956C41.4926 4.12345 41.4926 4.12345 41.3788 4.67122C41.33 4.97733 41.2161 5.23511 41.1348 5.23511C41.0535 5.23511 40.9884 5.39621 40.9884 5.57343C40.9884 5.76677 40.8583 6.02454 40.7119 6.13732C40.3703 6.39509 39.8498 6.42731 39.8498 6.20176C39.8498 6.10509 39.7685 6.04065 39.6872 6.04065C39.5896 6.04065 39.0691 5.60566 38.5161 5.074C37.9793 4.54234 37.4263 4.10734 37.2962 4.10734C37.1823 4.10734 37.0847 4.0429 37.0847 3.97845C37.0847 3.8979 36.8245 3.70457 36.5155 3.52735C36.2064 3.36624 35.9462 3.17291 35.9462 3.10846C35.9462 3.02791 35.8648 2.97958 35.7835 2.97958C35.6859 2.97958 35.4257 2.80235 35.198 2.5768C34.9703 2.35125 34.6937 2.17403 34.5636 2.17403C34.4335 2.17403 34.3196 2.09348 34.3196 2.01292C34.3196 1.91625 34.2058 1.85181 34.0757 1.85181C33.9455 1.85181 33.8317 1.77126 33.8317 1.6907C33.8317 1.59404 33.6853 1.52959 33.5064 1.52959C33.2624 1.52959 33.1811 1.64237 33.1811 1.93237Z" fill="#5F6262"/>
<path d="M36.5968 30.1582C36.4342 30.4804 36.3854 31.1088 36.4179 32.2365C36.4667 33.8637 36.3691 34.5565 36.1089 34.5565C36.0276 34.5565 35.377 33.9765 34.6288 33.2676C33.604 32.2688 33.1974 31.9788 32.8396 31.9788C32.4492 31.9788 32.3679 32.0432 32.3679 32.3815C32.3679 32.6876 32.8558 33.2676 34.3522 34.7498L36.3529 36.6993V38.262C36.3529 39.7603 36.2227 40.3242 35.9788 39.9376C35.9137 39.8409 35.7023 39.712 35.5071 39.6476C35.2956 39.5831 35.133 39.4542 35.133 39.3737C35.133 39.2931 35.0191 39.2287 34.889 39.2287C34.7589 39.2287 34.645 39.1481 34.645 39.0676C34.645 38.9709 34.4986 38.9065 34.3197 38.9065C34.1408 38.9065 33.9944 38.8259 33.9944 38.7453C33.9944 38.6487 33.8806 38.5842 33.7504 38.5842C33.6203 38.5842 33.5064 38.4715 33.5064 38.3426C33.5064 38.2137 33.4414 38.1009 33.3438 38.1009C33.2625 38.1009 33.1811 37.8109 33.1811 37.4565C33.1811 37.102 33.1161 36.812 33.0185 36.812C32.9372 36.812 32.8558 36.6348 32.8558 36.4093C32.8558 36.1837 32.742 35.7326 32.6119 35.4104C32.4817 35.1043 32.3679 34.5887 32.3679 34.2987C32.3679 33.9926 32.3028 33.751 32.2052 33.751C32.1239 33.751 32.0426 33.5415 32.0426 33.2837C32.0426 32.8004 31.6197 32.5426 31.1317 32.736C30.8715 32.8326 30.8064 34.2343 31.0667 34.2343C31.1643 34.2343 31.2293 34.5565 31.2293 34.9432C31.2293 35.3298 31.3106 35.6843 31.392 35.7165C31.6359 35.797 31.7498 36.8604 31.5546 37.1343C31.4082 37.3115 31.3432 37.3276 31.2781 37.1665C31.2456 37.0698 31.0992 36.9731 30.9691 36.9731C30.8389 36.9731 30.7414 36.9248 30.7414 36.8443C30.7414 36.6831 29.798 36.1676 29.5052 36.1676C29.3751 36.1676 29.2775 36.1032 29.2775 36.0387C29.2775 35.9582 29.0172 35.7648 28.7082 35.5876C28.3992 35.4265 28.1389 35.2332 28.1389 35.1687C28.1389 35.0882 27.8787 35.0398 27.5696 35.0398C27.0979 35.0398 27.0003 35.1043 27.0003 35.3621C27.0003 35.7487 27.6022 36.4093 28.1064 36.5543C28.3016 36.6187 28.4642 36.7476 28.4642 36.8281C28.4642 36.9087 28.5781 36.9731 28.7082 36.9731C28.8383 36.9731 28.9522 37.0376 28.9522 37.1343C28.9522 37.2148 29.0986 37.2954 29.2775 37.2954C29.4564 37.2954 29.6028 37.3598 29.6028 37.4565C29.6028 37.537 29.7004 37.6176 29.8142 37.6176C30.1883 37.6176 30.7414 38.1976 30.7414 38.5681C30.7414 38.8581 30.6438 38.9065 30.0094 38.9065C29.6028 38.9065 29.2775 38.9709 29.2775 39.0676C29.2775 39.1481 29.0823 39.2287 28.8546 39.2287C28.2528 39.2287 26.854 39.7442 26.7564 40.002C26.6425 40.3242 26.9678 40.8398 27.2931 40.8398C27.4558 40.8398 27.7323 40.727 27.9112 40.5981C28.0739 40.4692 28.4642 40.3564 28.757 40.3564C29.0335 40.3564 29.2775 40.2759 29.2775 40.1953C29.2775 40.0987 29.6516 40.0342 30.0907 40.0342C30.5462 40.0342 30.904 39.9698 30.904 39.8892C30.904 39.6314 32.6607 39.3898 33.0998 39.5831C33.3275 39.6798 33.5064 39.8248 33.5064 39.9053C33.5064 39.9698 33.6854 40.0342 33.9131 40.0342C34.1408 40.0342 34.3197 40.0987 34.3197 40.1953C34.3197 40.2759 34.4336 40.3564 34.5637 40.3564C34.6938 40.3564 34.8077 40.4209 34.8077 40.5014C34.8077 40.582 34.9541 40.7109 35.133 40.7592C35.6047 40.9042 35.5559 41.452 35.0517 41.5809C34.8239 41.6292 34.645 41.742 34.645 41.8225C34.645 41.9031 34.4986 41.9675 34.3197 41.9675C34.1408 41.9675 33.9944 42.032 33.9944 42.1286C33.9944 42.2092 33.8155 42.322 33.5878 42.3864C33.3601 42.4347 33.1811 42.5475 33.1811 42.6281C33.1811 42.8214 31.9287 42.8214 31.8149 42.6281C31.7661 42.5636 31.4245 42.4509 31.0667 42.3864C30.7088 42.3381 30.4161 42.2092 30.4161 42.1286C30.4161 42.032 30.0907 41.9675 29.7004 41.9675C29.31 41.9675 28.9522 41.9031 28.9196 41.8064C28.8709 41.6292 26.7564 41.5003 26.5937 41.6775C26.5287 41.742 26.5775 41.9031 26.6913 42.032C26.8214 42.1609 27.0166 42.3864 27.1305 42.5314C27.2443 42.6603 27.5859 42.7731 27.8949 42.7731C28.204 42.7731 28.4642 42.8375 28.4642 42.9342C28.4642 43.0147 28.757 43.0953 29.0986 43.0953C29.4564 43.0953 29.7817 43.1597 29.8468 43.2403C29.8956 43.3209 30.1558 43.4336 30.4161 43.4981C30.8715 43.5947 31.1155 43.9008 30.7414 43.9008C30.6438 43.9008 30.3673 44.0781 30.1233 44.3036C29.8793 44.5292 29.6028 44.7064 29.4889 44.7064C29.3751 44.7064 29.2775 44.7708 29.2775 44.8514C29.2775 44.9319 29.0986 45.0447 28.8709 45.0931C28.6431 45.1575 28.4642 45.2703 28.4642 45.3508C28.4642 45.4475 28.3178 45.5119 28.1389 45.5119C27.96 45.5119 27.8136 45.5764 27.8136 45.673C27.8136 45.7536 27.7323 45.8342 27.6347 45.8342C27.3907 45.8342 27.0654 46.1886 26.9353 46.6075C26.8214 46.9297 26.8702 46.9619 27.472 46.9619C27.8461 46.9619 28.1389 46.9136 28.1389 46.833C28.1389 46.6719 29.0823 46.1564 29.3751 46.1564C29.5052 46.1564 29.6028 46.0758 29.6028 45.9953C29.6028 45.8986 29.7166 45.8342 29.8468 45.8342C29.9769 45.8342 30.0907 45.7697 30.0907 45.6892C30.0907 45.6086 30.2697 45.4958 30.4974 45.4475C30.7251 45.383 30.904 45.2703 30.904 45.1897C30.904 44.8675 31.5221 45.0286 31.6034 45.3669C31.701 45.7536 31.5871 46.1564 31.3757 46.1564C31.2944 46.1564 31.2293 46.4464 31.2293 46.8008C31.2293 47.1553 31.1643 47.4452 31.0667 47.4452C30.9691 47.4452 30.904 47.9286 30.904 48.573C30.904 49.5558 30.9365 49.7008 31.1968 49.7008C31.5221 49.7008 32.0426 48.9275 32.0426 48.428C32.0426 48.2347 32.1239 48.0897 32.2052 48.0897C32.3028 48.0897 32.3679 47.7675 32.3679 47.3808C32.3679 46.978 32.4329 46.6236 32.5143 46.5591C32.6119 46.5108 32.7257 46.1403 32.7908 45.7536C32.8396 45.3508 32.9534 45.0286 33.0348 45.0286C33.1161 45.0286 33.1811 44.7708 33.1811 44.4647C33.1811 44.0781 33.2625 43.9008 33.4251 43.9008C33.5552 43.9008 33.6691 43.8525 33.6691 43.772C33.6691 43.6108 34.6125 43.0953 34.9053 43.0953C35.0354 43.0953 35.133 43.0309 35.133 42.9503C35.133 42.8697 35.3607 42.7247 35.6535 42.6281C36.3691 42.3703 36.4667 42.5797 36.3854 44.2714L36.3041 45.6892L35.5559 46.398C35.1492 46.8008 34.8077 47.1875 34.8077 47.2841C34.8077 47.3647 34.7426 47.4452 34.6613 47.4452C34.5637 47.4452 34.0107 47.9286 33.4251 48.5086C32.5631 49.3624 32.3516 49.6686 32.4004 50.0069C32.4492 50.4902 32.8721 50.6352 33.2625 50.313C33.539 50.0874 33.5064 50.1197 34.8565 48.7341C35.8161 47.7514 36.1577 47.5741 36.3366 48.0252C36.3854 48.1702 36.4342 49.153 36.4342 50.2324C36.4505 51.6663 36.4993 52.2785 36.6782 52.5041C36.8896 52.7941 36.9222 52.7941 37.1987 52.5202C37.4426 52.2785 37.4914 51.8758 37.5402 49.9908C37.6053 48.1541 37.6541 47.7675 37.8493 47.7675C37.9957 47.7675 38.7113 48.3958 39.4433 49.153C40.8746 50.6352 41.3463 50.8285 41.4439 49.9747C41.4927 49.6041 41.2324 49.2819 39.7035 47.7836C37.6053 45.7214 37.3938 45.3347 37.524 43.7236L37.6216 42.5797L38.1258 42.6764C38.4023 42.7409 38.6625 42.8536 38.6788 42.9342C38.7113 43.0309 38.874 43.0953 39.0529 43.0953C39.2156 43.0953 39.3619 43.1597 39.3619 43.2564C39.3619 43.337 39.5409 43.4497 39.7686 43.5142C39.9963 43.5625 40.1752 43.6753 40.1752 43.7558C40.1752 43.8364 40.2891 43.9008 40.4192 43.9008C40.5656 43.9008 40.6632 44.0458 40.6632 44.3036C40.6632 44.5292 40.7445 44.7064 40.8258 44.7064C40.9234 44.7064 40.9885 45.0286 40.9885 45.4314C40.9885 45.8342 41.0535 46.1564 41.1186 46.1564C41.265 46.1564 41.574 47.413 41.7529 48.6375C41.8505 49.3786 42.127 49.7008 42.5987 49.7008C42.9078 49.7008 42.9403 49.6041 42.9403 48.7341C42.9403 48.2025 42.8752 47.7675 42.7939 47.7675C42.7126 47.7675 42.615 47.4614 42.5499 47.0908C42.4849 46.7203 42.3547 46.3175 42.2734 46.2208C42.1758 46.108 42.127 45.8503 42.1596 45.6408C42.2246 45.1414 42.8264 45.0769 43.2493 45.4958C43.4445 45.6892 43.7048 45.8342 43.8349 45.8342C43.965 45.8342 44.0789 45.8986 44.0789 45.9792C44.0789 46.0597 44.2578 46.1725 44.4855 46.2208C44.7132 46.2853 44.8921 46.398 44.8921 46.4786C44.8921 46.5753 45.006 46.6397 45.1361 46.6397C45.2662 46.6397 45.3801 46.7041 45.3801 46.8008C45.3801 46.8814 45.5265 46.9619 45.6891 46.9619C45.868 46.9619 46.0307 47.0264 46.0632 47.1069C46.0958 47.1714 46.2747 47.3002 46.4861 47.3486C46.8114 47.4614 46.844 47.413 46.844 46.8169C46.844 46.3336 46.7789 46.1564 46.6 46.1564C46.4699 46.1564 46.356 46.0758 46.356 45.9953C46.356 45.8986 46.2096 45.8342 46.0307 45.8342C45.8518 45.8342 45.7054 45.7697 45.7054 45.6892C45.7054 45.6086 45.5265 45.4958 45.2988 45.4475C45.071 45.383 44.8921 45.2703 44.8921 45.1897C44.8921 45.0931 44.7783 45.0286 44.6482 45.0286C44.518 45.0286 44.4042 44.9481 44.4042 44.8675C44.4042 44.7708 44.2903 44.7064 44.1602 44.7064C43.9325 44.7064 42.8427 43.772 42.9566 43.6753C43.0867 43.5786 44.8433 43.2242 45.5915 43.1436C46.0144 43.0953 46.356 42.9986 46.356 42.9181C46.356 42.8375 46.5349 42.7731 46.7626 42.7731C47.1205 42.7731 47.1693 42.7086 47.1693 42.2092C47.1693 41.6453 47.1693 41.6453 46.4373 41.6453C46.0307 41.6453 45.7054 41.7098 45.7054 41.8064C45.7054 41.887 45.3476 41.9675 44.8921 41.9675C44.453 41.9675 44.0789 42.032 44.0789 42.1125C44.0789 42.2092 43.7536 42.322 43.3469 42.3864C42.9403 42.4347 42.5662 42.5475 42.5174 42.6281C42.4035 42.8214 40.6632 42.8214 40.6632 42.6281C40.6632 42.5475 40.4842 42.4347 40.2565 42.3864C40.0288 42.322 39.8499 42.2092 39.8499 42.1286C39.8499 42.032 39.7035 41.9675 39.5246 41.9675C38.7276 41.9675 38.3372 40.9848 39.0529 40.7592C39.2156 40.6948 39.3619 40.582 39.3619 40.5014C39.3619 40.4209 39.4758 40.3564 39.6059 40.3564C39.736 40.3564 39.8499 40.2759 39.8499 40.1953C39.8499 40.0987 39.9963 40.0342 40.1589 40.0342C40.3379 40.0342 40.5005 39.9376 40.5493 39.8248C40.6306 39.5831 42.5011 39.5992 42.5825 39.857C42.615 39.9537 42.9728 40.0342 43.3632 40.0342C43.7536 40.0342 44.0789 40.0987 44.0789 40.1953C44.0789 40.2759 44.3228 40.3564 44.6156 40.3564C44.8921 40.3564 45.2825 40.4692 45.4451 40.5981C45.6241 40.727 45.9331 40.8398 46.1283 40.8398C46.3235 40.8398 46.5187 40.9364 46.5512 41.0331C46.6 41.1781 46.6976 41.162 46.8928 40.9687C47.4458 40.437 47.0717 39.712 46.2421 39.712C45.9982 39.712 45.6403 39.5992 45.4777 39.4703C45.2988 39.3415 44.9084 39.2287 44.6156 39.2287C44.3228 39.2287 44.0789 39.1481 44.0789 39.0676C44.0789 38.9709 43.9 38.9065 43.6722 38.9065C43.3469 38.9065 43.2656 38.8259 43.2656 38.5037C43.2656 38.1976 43.3469 38.1009 43.6072 38.1009C43.8024 38.1009 44.1277 37.9237 44.3391 37.6981C44.5506 37.4726 44.8271 37.2954 44.9735 37.2954C45.1036 37.2954 45.2174 37.2148 45.2174 37.1343C45.2174 37.0376 45.3964 36.9731 45.6241 36.9731C45.8518 36.9731 46.0307 36.9087 46.0307 36.8281C46.0307 36.7476 46.1933 36.6187 46.3885 36.5543C47.1367 36.3287 47.397 35.7165 46.9416 35.2654C46.665 35.0076 46.1933 34.9593 46.1933 35.2009C46.1933 35.2815 46.0795 35.3621 45.9494 35.3621C45.8193 35.3621 45.7054 35.4265 45.7054 35.5071C45.7054 35.5876 45.5427 35.7165 45.3476 35.7809C45.1361 35.8454 44.9409 35.942 44.8921 35.9904C44.6969 36.232 43.412 36.9731 43.1843 36.9731C43.0542 36.9731 42.9403 37.0376 42.9403 37.1343C42.9403 37.2148 42.8427 37.2954 42.7289 37.2954C42.4686 37.2954 42.0945 36.6993 42.2897 36.5704C42.371 36.522 42.4849 36.1515 42.5499 35.7648C42.5987 35.3621 42.7126 35.0398 42.7939 35.0398C42.8752 35.0398 42.9403 34.7176 42.9403 34.3148C42.9403 33.9121 43.0216 33.5899 43.103 33.5899C43.3469 33.5899 43.2981 33.2837 43.0379 33.0099C42.5662 32.5426 42.127 32.8326 42.127 33.606C42.127 33.7671 42.062 33.9121 41.9806 33.9121C41.8993 33.9121 41.8017 34.1054 41.7529 34.3471C41.3463 36.2804 41.2487 36.6509 41.1186 36.6509C41.0535 36.6509 40.9885 36.9087 40.9885 37.2148C40.9885 37.5209 40.9234 37.7787 40.8258 37.7787C40.7445 37.7787 40.6632 37.9076 40.6632 38.0687C40.6632 38.3909 40.1264 38.9065 39.7686 38.9065C39.6385 38.9065 39.5246 38.9709 39.5246 39.0515C39.5246 39.132 39.3619 39.2287 39.1505 39.2931C38.9553 39.3415 38.6137 39.5348 38.4186 39.712C38.0933 40.0181 38.0282 40.0342 37.8005 39.7926C37.4264 39.4381 37.3776 37.8754 37.7029 36.9248C37.8493 36.5059 38.0119 36.1676 38.0933 36.1676C38.2559 36.1676 39.0366 35.3782 39.0366 35.2009C39.0366 35.1043 39.1342 35.0398 39.2481 35.0398C39.3782 35.0398 39.5734 34.8626 39.6872 34.6371C39.8011 34.4115 39.9638 34.2343 40.0451 34.2343C40.224 34.2343 40.6632 33.8154 40.6632 33.6543C40.6632 33.606 40.8096 33.4287 40.9885 33.2676C41.1674 33.1065 41.3626 32.7682 41.4114 32.4782C41.509 32.0271 41.4764 31.9788 41.0861 31.9788C40.8583 31.9788 40.6632 32.0432 40.6632 32.1399C40.6632 32.2204 40.5818 32.301 40.4842 32.301C40.2565 32.301 39.8499 32.7038 39.8499 32.9293C39.8499 33.026 39.7686 33.1065 39.671 33.1065C39.4433 33.1065 39.0366 33.5093 39.0366 33.7348C39.0366 33.8315 38.939 33.9121 38.8252 33.9121C38.7113 33.9121 38.5161 34.0571 38.386 34.2343C38.1258 34.5887 37.6378 34.6693 37.524 34.3471C37.4914 34.2504 37.4914 33.6382 37.5402 33.0099C37.5728 32.3815 37.5565 31.3827 37.5077 30.8027C37.4101 29.9166 37.3288 29.7232 37.1011 29.7232C36.9384 29.7232 36.7107 29.9166 36.5968 30.1582Z" fill="#5F6262"/>
</svg>
