<svg width="60" height="42" viewBox="0 0 60 42" fill="none" xmlns="http://www.w3.org/2000/svg">
<path d="M27.4286 1.04585C27.4286 1.13298 26.8857 1.19108 26.0714 1.19108C25.3286 1.19108 24.7143 1.24917 24.7143 1.32178C24.7143 1.3944 24.3286 1.49606 23.8572 1.55415C23.3857 1.61224 22.9572 1.7139 22.9143 1.78652C22.8714 1.85913 22.6143 1.91722 22.3429 1.91722C22.0714 1.91722 21.8572 1.97532 21.8572 2.06245C21.8572 2.13507 21.6286 2.20768 21.3572 2.20768C21.0857 2.20768 20.8572 2.26577 20.8572 2.33839C20.8572 2.411 20.6286 2.51266 20.3572 2.55623C20.0857 2.61432 19.8572 2.71598 19.8572 2.7886C19.8572 2.87574 19.6286 2.93383 19.3572 2.93383C19.0857 2.93383 18.8572 2.99192 18.8572 3.07906C18.8572 3.15167 18.7 3.22429 18.5 3.22429C18.2714 3.22429 18.1429 3.31142 18.1429 3.44213C18.1429 3.57284 18.0143 3.65997 17.7857 3.65997C17.5857 3.65997 17.4286 3.71807 17.4286 3.8052C17.4286 3.87782 17.2714 3.95043 17.0857 3.95043C16.8857 3.95043 16.6429 4.05209 16.5143 4.16828C16.4 4.28446 16.2 4.38612 16.0857 4.38612C15.9572 4.38612 15.8572 4.44421 15.8572 4.53135C15.8572 4.60396 15.7286 4.67658 15.5714 4.67658C15.4143 4.67658 15.2857 4.73467 15.2857 4.82181C15.2857 4.89442 15.1572 4.96704 15 4.96704C14.8429 4.96704 14.7143 5.0687 14.7143 5.18488C14.7143 5.31559 14.5857 5.40273 14.3572 5.40273C14.1572 5.40273 14 5.44629 14 5.51891C14 5.577 13.7714 5.75127 13.5 5.8965C13.2286 6.05626 13 6.23053 13 6.30315C13 6.36124 12.9 6.41933 12.7857 6.41933C12.6572 6.41933 12.4143 6.57908 12.2286 6.7824C12.0429 6.98572 11.8286 7.14547 11.7286 7.14547C11.6429 7.14547 11.5714 7.18904 11.5714 7.24714C11.5714 7.31975 11.3286 7.52307 11.0429 7.72639C10.4 8.16208 6.85716 11.7347 6.85716 11.9235C6.85716 12.0107 6.70001 12.2285 6.50001 12.4318C6.30001 12.6351 6.14287 12.8385 6.14287 12.882C6.14287 12.9401 6.05716 13.0708 5.97144 13.1725C5.28573 13.9422 5.27144 14.131 5.84287 14.7119C6.42859 15.3074 6.90001 15.2638 7.58573 14.5522C7.88573 14.2472 8.14287 13.9422 8.14287 13.8841C8.14287 13.826 8.30001 13.6372 8.50001 13.4484C8.70001 13.2596 8.85716 13.0127 8.85716 12.882C8.85716 12.7658 8.92859 12.6642 9.00001 12.6642C9.20001 12.6642 9.85716 11.9961 9.85716 11.7928C9.85716 11.7202 9.92859 11.6476 10.0143 11.6476C10.2143 11.6476 10.5714 11.2845 10.5714 11.0812C10.5714 10.994 10.6429 10.9214 10.7143 10.9214C10.8714 10.9214 11.0572 10.7617 12.1429 9.71603C12.4429 9.42558 12.7429 9.17868 12.7857 9.17868C12.8286 9.17868 13.0286 9.01893 13.2286 8.81561C13.4286 8.61229 13.6429 8.45254 13.7286 8.45254C13.8 8.45254 14.0286 8.29279 14.2286 8.08947C14.4286 7.88614 14.6714 7.72639 14.7857 7.72639C14.9 7.72639 15 7.65378 15 7.58116C15 7.49403 15.1 7.43593 15.2143 7.43593C15.3286 7.43593 15.4286 7.39236 15.4286 7.31975C15.4286 7.17452 16.2572 6.70979 16.5143 6.70979C16.6286 6.70979 16.7143 6.63717 16.7143 6.56456C16.7143 6.47742 16.8143 6.41933 16.9286 6.41933C17.0429 6.41933 17.1429 6.36124 17.1429 6.2741C17.1429 6.20148 17.3 6.09982 17.5 6.04173C17.7 5.99817 17.8572 5.8965 17.8572 5.82389C17.8572 5.75127 17.9857 5.69318 18.1572 5.69318C18.3143 5.69318 18.5429 5.59152 18.6572 5.47534C18.7857 5.35915 19 5.2575 19.1429 5.2575C19.2857 5.2575 19.4572 5.18488 19.5 5.11227C19.5429 5.02513 19.7143 4.96704 19.8714 4.96704C20.0143 4.96704 20.1429 4.89442 20.1429 4.82181C20.1429 4.73467 20.3 4.67658 20.4857 4.67658C20.6857 4.67658 20.8714 4.61849 20.9143 4.54587C20.9714 4.47326 21.2572 4.3716 21.5714 4.3135C21.8857 4.25541 22.1714 4.15375 22.2286 4.08114C22.2714 4.00852 22.5857 3.95043 22.9429 3.95043C23.2857 3.95043 23.5714 3.89234 23.5714 3.83425C23.5714 3.64545 25.5 3.32595 27.0429 3.26786C27.8 3.23881 28.4286 3.13715 28.4286 3.06453C28.4286 2.99192 28.9143 2.93383 29.5 2.93383C30.1143 2.93383 30.5714 2.99192 30.5714 3.07906C30.5714 3.16619 31.1286 3.22429 31.9714 3.22429C32.7857 3.22429 33.6429 3.31142 34.0572 3.44213C34.4429 3.55831 35 3.65997 35.3143 3.65997C35.6143 3.65997 35.8572 3.71807 35.8572 3.8052C35.8572 3.87782 36.1857 3.95043 36.5714 3.95043C36.9714 3.95043 37.2857 4.00852 37.2857 4.08114C37.2857 4.19732 37.9714 4.41516 39.0429 4.63301C39.2572 4.67658 39.4286 4.76371 39.4286 4.83633C39.4286 4.90894 39.5714 4.96704 39.7572 4.96704C39.9429 4.96704 40.2143 5.0687 40.3714 5.18488C40.5143 5.30106 40.7572 5.40273 40.9 5.40273C41.0286 5.40273 41.1429 5.46082 41.1429 5.54795C41.1429 5.62057 41.3 5.69318 41.5 5.69318C41.7 5.69318 41.8572 5.75127 41.8572 5.82389C41.8572 5.8965 42.0143 5.99817 42.2143 6.04173C42.4143 6.09982 42.5714 6.20148 42.5714 6.2741C42.5714 6.36124 42.7286 6.41933 42.9286 6.41933C43.1286 6.41933 43.2857 6.47742 43.2857 6.56456C43.2857 6.63717 43.4143 6.70979 43.5714 6.70979C43.7286 6.70979 43.8572 6.76788 43.8572 6.85501C43.8572 6.92763 44.0143 7.02929 44.2143 7.08738C44.4143 7.13095 44.5714 7.23261 44.5714 7.30523C44.5714 7.37784 44.6429 7.43593 44.7286 7.43593C44.8143 7.43593 44.9714 7.52307 45.0714 7.61021C45.5429 8.04589 45.7143 8.16208 45.8572 8.16208C45.9286 8.16208 46 8.20565 46 8.27826C46 8.33635 46.2286 8.51063 46.5 8.65586C46.7714 8.81561 47 8.98989 47 9.0625C47 9.12059 47.0714 9.17868 47.1429 9.17868C47.3 9.17868 47.5 9.32391 48.0714 9.86126C48.2572 10.0501 48.4857 10.1953 48.5714 10.1953C48.6429 10.1953 48.7143 10.2679 48.7143 10.355C48.7143 10.5148 49.0714 10.9214 49.2143 10.9214C49.3572 10.9214 49.7143 11.3281 49.7143 11.4878C49.7143 11.575 49.7857 11.6476 49.8714 11.6476C50.0429 11.6476 50.4286 12.0107 50.4286 12.1849C50.4286 12.243 50.5857 12.4318 50.7857 12.577C50.9857 12.7223 51.1429 12.9401 51.1429 13.0418C51.1429 13.158 51.2143 13.2451 51.2857 13.2451C51.3714 13.2451 51.4286 13.3468 51.4286 13.4629C51.4286 13.5791 51.5286 13.6808 51.6429 13.6808C51.7572 13.6808 51.8572 13.7679 51.8572 13.8696C51.8572 13.9712 51.9857 14.1455 52.1429 14.2617C52.3 14.3779 52.4286 14.5522 52.4286 14.6538C52.4286 14.7555 52.5857 14.9879 52.7857 15.1912C52.9857 15.3945 53.1429 15.685 53.1429 15.8592C53.1429 16.019 53.2429 16.1497 53.3572 16.1497C53.4714 16.1497 53.5714 16.2513 53.5714 16.3675C53.5714 16.4837 53.6429 16.5854 53.7143 16.5854C53.8 16.5854 53.8572 16.7161 53.8572 16.8758C53.8572 17.0356 53.9143 17.1663 53.9857 17.1663C54.0572 17.1663 54.1572 17.326 54.2 17.5294C54.2572 17.7327 54.3572 17.8924 54.4286 17.8924C54.5143 17.8924 54.5714 18.0231 54.5714 18.1829C54.5714 18.3572 54.7 18.6186 54.8572 18.7929C55.0143 18.9671 55.1429 19.214 55.1429 19.3447C55.1429 19.4754 55.2429 19.7078 55.3572 19.8676C55.4714 20.0128 55.5714 20.2887 55.5714 20.463C55.5714 20.6518 55.6429 20.797 55.7143 20.797C55.8 20.797 55.8572 20.9132 55.8572 21.0584C55.8572 21.2037 55.9572 21.4506 56.0714 21.6103C56.1857 21.7555 56.2857 22.0605 56.2857 22.2784C56.2857 22.5107 56.3429 22.685 56.4143 22.685C56.4857 22.685 56.5714 22.9028 56.6286 23.1497C56.8286 24.3697 57.0714 25.2991 57.1714 25.2991C57.2286 25.2991 57.2857 25.7493 57.2857 26.3012C57.2857 26.9838 57.3429 27.3323 57.4714 27.3759C57.7143 27.4485 57.7143 35.4942 57.4572 35.5814C57.3429 35.6104 57.2857 35.9735 57.2857 36.5689C57.2857 37.0917 57.2286 37.4984 57.1429 37.4984C57.0714 37.4984 57 37.6727 57 37.8905C57 38.1229 56.9 38.4859 56.7857 38.7183C56.6714 38.9362 56.5714 39.3137 56.5714 39.5461C56.5714 39.7785 56.5143 39.9673 56.4286 39.9673C56.3572 39.9673 56.2857 40.1416 56.2857 40.3594C56.2857 40.5918 56.1857 40.8967 56.0714 41.042C55.9572 41.2017 55.8572 41.4777 55.8572 41.6665C55.8572 41.986 55.9 42.0005 56.9286 42.0005C57.7857 42.0005 58 41.9569 58 41.7826C58 41.6665 58.0714 41.5648 58.1429 41.5648C58.2286 41.5648 58.2857 41.405 58.2857 41.2163C58.2857 41.0129 58.3572 40.8096 58.4286 40.766C58.5143 40.7225 58.5714 40.4901 58.5714 40.2577C58.5714 40.0254 58.6714 39.7494 58.7857 39.6187C58.9 39.5025 59 39.1685 59 38.8926C59 38.6021 59.0714 38.3698 59.1429 38.3698C59.2286 38.3698 59.2857 38.0212 59.2857 37.6C59.2857 37.1789 59.3572 36.7577 59.4429 36.6706C59.5286 36.5834 59.6286 35.8573 59.6714 35.044C59.7143 34.2452 59.8143 33.5772 59.8714 33.5772C59.9429 33.5772 60 32.5606 60 31.3261C60 29.9174 59.9429 29.0751 59.8572 29.0751C59.7714 29.0751 59.7143 28.5958 59.7143 27.9423C59.7143 27.3033 59.6143 26.4755 59.5 26.0834C59.3857 25.6912 59.2857 25.1249 59.2857 24.8199C59.2857 24.5294 59.2286 24.2825 59.1429 24.2825C59.0714 24.2825 59 24.0502 59 23.7597C59 23.4838 58.9 23.1497 58.7857 23.0336C58.6714 22.9028 58.5714 22.5833 58.5714 22.3074C58.5714 22.0315 58.5143 21.8136 58.4286 21.8136C58.3572 21.8136 58.2857 21.5813 58.2857 21.3053C58.2857 21.0294 58.2286 20.797 58.1714 20.797C58.1 20.797 57.9286 20.4339 57.7857 19.9983C57.6286 19.5626 57.4572 19.1995 57.4 19.1995C57.3429 19.1995 57.2857 19.0688 57.2857 18.909C57.2857 18.7493 57.2286 18.6186 57.1714 18.6186C57.1143 18.6186 56.9429 18.2846 56.7857 17.8924C56.6286 17.4858 56.4572 17.1663 56.4 17.1663C56.3429 17.1663 56.2857 17.0501 56.2857 16.8904C56.2857 16.7451 56.1857 16.5418 56.0714 16.4401C55.9572 16.3385 55.8572 16.1642 55.8572 16.0625C55.8572 15.9464 55.8 15.8592 55.7143 15.8592C55.6429 15.8592 55.5714 15.6995 55.5714 15.4962C55.5714 15.2638 55.4857 15.1331 55.3572 15.1331C55.2429 15.1331 55.1429 15.0314 55.1429 14.9152C55.1429 14.7991 55.0857 14.6974 55 14.6974C54.9286 14.6974 54.8572 14.5957 54.8572 14.465C54.8572 14.3343 54.7 14.0729 54.5 13.8841C54.3 13.6953 54.1429 13.4484 54.1429 13.3177C54.1429 13.2015 54.0857 13.0999 54 13.0999C53.9286 13.0999 53.8572 12.9982 53.8572 12.882C53.8572 12.7658 53.7857 12.6642 53.7 12.6642C53.5429 12.6642 53.1429 12.3011 53.1429 12.1559C53.1429 12.0978 53.0572 11.9671 52.9714 11.8654C52.5714 11.4152 52.4286 11.2264 52.4286 11.1393C52.4286 10.994 52.0429 10.631 51.8857 10.631C51.8143 10.631 51.6714 10.4712 51.5714 10.2679C51.4714 10.0646 51.3286 9.90483 51.2572 9.90483C51.1857 9.90483 50.8143 9.59985 50.4286 9.20773C49.6429 8.42349 48.9714 7.87162 48.8286 7.87162C48.7572 7.87162 48.7143 7.76996 48.7143 7.65378C48.7143 7.53759 48.6143 7.43593 48.5 7.43593C48.3857 7.43593 48.2857 7.37784 48.2857 7.30523C48.2857 7.23261 48.1714 7.13095 48.0143 7.07286C47.8714 7.02929 47.5572 6.81145 47.3143 6.57908C47.0857 6.34671 46.7572 6.11435 46.5857 6.05626C46.4286 6.01269 46.2857 5.8965 46.2857 5.82389C46.2857 5.75127 46.1572 5.69318 46 5.69318C45.8429 5.69318 45.7143 5.64961 45.7143 5.577C45.7143 5.51891 45.4572 5.34463 45.1429 5.1994C44.8286 5.03965 44.5714 4.86538 44.5714 4.79276C44.5714 4.73467 44.4143 4.67658 44.2143 4.67658C44.0143 4.67658 43.8572 4.61849 43.8572 4.54587C43.8572 4.47326 43.7 4.3716 43.5 4.32803C43.3 4.26994 43.1429 4.16828 43.1429 4.09566C43.1429 4.00852 42.9857 3.95043 42.7857 3.95043C42.5857 3.95043 42.4286 3.87782 42.4286 3.8052C42.4286 3.71807 42.3143 3.65997 42.1857 3.65997C42.0429 3.65997 41.8 3.55831 41.6572 3.44213C41.5 3.32595 41.2572 3.22429 41.1143 3.22429C40.9714 3.22429 40.8572 3.15167 40.8572 3.07906C40.8572 2.99192 40.6286 2.93383 40.3572 2.93383C40.0857 2.93383 39.8572 2.87574 39.8572 2.7886C39.8572 2.71598 39.6 2.5998 39.2857 2.55623C38.9714 2.49814 38.7143 2.411 38.7143 2.33839C38.7143 2.26577 38.4857 2.20768 38.2143 2.20768C37.9429 2.20768 37.7143 2.14959 37.7143 2.07698C37.7143 2.00436 37.4714 1.91722 37.1857 1.87365C36.1714 1.74295 34.8572 1.40892 34.8572 1.30726C34.8572 1.23465 34.2857 1.19108 33.5857 1.19108C32.8714 1.19108 32.2572 1.11846 32.2143 1.04585C32.1572 0.95871 31.1857 0.90062 29.7714 0.90062C28.3 0.90062 27.4286 0.95871 27.4286 1.04585Z" fill="#5F6262"/>
<path d="M28.7428 6.98577C28.5714 7.131 28.4285 7.36337 28.4285 7.49407C28.4285 7.62478 28.3714 7.72644 28.2857 7.72644C28.2 7.72644 28.1428 8.27831 28.1428 9.10612C28.1428 9.93392 28.2 10.4858 28.2857 10.4858C28.3714 10.4858 28.4285 10.6455 28.4285 10.8343C28.4285 11.1103 28.5285 11.2119 28.8571 11.2846C29.1 11.3426 29.4714 11.3426 29.7 11.2846C30.1 11.1974 30.1143 11.1538 30.2143 10.1808C30.3428 8.83018 30.1714 7.131 29.8714 6.89863C29.5428 6.63722 29.0857 6.66627 28.7428 6.98577Z" fill="#5F6262"/>
<path d="M29.4 14.6106C29.2572 14.7122 29.1429 14.9446 29.1429 15.1189C29.1429 15.2786 29.0715 15.4239 29 15.4239C28.9 15.4239 28.8572 17.9944 28.8572 23.1646C28.8715 27.4198 28.8286 31.036 28.7715 31.1812C28.7143 31.341 28.5429 31.5734 28.4 31.7041C28.2572 31.8348 28.1429 31.9945 28.1429 32.0381C28.1429 32.1543 27.7715 32.5609 27.6572 32.5609C27.4715 32.5609 21.3 38.951 21.2143 39.2269C21.0572 39.7498 21.2572 40.5485 21.5429 40.5485C21.6857 40.5485 21.8714 40.6211 21.9572 40.7083C22.0714 40.8245 22.1429 40.8245 22.2 40.7083C22.2572 40.6211 22.4 40.5485 22.5 40.5485C22.6143 40.5485 23.3143 39.924 24.0572 39.1688C24.8 38.4137 25.4572 37.7892 25.5 37.7892C25.6429 37.7892 26 37.3825 26 37.2228C26 37.1356 26.0715 37.063 26.1572 37.063C26.3143 37.063 26.7143 36.6999 26.7143 36.5547C26.7143 36.4095 27.1143 36.0464 27.2715 36.0464C27.3572 36.0464 27.4286 35.9738 27.4286 35.8867C27.4286 35.7269 27.7857 35.3203 27.9286 35.3203C28.0429 35.3203 28.4286 34.9281 28.4286 34.812C28.4286 34.6667 28.8286 34.3037 28.9857 34.3037C29.0715 34.3037 29.1429 34.231 29.1429 34.1439C29.1429 33.9842 29.5 33.5775 29.6429 33.5775C29.7572 33.5775 30.1429 33.1854 30.1429 33.0692C30.1429 33.0256 30.3 32.8223 30.5 32.619C30.7572 32.3576 30.8572 32.0962 30.8572 31.6895C30.8572 31.37 30.9286 31.1086 31 31.1086C31.1 31.1086 31.1429 28.3928 31.1429 23.2662C31.1429 18.1396 31.1 15.4239 31 15.4239C30.9286 15.4239 30.8572 15.3222 30.8572 15.206C30.8572 14.872 30.3286 14.4073 29.9715 14.4073C29.7857 14.4073 29.5286 14.5089 29.4 14.6106Z" fill="#5F6262"/>
<path d="M13.5286 14.9444C13.1572 15.3655 13.2143 16.2078 13.6429 16.6435C13.8429 16.8469 14 17.0502 14 17.0937C14 17.2099 14.3857 17.602 14.5 17.602C14.5429 17.602 14.8 17.8344 15.0572 18.1104C15.4572 18.5315 15.6286 18.6187 16.1286 18.6187C16.4857 18.6187 16.7143 18.546 16.7143 18.4444C16.7143 18.3572 16.8143 18.1684 16.9286 18.0377C17.1286 17.8054 17.1286 17.7182 16.9143 17.1809C16.7857 16.8614 16.6286 16.5854 16.5572 16.5854C16.4857 16.5854 16.4286 16.4838 16.4286 16.3676C16.4286 16.2514 16.3572 16.1498 16.2714 16.1498C16.1857 16.1498 15.9 15.9174 15.6286 15.6415C15.3714 15.3655 15.0572 15.1332 14.9429 15.1332C14.8286 15.1332 14.7143 15.0751 14.6857 14.9879C14.6714 14.9153 14.4429 14.8136 14.2143 14.7556C13.8857 14.6975 13.7143 14.741 13.5286 14.9444Z" fill="#5F6262"/>
<path d="M44.8286 14.7991C44.6857 14.8281 44.5714 14.9298 44.5714 15.0024C44.5714 15.075 44.5 15.1331 44.4286 15.1331C44.3429 15.1331 44.1143 15.2783 43.9286 15.4526C43.7429 15.6414 43.5 15.8593 43.4 15.9609C43.0714 16.2804 42.8571 16.5709 42.8571 16.7306C42.8571 16.8032 42.8 16.8759 42.7428 16.8759C42.6857 16.8759 42.5143 17.0792 42.3857 17.3115C42.1428 17.7037 42.1428 17.7763 42.3428 17.9796C42.4714 18.0958 42.5714 18.2991 42.5714 18.4153C42.5714 18.7057 43.9429 18.7057 44.0571 18.4008C44.1 18.2846 44.2 18.1829 44.2714 18.1829C44.5571 18.1829 45.8714 16.7016 45.9571 16.2804C46 16.048 46.0857 15.8593 46.1571 15.8593C46.2286 15.8593 46.2857 15.6995 46.2857 15.4962C46.2857 15.2929 46.2143 15.1331 46.1286 15.1331C46.0429 15.1331 45.8857 15.0314 45.7714 14.9153C45.5571 14.6974 45.3 14.6684 44.8286 14.7991Z" fill="#5F6262"/>
<path d="M2.54286 19.214C2.4 19.3593 2.28572 19.5916 2.28572 19.7078C2.28572 19.824 2.22857 19.9256 2.14286 19.9256C2.07143 19.9256 2 20.1144 2 20.3468C2 20.5792 1.95714 20.797 1.9 20.8261C1.75714 20.8842 1.28571 22.2784 1.28571 22.5979C1.28571 22.7286 1.22857 22.8302 1.15714 22.8302C1.08571 22.8302 1 23.0771 0.957143 23.3676C0.8 24.5585 0.514286 25.88 0.4 25.88C0.342857 25.88 0.285714 26.3738 0.285714 26.9693C0.285714 27.5938 0.228572 28.0585 0.142857 28.0585C0.0571429 28.0585 0 29.1477 0 31.0357C0 32.9237 0.0571429 34.0129 0.142857 34.0129C0.228572 34.0129 0.285714 34.5212 0.285714 35.2473C0.285714 35.9735 0.342857 36.4818 0.428572 36.4818C0.514286 36.4818 0.571429 36.6706 0.571429 36.8884C0.571429 37.1208 0.671429 37.6291 0.785715 38.0212C0.9 38.4133 1 38.9071 1 39.1249C1 39.3573 1.07143 39.5316 1.14286 39.5316C1.22857 39.5316 1.28571 39.6333 1.28571 39.764C1.28571 40.0835 1.75714 41.4777 1.9 41.5358C1.95714 41.5648 2 41.681 2 41.7972C2 41.9569 2.22857 42.0005 3 42.0005C3.97143 42.0005 4 41.986 4 41.6374C4 41.4341 3.94286 41.2743 3.85714 41.2743C3.78572 41.2743 3.71429 41.071 3.71429 40.8241C3.71429 40.5772 3.61429 40.2868 3.5 40.1706C3.38572 40.0399 3.28572 39.793 3.28572 39.6042C3.28572 39.4154 3.22857 39.2121 3.14286 39.1685C3.07143 39.1249 3 38.849 3 38.5731C3 38.2971 2.95714 38.0793 2.88572 38.0793C2.74286 38.0793 2.4 36.0897 2.32857 34.6955C2.28572 34.0855 2.2 33.5772 2.12857 33.5772C2.05714 33.5772 2 32.7203 2 31.6892C2 30.5274 2.05714 29.8012 2.14286 29.8012C2.22857 29.8012 2.28572 29.322 2.28572 28.6684C2.28572 28.0294 2.38572 27.2016 2.5 26.8095C2.61429 26.4174 2.71429 25.88 2.71429 25.6186C2.71429 25.3717 2.78572 25.1539 2.85714 25.1539C2.94286 25.1539 3 24.9651 3 24.7327C3 24.4858 3.05714 24.268 3.12857 24.2244C3.2 24.1809 3.3 23.8468 3.34286 23.4838C3.4 23.1207 3.5 22.8302 3.58572 22.8302C3.65714 22.8302 3.71429 22.6705 3.71429 22.4672C3.71429 22.2638 3.78572 22.1041 3.85714 22.1041C3.94286 22.1041 4 21.8862 4 21.6248C4 21.3634 4.1 21.0149 4.21429 20.8551C4.45715 20.5356 4.5 19.3447 4.27143 19.3447C4.18572 19.3447 4.02857 19.2431 3.91429 19.1269C3.61429 18.8219 2.84286 18.88 2.54286 19.214Z" fill="#5F6262"/>
<path d="M6.75716 31.21C6.50001 31.7619 6.52859 31.9942 6.9143 32.4444C7.24287 32.8511 7.25716 32.8511 9.05716 32.8511C10.7857 32.8511 10.8857 32.8366 11.2143 32.488C11.6429 32.0668 11.6714 31.5004 11.2857 31.1083C11.0286 30.8469 10.8143 30.8179 8.97144 30.8179H6.92859L6.75716 31.21Z" fill="#5F6262"/>
<path d="M48.0001 31.6892C48.0001 32.3718 48.0429 32.5606 48.2143 32.5606C48.3286 32.5606 48.4286 32.6187 48.4286 32.7058C48.4286 32.793 49.1429 32.8511 50.2858 32.8511C51.4286 32.8511 52.1429 32.793 52.1429 32.7058C52.1429 32.6187 52.2715 32.5606 52.4286 32.5606C52.6715 32.5606 52.7143 32.459 52.7143 31.8926C52.7143 30.8614 52.6286 30.8179 50.1572 30.8179H48.0001V31.6892Z" fill="#5F6262"/>
</svg>
