<svg width="77" height="39" viewBox="0 0 77 39" fill="none" xmlns="http://www.w3.org/2000/svg">
<path d="M26.9415 0.961707C26.4863 1.05151 25.4091 2.09922 25.4091 2.45844C25.4091 2.62308 25.3332 2.81766 25.2422 2.90746C24.9994 3.14694 25.3029 5.19746 25.576 5.19746C25.6518 5.19746 25.7125 5.2723 25.7125 5.3621C25.7125 5.57164 26.0918 5.94583 26.3042 5.94583C26.3953 5.94583 26.4711 6.0057 26.4711 6.06557C26.4711 6.42478 28.7621 6.7391 28.9745 6.39485C29.02 6.30504 29.2021 6.24517 29.369 6.24517C29.5207 6.24517 29.6572 6.17034 29.6572 6.0955C29.6572 6.0057 29.7331 5.94583 29.8241 5.94583C30.0669 5.94583 30.3096 5.63151 30.6282 4.94302C30.9469 4.23955 30.9165 2.48837 30.5979 2.3836C30.4917 2.35367 30.4158 2.23393 30.4158 2.11419C30.4158 1.84478 29.9455 1.38079 29.369 1.09641C28.9442 0.871903 27.7759 0.812033 26.9415 0.961707Z" fill="#5F6262"/>
<path d="M63.4908 2.12922C63.4908 2.24896 63.415 2.35373 63.324 2.35373C63.1115 2.35373 62.7323 2.72791 62.7323 2.93745C62.7323 3.02726 62.6716 3.1021 62.5805 3.1021C62.5047 3.1021 62.4288 3.20687 62.4288 3.32661C62.4288 3.46131 62.3226 3.59602 62.2012 3.64092C62.0799 3.70079 61.9737 3.82053 61.9737 3.94027C61.9737 4.06001 61.913 4.14981 61.8219 4.14981C61.7461 4.14981 61.6702 4.22465 61.6702 4.29948C61.6702 4.44915 61.5488 4.62877 61.1088 5.12269C61.0026 5.22746 60.9116 5.36216 60.9116 5.42203C60.9116 5.46693 60.7447 5.67648 60.5323 5.88602C60.3199 6.09556 60.153 6.33504 60.153 6.42484C60.153 6.51465 60.0316 6.69426 59.8647 6.82896C59.713 6.96367 59.5461 7.21811 59.4854 7.39772C59.4248 7.59229 59.3034 7.74197 59.2275 7.74197C59.1517 7.74197 59.091 7.8168 59.091 7.89164C59.091 8.04132 58.9696 8.22092 58.5296 8.71485C58.4234 8.81962 58.3324 8.98426 58.3324 9.07406C58.3324 9.16386 58.2869 9.2387 58.211 9.2387C58.1503 9.2387 57.9682 9.47818 57.8165 9.76256C57.6496 10.0469 57.4676 10.2864 57.3917 10.2864C57.331 10.2864 57.2703 10.4211 57.2703 10.5858C57.2703 10.7504 57.2096 10.8851 57.1186 10.8851C57.0428 10.8851 56.9669 10.9899 56.9669 11.1096C56.9669 11.2294 56.9062 11.3341 56.8152 11.3341C56.7393 11.3341 56.6331 11.4988 56.5724 11.7083C56.5269 11.9179 56.4207 12.0825 56.3448 12.0825C56.269 12.0825 56.2083 12.1873 56.2083 12.307C56.2083 12.4267 56.1476 12.5315 56.0566 12.5315C55.9807 12.5315 55.9049 12.6662 55.9049 12.8309C55.9049 12.9955 55.7987 13.1302 55.6773 13.1302C55.5407 13.1302 55.4497 13.2649 55.4497 13.5044C55.4497 13.7139 55.389 13.8786 55.298 13.8786C55.2221 13.8786 55.1463 14.0133 55.1463 14.1779C55.1463 14.3426 55.0856 14.4773 55.0097 14.4773C54.9339 14.4773 54.8276 14.6419 54.7821 14.8514C54.7214 15.061 54.6152 15.2256 54.5394 15.2256C54.4483 15.2256 54.3877 15.3903 54.3877 15.5998C54.3877 15.8094 54.327 15.974 54.2359 15.974C54.1601 15.974 54.0842 16.1386 54.0842 16.3482C54.0842 16.5577 54.0235 16.7224 53.9325 16.7224C53.8566 16.7224 53.7504 16.887 53.6897 17.0965C53.6442 17.3061 53.538 17.4707 53.4622 17.4707C53.3863 17.4707 53.3256 17.7102 53.3256 17.9946C53.3256 18.279 53.2649 18.5184 53.1891 18.5184C53.1132 18.5184 53.007 18.6831 52.9615 18.8926C52.9008 19.1022 52.7946 19.2668 52.7187 19.2668C52.6277 19.2668 52.567 19.5662 52.567 19.9403C52.567 20.3145 52.5063 20.6139 52.4305 20.6139C52.2332 20.6139 52.0512 22.1705 52.0663 23.8318C52.0663 25.5232 52.2332 26.9001 52.4305 26.9001C52.5063 26.9001 52.567 27.1396 52.567 27.424C52.567 27.7084 52.6429 27.9479 52.7187 27.9479C52.8098 27.9479 52.8705 28.0676 52.8705 28.2173C52.8705 28.3669 52.9767 28.6214 53.098 28.786C53.2194 28.9357 53.3256 29.1901 53.3256 29.3249C53.3256 29.4745 53.4015 29.5943 53.4773 29.5943C53.5684 29.5943 53.6291 29.699 53.6291 29.8188C53.6291 29.9385 53.796 30.193 54.0084 30.4025C54.2208 30.612 54.3877 30.8216 54.3877 30.8665C54.3877 30.9862 56.3145 32.8871 56.4359 32.8871C56.4966 32.8871 56.6331 32.9769 56.7393 33.0667C57.24 33.5157 57.4221 33.6354 57.5738 33.6354C57.6496 33.6354 57.7255 33.6953 57.7255 33.7851C57.7255 33.86 57.862 33.9348 58.0289 33.9348C58.1958 33.9348 58.3324 33.9947 58.3324 34.0845C58.3324 34.1593 58.4234 34.2341 58.5448 34.2341C58.6662 34.2341 58.8634 34.3239 58.9696 34.4287C59.0758 34.5485 59.3489 34.6682 59.5461 34.7131C59.7585 34.758 60.4413 34.9376 61.0633 35.1172C62.4895 35.5064 65.1749 35.5513 66.0246 35.207C66.3128 35.0873 66.7528 34.9825 66.9956 34.9825C67.2383 34.9825 67.4356 34.9077 67.4356 34.8328C67.4356 34.743 67.6025 34.6832 67.8149 34.6832C68.0273 34.6832 68.1942 34.6233 68.1942 34.5485C68.1942 34.4886 68.4976 34.309 68.8769 34.1743C69.2562 34.0246 69.5596 33.86 69.5596 33.7851C69.5596 33.7252 69.7265 33.6205 69.9389 33.5756C70.1513 33.5157 70.3182 33.4109 70.3182 33.3361C70.3182 33.2463 70.3789 33.1864 70.47 33.1864C70.5458 33.1864 70.8796 32.9469 71.183 32.6626C71.4865 32.3782 71.8354 32.1387 71.9416 32.1387C72.0478 32.1387 72.1389 32.0788 72.1389 31.989C72.1389 31.8543 72.5182 31.3604 73.0189 30.8515C73.1099 30.7468 73.2009 30.627 73.2009 30.5671C73.2009 30.5073 73.2919 30.3726 73.3982 30.2678C73.8685 29.729 73.9595 29.5793 73.9595 29.2949C73.9595 29.1303 74.0202 28.9956 74.0961 28.9956C74.1719 28.9956 74.2781 28.8309 74.3236 28.6214C74.3843 28.4118 74.4905 28.2472 74.5664 28.2472C74.6574 28.2472 74.7181 28.0826 74.7181 27.873C74.7181 27.6635 74.794 27.4988 74.8698 27.4988C74.9609 27.4988 75.0216 27.2743 75.0216 27.0049C75.0216 26.7355 75.0822 26.4511 75.1733 26.3613C75.416 26.1218 75.5071 23.6373 75.325 22.3351C75.0216 20.1798 74.9912 20.0152 74.8547 20.0152C74.7788 20.0152 74.7181 19.8655 74.7181 19.6709C74.7181 19.4764 74.6119 19.192 74.4905 19.0273C74.3692 18.8777 74.263 18.6232 74.263 18.4735C74.263 18.3388 74.2023 18.2191 74.1112 18.2191C74.0354 18.2191 73.9595 18.0545 73.9595 17.8449C73.9595 17.6354 73.8988 17.4707 73.8078 17.4707C73.7319 17.4707 73.6561 17.336 73.6561 17.1564C73.6561 16.9918 73.5499 16.7523 73.4285 16.6326C73.3071 16.4979 73.2009 16.2434 73.2009 16.0488C73.2009 15.8543 73.1554 15.6747 73.0947 15.6447C73.0189 15.6148 72.8368 15.3304 72.6699 15.0161C72.1389 13.9983 72.063 13.8786 71.9568 13.8786C71.881 13.8786 71.8354 13.7139 71.8354 13.5044C71.8354 13.2948 71.7747 13.1302 71.6837 13.1302C71.6079 13.1302 71.5017 12.9656 71.441 12.756C71.3955 12.5465 71.3044 12.3818 71.2437 12.3818C71.1982 12.3818 71.0162 12.1424 70.8644 11.858C70.6975 11.5736 70.5155 11.3341 70.4396 11.3341C70.3789 11.3341 70.3182 11.1994 70.3182 11.0198C70.3182 10.8552 70.2272 10.6157 70.1362 10.5109C69.681 10.017 69.5596 9.83739 69.5596 9.68772C69.5596 9.61288 69.499 9.53805 69.4079 9.53805C69.3321 9.53805 69.2562 9.43328 69.2562 9.32851C69.2562 9.20877 69.0893 8.92439 68.8769 8.69988C68.6645 8.47537 68.4976 8.17602 68.4976 8.02635C68.4976 7.86171 68.4066 7.74197 68.3004 7.74197C68.179 7.74197 67.9969 7.57733 67.8907 7.36779C67.7845 7.15824 67.6328 6.9936 67.5569 6.9936C67.4963 6.9936 67.4356 6.88883 67.4356 6.76909C67.4356 6.63439 67.2687 6.37994 67.0563 6.18537C66.8439 5.99079 66.677 5.79622 66.677 5.73635C66.677 5.67648 66.5859 5.54177 66.4949 5.42203C66.3887 5.31726 66.1611 5.04785 65.9942 4.80837C65.8273 4.58386 65.5998 4.31445 65.5087 4.20968C65.4025 4.10491 65.3115 3.9702 65.3115 3.89536C65.3115 3.83549 65.1446 3.59602 64.9322 3.37151C64.7198 3.147 64.5529 2.92249 64.5529 2.87759C64.5529 2.78778 64.386 2.57824 63.9764 2.12922C63.7184 1.84484 63.4908 1.84484 63.4908 2.12922ZM61.2151 11.7083C61.2151 11.9179 61.1544 12.0825 61.0633 12.0825C60.9875 12.0825 60.9116 12.3818 60.9116 12.756C60.9116 13.1302 60.8509 13.4296 60.7751 13.4296C60.7144 13.4296 60.6082 13.7439 60.5627 14.133C60.5171 14.5222 60.4109 14.8664 60.3199 14.8964C60.2289 14.9263 60.153 15.1807 60.153 15.4651C60.153 15.7495 60.0923 15.974 60.0013 15.974C59.9254 15.974 59.8496 16.1985 59.8496 16.4679C59.8496 16.7523 59.8041 17.0217 59.7434 17.0816C59.5613 17.2612 59.2123 18.6532 59.1365 19.5213C59.091 19.9553 58.9999 20.3145 58.9393 20.3145C58.8786 20.3145 58.7724 20.6737 58.7268 21.0928C58.6965 21.5269 58.6206 22.0807 58.5751 22.3351C58.3172 23.9815 58.3172 24.8047 58.5448 25.9123C58.6813 26.5559 58.7875 27.2743 58.7875 27.5138C58.7875 27.7533 58.8634 27.9479 58.9393 27.9479C59.0303 27.9479 59.091 28.2472 59.091 28.6214C59.091 28.9956 59.1668 29.2949 59.2427 29.2949C59.3337 29.2949 59.3944 29.5344 59.3944 29.8188C59.3944 30.2379 59.3337 30.3426 59.091 30.3426C58.9241 30.3426 58.7875 30.2678 58.7875 30.193C58.7875 30.1032 58.7117 30.0433 58.6206 30.0433C58.4082 30.0433 58.0289 29.6691 58.0289 29.4596C58.0289 29.3698 57.9531 29.2949 57.862 29.2949C57.6496 29.2949 57.2703 28.9207 57.2703 28.7112C57.2703 28.6214 57.2096 28.5466 57.1186 28.5466C57.0428 28.5466 56.9669 28.4118 56.9669 28.2622C56.9669 28.1125 56.8607 27.9479 56.7393 27.888C56.6179 27.8431 56.5117 27.6635 56.5117 27.4988C56.5117 27.3342 56.451 27.1995 56.36 27.1995C56.2842 27.1995 56.2083 26.975 56.2083 26.6906C56.2083 26.4062 56.1324 26.1518 56.0414 26.1218C55.9504 26.0919 55.8442 25.7477 55.7987 25.3585C55.7531 24.9694 55.6469 24.655 55.5711 24.655C55.2373 24.655 55.7076 20.4492 56.0566 20.3445C56.1324 20.3145 56.2083 20.1199 56.2083 19.9254C56.2083 19.7308 56.2842 19.5662 56.36 19.5662C56.451 19.5662 56.5117 19.4764 56.5117 19.3566C56.5117 19.1022 56.9972 18.1592 57.1641 18.0994C57.2248 18.0694 57.2703 17.9198 57.2703 17.7551C57.2703 17.6054 57.331 17.4707 57.4069 17.4707C57.4827 17.4707 57.5889 17.3061 57.6345 17.0965C57.6952 16.887 57.8014 16.7224 57.8772 16.7224C57.9682 16.7224 58.0289 16.5577 58.0289 16.3482C58.0289 16.1386 58.0896 15.974 58.1503 15.974C58.2262 15.974 58.4082 15.7345 58.5751 15.4501C58.7268 15.1658 58.9089 14.9263 58.9696 14.9263C59.0455 14.9263 59.091 14.7616 59.091 14.5521C59.091 14.3426 59.1365 14.1779 59.2123 14.1779C59.3641 14.1779 59.8496 13.3098 59.8496 13.0404C59.8496 12.9207 59.9254 12.8309 60.0013 12.8309C60.0923 12.8309 60.153 12.756 60.153 12.6662C60.153 12.5764 60.244 12.4118 60.3502 12.307C60.7902 11.8131 60.9116 11.6335 60.9116 11.4838C60.9116 11.409 60.9875 11.3341 61.0633 11.3341C61.1544 11.3341 61.2151 11.4988 61.2151 11.7083Z" fill="#5F6262"/>
<path d="M38.9729 3.62565C38.8212 3.74539 38.5633 3.85016 38.4116 3.85016C38.1081 3.85016 37.6985 4.17944 37.6985 4.41892C37.6985 4.50872 37.6074 4.61349 37.5164 4.6584C37.3647 4.73323 37.3647 4.76317 37.5164 4.83801C37.6074 4.88291 37.6985 5.04755 37.6985 5.21219C37.6985 5.60134 38.366 5.73604 39.1246 5.49657C39.8984 5.25709 42.4018 5.12238 42.4018 5.31696C42.4018 5.40676 42.5687 5.51153 42.7811 5.55644C42.9935 5.61631 43.1604 5.72108 43.1604 5.79591C43.1604 5.88572 43.2969 5.94559 43.479 5.94559C43.8128 5.94559 44.2224 6.27487 44.2224 6.52931C44.2224 6.61912 44.2983 6.69395 44.3893 6.69395C44.6017 6.69395 44.981 7.06814 44.981 7.27768C44.981 7.36748 45.0569 7.44232 45.1328 7.44232C45.2238 7.44232 45.2845 7.56206 45.2845 7.71173C45.2845 7.8614 45.3907 8.11585 45.5121 8.28049C45.6334 8.43016 45.7396 8.71454 45.7396 8.89415C45.7396 9.08873 45.8155 9.2384 45.8913 9.2384C45.9824 9.2384 46.0431 9.76225 46.0431 10.5106C46.0431 11.2141 45.9824 11.7828 45.9065 11.7828C45.8307 11.7828 45.7396 11.9625 45.6941 12.187C45.6486 12.4264 45.4665 12.7557 45.2996 12.9353C45.1176 13.1149 44.981 13.3095 44.981 13.3544C44.981 13.4891 44.5714 13.8783 44.4197 13.8783C44.359 13.8783 44.1617 14.0429 44.01 14.2525C43.8583 14.462 43.6004 14.6266 43.4487 14.6266C43.2818 14.6266 43.1604 14.6865 43.1604 14.7763C43.1604 14.8511 43.0845 14.926 42.9935 14.926C42.9025 14.926 42.7356 15.0308 42.6142 15.1505C42.4777 15.2702 42.2501 15.375 42.0832 15.375C41.9315 15.375 41.7949 15.4349 41.7949 15.5247C41.7949 15.5995 41.5218 15.6743 41.2032 15.6743C40.8694 15.6743 40.5812 15.7342 40.5508 15.8091C40.4901 15.9737 37.0764 16.3329 35.9537 16.303C34.3 16.2431 31.1745 15.9288 31.1745 15.7941C31.1745 15.7342 30.6738 15.6743 30.0518 15.6743C29.4297 15.6743 28.8836 15.6145 28.838 15.5396C28.7925 15.4798 28.2615 15.375 27.6546 15.3301C27.0477 15.2852 26.5319 15.1655 26.5016 15.0757C26.4712 14.9859 25.8643 14.926 25.0147 14.926C24.1651 14.926 23.5885 14.8661 23.5885 14.7763C23.5885 14.6865 22.5265 14.6266 20.7059 14.6266C18.8852 14.6266 17.8232 14.6865 17.8232 14.7763C17.8232 14.8661 17.2466 14.926 16.397 14.926C15.4867 14.926 14.9405 14.9859 14.9102 15.0906C14.8798 15.1804 14.5309 15.2852 14.1364 15.3301C13.7419 15.375 13.4233 15.4798 13.4233 15.5396C13.4233 15.6145 13.1805 15.6743 12.8923 15.6743C12.604 15.6743 12.3613 15.7342 12.3613 15.824C12.3613 15.8989 12.1185 16.0036 11.8302 16.0635C11.542 16.1084 11.2537 16.2132 11.2082 16.288C11.1627 16.3628 10.9958 16.4227 10.8289 16.4227C10.6772 16.4227 10.5406 16.4826 10.5406 16.5724C10.5406 16.6472 10.3737 16.7221 10.1613 16.7221C9.94891 16.7221 9.78202 16.767 9.78202 16.8418C9.78202 16.9017 9.5241 17.0813 9.22066 17.2459C8.90205 17.4106 8.61378 17.5752 8.56826 17.6201C8.52275 17.665 8.23448 17.8296 7.93104 17.9943C7.61243 18.1589 7.3545 18.3385 7.3545 18.3984C7.3545 18.4732 7.27864 18.5181 7.18761 18.5181C7.08141 18.5181 6.85383 18.6828 6.65659 18.8923C6.45936 19.1019 6.24695 19.2665 6.17109 19.2665C5.97385 19.2665 2.95463 22.2151 2.95463 22.3947C2.95463 22.4845 2.78774 22.709 2.57533 22.9185C2.36292 23.1281 2.19603 23.4125 2.19603 23.5472C2.19603 23.6819 2.02914 23.9513 1.81673 24.1459C1.60432 24.3404 1.43743 24.5949 1.43743 24.7296C1.43743 24.8493 1.37674 24.9541 1.30088 24.9541C1.22502 24.9541 1.11882 25.1187 1.0733 25.3283C1.01261 25.5378 0.90641 25.7025 0.83055 25.7025C0.739518 25.7025 0.67883 25.8072 0.67883 25.927C0.67883 26.0467 0.618142 26.1515 0.52711 26.1515C0.45125 26.1515 0.37539 26.2862 0.37539 26.4359C0.37539 26.6005 0.284359 26.7502 0.193327 26.7801C-0.0949411 26.8849 -0.0494252 28.0074 0.254015 28.2918C0.75469 28.8007 1.57398 28.5463 1.80156 27.8278C1.86225 27.6482 1.98362 27.4985 2.05948 27.4985C2.13534 27.4985 2.19603 27.3938 2.19603 27.274C2.19603 27.1543 2.27189 27.0495 2.34775 27.0495C2.43878 27.0495 2.49947 26.9148 2.49947 26.7502C2.49947 26.5855 2.56016 26.4508 2.63602 26.4508C2.71188 26.4508 2.81808 26.2862 2.8636 26.0766C2.92428 25.8671 3.03049 25.7025 3.10635 25.7025C3.19738 25.7025 3.25807 25.5678 3.25807 25.4031C3.25807 25.2385 3.33393 25.1038 3.40979 25.1038C3.50082 25.1038 3.56151 25.0289 3.56151 24.9391C3.56151 24.8344 3.7284 24.6098 3.94081 24.4153C4.15321 24.2207 4.32011 23.9962 4.32011 23.9064C4.32011 23.8166 4.56286 23.5172 4.85113 23.2478C5.13939 22.9634 5.38215 22.694 5.38215 22.6342C5.38215 22.4845 5.80696 22.1103 5.97385 22.1103C6.06489 22.1103 6.14075 22.0355 6.14075 21.9457C6.14075 21.781 6.50487 21.3619 6.65659 21.3619C6.70211 21.3619 7.08141 21.0177 7.50622 20.6136C7.93104 20.1945 8.37103 19.8652 8.4924 19.8652C8.61378 19.8652 8.71998 19.7904 8.71998 19.7155C8.71998 19.6257 8.82619 19.5659 8.94756 19.5659C9.06894 19.5659 9.17514 19.491 9.17514 19.4162C9.17514 19.3264 9.31169 19.2665 9.47858 19.2665C9.64547 19.2665 9.78202 19.2066 9.78202 19.1168C9.78202 19.042 9.94891 18.9372 10.1613 18.8774C10.3737 18.8325 10.5406 18.7277 10.5406 18.6528C10.5406 18.578 10.6772 18.5181 10.8289 18.5181C10.9958 18.5181 11.1475 18.4732 11.1778 18.3984C11.2689 18.2038 12.2247 17.7698 12.604 17.7698C12.8012 17.7698 12.9681 17.6949 12.9681 17.6201C12.9681 17.5303 13.2109 17.4704 13.5143 17.4704C13.8026 17.4704 14.1516 17.3657 14.2729 17.2459C14.4247 17.1112 14.7888 17.0214 15.2591 17.0214C15.6688 17.0214 16.0025 16.9466 16.0025 16.8717C16.0025 16.7819 17.5501 16.7221 20.3266 16.7221C23.103 16.7221 24.6506 16.7819 24.6506 16.8717C24.6506 16.9615 25.0754 17.0214 25.6367 17.0214C26.1829 17.0214 26.8808 17.1262 27.1843 17.2459C27.4726 17.3657 28.1553 17.4704 28.6863 17.4704C29.2173 17.4704 29.6573 17.5303 29.6573 17.6051C29.6573 17.68 30.249 17.7847 30.9925 17.8296C31.7207 17.8745 33.4352 17.9793 34.8006 18.0841C37.2433 18.2487 37.5316 18.2487 40.7025 17.8296C41.0515 17.7847 41.3398 17.68 41.3398 17.6051C41.3398 17.5303 41.5673 17.4704 41.8556 17.4704C42.1439 17.4704 42.4777 17.3657 42.6142 17.2459C42.7356 17.1262 42.9783 17.0214 43.1452 17.0214C43.3273 17.0214 43.4638 16.9466 43.4638 16.8717C43.4638 16.7819 43.6307 16.7221 43.8431 16.7221C44.0555 16.7221 44.2224 16.6772 44.2224 16.6023C44.2224 16.5425 44.4652 16.3628 44.7535 16.2132C45.0417 16.0485 45.2845 15.8689 45.2845 15.7941C45.2845 15.7342 45.3603 15.6743 45.4514 15.6743C45.6334 15.6743 46.0431 15.3002 46.0431 15.1206C46.0431 15.0607 46.21 14.8661 46.4224 14.7164C46.6348 14.5668 46.8017 14.3123 46.8017 14.1627C46.8017 13.998 46.8775 13.8783 46.9534 13.8783C47.0444 13.8783 47.1051 13.7735 47.1051 13.6538C47.1051 13.534 47.1658 13.4293 47.2417 13.4293C47.3175 13.4293 47.4237 13.1898 47.4692 12.9054C47.5299 12.621 47.6361 12.3815 47.712 12.3815C47.803 12.3815 47.8637 11.5733 47.8637 10.4358C47.8637 9.29827 47.803 8.49003 47.712 8.49003C47.6361 8.49003 47.5299 8.25056 47.4692 7.96618C47.4237 7.6818 47.3175 7.39742 47.2417 7.35252C47.1658 7.30761 47.1051 7.14297 47.1051 6.97833C47.1051 6.82866 47.0444 6.69395 46.9837 6.69395C46.923 6.69395 46.741 6.48441 46.5741 6.215C46.2403 5.63127 45.4969 4.89787 45.2541 4.89787C45.1631 4.89787 44.9355 4.73323 44.7383 4.52369C44.541 4.31415 44.2831 4.14951 44.1466 4.14951C44.0252 4.14951 43.919 4.07467 43.919 3.99983C43.919 3.91003 43.7976 3.85016 43.6307 3.85016C43.479 3.85016 43.0997 3.74539 42.8114 3.62565C42.0528 3.31134 39.3977 3.31134 38.9729 3.62565Z" fill="#5F6262"/>
<path d="M15.0922 7.59205C15.0922 7.68186 14.637 7.74173 14.0453 7.74173C13.4688 7.74173 12.9681 7.81656 12.9377 7.8914C12.9074 7.9812 12.5281 8.08597 12.0881 8.14584C11.6633 8.19075 11.2992 8.29552 11.2992 8.35539C11.2992 8.43022 11.1323 8.49009 10.9199 8.49009C10.7075 8.49009 10.5406 8.54996 10.5406 8.63977C10.5406 8.7146 10.3888 8.78944 10.1916 8.78944C9.99437 8.78944 9.7061 8.89421 9.53921 9.01395C9.38749 9.13369 9.12957 9.23846 8.99302 9.23846C8.8413 9.23846 8.71992 9.29833 8.71992 9.38813C8.71992 9.46297 8.55303 9.53781 8.34062 9.53781C8.12822 9.53781 7.96132 9.58271 7.96132 9.64258C7.96132 9.80722 7.08135 10.2862 6.80825 10.2862C6.68688 10.2862 6.59585 10.346 6.59585 10.4209C6.59585 10.4957 6.42895 10.6005 6.21655 10.6454C6.00414 10.7053 5.83725 10.81 5.83725 10.8849C5.83725 10.9747 5.73104 11.0345 5.60967 11.0345C5.48829 11.0345 5.38209 11.0944 5.38209 11.1842C5.38209 11.259 5.27588 11.3339 5.15451 11.3339C5.01796 11.3339 4.68418 11.5734 4.41108 11.8577C4.12281 12.1421 3.84972 12.3816 3.78903 12.3816C3.74351 12.3816 3.59179 12.4714 3.48559 12.5612C2.98492 13.0102 2.80285 13.13 2.65113 13.13C2.57527 13.13 2.49941 13.2048 2.49941 13.2946C2.49941 13.3844 2.21114 13.7436 1.84702 14.1028C1.48289 14.4471 1.07325 14.9111 0.936698 15.1356C0.618086 15.5996 0.602914 16.5126 0.891182 16.8119C1.14911 17.0514 1.74081 17.0963 1.74081 16.8718C1.74081 16.782 1.81667 16.7221 1.9077 16.7221C2.08977 16.7221 3.25801 15.6295 3.25801 15.4499C3.25801 15.3152 3.66765 14.926 3.81937 14.926C3.88006 14.926 4.0773 14.7614 4.22902 14.5519C4.38074 14.3423 4.63866 14.1777 4.79038 14.1777C4.95727 14.1777 5.07865 14.1028 5.07865 14.028C5.07865 13.9382 5.24554 13.6987 5.45795 13.5042C5.65518 13.2946 5.89793 13.13 5.98897 13.13C6.06483 13.13 6.14069 13.0701 6.14069 13.0102C6.14069 12.9354 6.38344 12.7558 6.67171 12.5911C6.95997 12.4415 7.20273 12.2619 7.20273 12.217C7.20273 12.1571 7.36962 12.0673 7.58202 12.0224C7.79443 11.9625 7.96132 11.8577 7.96132 11.7829C7.96132 11.6931 8.09787 11.6332 8.26476 11.6332C8.43166 11.6332 8.5682 11.5584 8.5682 11.4836C8.5682 11.3938 8.70475 11.3339 8.87164 11.3339C9.03853 11.3339 9.17508 11.259 9.17508 11.1842C9.17508 11.0944 9.31163 11.0345 9.46335 11.0345C9.63024 11.0345 9.85782 10.9298 9.99437 10.81C10.1157 10.6903 10.4192 10.5855 10.6771 10.5855C10.935 10.5855 11.1474 10.5107 11.1474 10.4358C11.1474 10.346 11.3902 10.2862 11.6785 10.2862C12.0122 10.2862 12.255 10.1964 12.3005 10.0617C12.3612 9.89702 12.6191 9.83715 13.135 9.83715C13.5446 9.83715 13.8784 9.76232 13.8784 9.68748C13.8784 9.59767 14.637 9.53781 15.8508 9.53781C17.0645 9.53781 17.8231 9.47794 17.8231 9.38813C17.8231 9.29833 18.0659 9.23846 18.3541 9.23846C18.6424 9.23846 18.8851 9.29833 18.8851 9.38813C18.8851 9.47794 19.75 9.53781 21.1761 9.53781C22.9512 9.53781 23.5126 9.4929 23.6795 9.32826C23.9222 9.08879 23.9678 8.19075 23.7402 8.19075C23.6643 8.19075 23.5885 8.08597 23.5885 7.96624C23.5885 7.80159 23.4064 7.74173 22.9057 7.74173C22.5264 7.74173 22.223 7.66689 22.223 7.59205C22.223 7.50225 20.9334 7.44238 18.6576 7.44238C16.3818 7.44238 15.0922 7.50225 15.0922 7.59205Z" fill="#5F6262"/>
<path d="M34.0268 9.0444C33.7082 9.16414 33.4503 9.32878 33.4503 9.40362C33.4503 9.47846 33.3441 9.53832 33.2227 9.53832C33.0862 9.53832 32.9951 9.67303 32.9951 9.91251C32.9951 10.122 32.9344 10.2867 32.8434 10.2867C32.7676 10.2867 32.6917 10.4214 32.6917 10.601C32.6917 10.7656 32.631 11.0201 32.54 11.1698C32.3883 11.4691 32.6613 13.1305 32.8738 13.1305C32.9344 13.1305 32.9951 13.2053 32.9951 13.2951C32.9951 13.5047 33.3744 13.8788 33.5868 13.8788C33.6779 13.8788 33.7537 13.9237 33.7537 13.9836C33.7537 14.2381 34.6185 14.4775 35.4985 14.4775C36.2116 14.4775 36.4999 14.4027 36.7578 14.1782C36.9398 14.0136 37.1219 13.8788 37.1674 13.8788C37.3191 13.8788 37.6984 13.4598 37.6984 13.2951C37.6984 13.2053 37.7591 13.1305 37.8198 13.1305C37.8957 13.1305 38.0626 12.7563 38.1839 12.2923C38.3964 11.5439 38.3964 11.4092 38.1839 10.8704C38.0626 10.5561 37.8957 10.2867 37.8198 10.2867C37.7591 10.2867 37.6984 10.122 37.6984 9.91251C37.6984 9.67303 37.6074 9.53832 37.4709 9.53832C37.3495 9.53832 37.2433 9.47846 37.2433 9.41859C37.2433 9.34375 37.0005 9.17911 36.7123 9.0444C36.0447 8.73009 34.7854 8.73009 34.0268 9.0444Z" fill="#5F6262"/>
<path d="M38.3964 20.5387C38.3508 20.6584 38.1991 20.7632 38.0626 20.7632C37.7895 20.7632 36.9399 21.6313 36.9399 21.9157C36.9399 22.0205 36.8792 22.1103 36.7881 22.1103C36.6971 22.1103 36.6364 22.5892 36.6364 23.2328C36.6364 23.8764 36.6971 24.3554 36.7881 24.3554C36.8792 24.3554 36.9399 24.4601 36.9399 24.5799C36.9399 24.8792 37.7743 25.7024 38.0777 25.7024C38.2143 25.7024 38.4419 25.8072 38.5784 25.9419C38.7605 26.1215 39.0184 26.1664 39.6556 26.1215C40.1108 26.0766 40.5204 25.9718 40.5508 25.882C40.5811 25.7773 40.748 25.7024 40.9149 25.7024C41.2335 25.7024 41.6432 25.3731 41.6432 25.1187C41.6432 25.0289 41.7038 24.954 41.7949 24.954C41.8707 24.954 41.9769 24.7894 42.0376 24.5799C42.0831 24.3703 42.1894 24.2057 42.2652 24.2057C42.3411 24.2057 42.4018 23.8016 42.4018 23.3076C42.4018 22.8137 42.3411 22.4096 42.25 22.4096C42.1742 22.4096 42.0983 22.2749 42.0983 22.1252C42.0983 21.9606 41.9921 21.7361 41.8707 21.6014C41.7494 21.4816 41.6432 21.3469 41.6432 21.2871C41.6432 21.0775 41.188 20.7632 40.8997 20.7632C40.7328 20.7632 40.5053 20.6584 40.3687 20.5387C40.2322 20.389 39.8529 20.3142 39.3219 20.3142C38.715 20.3142 38.4722 20.374 38.3964 20.5387Z" fill="#5F6262"/>
<path d="M17.8991 21.5862C17.4894 21.706 16.8825 21.7958 16.5791 21.8107C16.2605 21.8107 16.0026 21.8706 16.0026 21.9604C16.0026 22.0353 15.7295 22.1101 15.4109 22.1101C15.0771 22.1101 14.7888 22.1849 14.7585 22.2747C14.7129 22.4094 14.0605 22.6339 13.0895 22.8136C12.8468 22.8585 12.6647 22.9483 12.6647 23.0081C12.6647 23.068 12.3613 23.2326 11.982 23.3673C11.6027 23.517 11.2992 23.6966 11.2992 23.7715C11.2992 23.8463 11.1324 23.9062 10.9199 23.9062C10.6772 23.9062 10.5406 23.996 10.5406 24.1307C10.5406 24.2504 10.4344 24.3552 10.3131 24.3552C10.1917 24.3552 10.0855 24.4151 10.0855 24.5049C10.0855 24.5797 9.97928 24.6545 9.84273 24.6545C9.70619 24.6545 9.3724 24.894 9.08413 25.1784C8.81104 25.4628 8.52277 25.7022 8.43174 25.7022C8.18899 25.7022 6.14077 27.7827 6.14077 28.0222C6.14077 28.1419 6.08008 28.2467 5.98905 28.2467C5.7463 28.2467 5.80699 28.8454 6.08008 29.1148C6.35318 29.3842 7.38487 29.4141 7.4759 29.1597C7.50625 29.0699 7.79452 28.7256 8.1283 28.3964C8.44691 28.082 8.72001 27.7378 8.72001 27.648C8.72001 27.5732 8.79587 27.4983 8.87173 27.4983C9.03862 27.4983 9.25103 27.3486 9.85791 26.7799C10.0551 26.6003 10.2675 26.4506 10.3282 26.4506C10.3889 26.4506 10.5862 26.286 10.7834 26.0764C10.9806 25.8669 11.2386 25.7022 11.3751 25.7022C11.4965 25.7022 11.6027 25.6424 11.6027 25.5675C11.6027 25.4927 11.7696 25.3879 11.982 25.343C12.1944 25.2832 12.3613 25.1784 12.3613 25.1036C12.3613 25.0137 12.4978 24.9539 12.6647 24.9539C12.8316 24.9539 12.9682 24.879 12.9682 24.8042C12.9682 24.7144 13.1199 24.6545 13.3171 24.6545C13.4992 24.6545 13.7874 24.5498 13.9392 24.43C14.1061 24.3103 14.3943 24.2055 14.5916 24.2055C14.7888 24.2055 14.9405 24.1307 14.9405 24.0558C14.9405 23.966 15.244 23.9062 15.6233 23.9062C16.0026 23.9062 16.306 23.8463 16.306 23.7715C16.306 23.6966 16.7005 23.547 17.186 23.4422C18.2328 23.2177 24.7568 23.083 25.0147 23.2925C25.1058 23.3673 25.6064 23.4721 26.1374 23.532C26.6533 23.5919 27.0781 23.6966 27.0781 23.7715C27.0781 23.8463 27.3512 23.9062 27.685 23.9062C28.0188 23.9062 28.2919 23.966 28.2919 24.0558C28.2919 24.1307 28.3829 24.2055 28.5043 24.2055C28.7622 24.2055 29.718 24.6845 29.7787 24.8341C29.8091 24.909 29.9304 24.9539 30.0366 24.9539C30.2946 24.9539 31.1745 25.4478 31.1745 25.5825C31.1745 25.6573 31.2504 25.7022 31.3263 25.7022C31.5387 25.7022 32.9952 27.1391 32.9952 27.3486C32.9952 27.4235 33.1014 27.4983 33.2228 27.4983C33.3441 27.4983 33.4503 27.6031 33.4503 27.7228C33.4503 27.8426 33.5262 27.9473 33.6021 27.9473C33.6931 27.9473 33.7538 28.082 33.7538 28.2467C33.7538 28.4113 33.8296 28.546 33.9055 28.546C33.9965 28.546 34.0572 28.8454 34.0572 29.2196C34.0572 29.5937 33.9965 29.8931 33.9055 29.8931C33.8296 29.8931 33.7538 30.0128 33.7538 30.1625C33.7538 30.3122 33.511 30.6864 33.2076 31.0007L32.6614 31.5694L31.4325 31.5096C30.7042 31.4647 30.1732 31.3599 30.1429 31.2701C30.1125 31.1653 29.9153 31.0905 29.718 31.0905C29.5208 31.0905 29.3539 31.0456 29.3539 30.9707C29.3539 30.9109 29.1112 30.7313 28.8229 30.5816C28.5346 30.417 28.2919 30.2373 28.2919 30.1625C28.2919 30.1026 28.1553 30.0428 27.9884 30.0428C27.5788 30.0428 26.9264 30.6265 26.9264 31.0007C26.9264 31.4347 27.5788 32.1382 27.9733 32.1382C28.1401 32.1382 28.2919 32.1981 28.2919 32.2879C28.2919 32.3627 28.4588 32.4675 28.6712 32.5273C28.8836 32.5722 29.0505 32.677 29.0505 32.7519C29.0505 32.8267 29.2174 32.8866 29.4146 32.8866C29.6118 32.8866 29.8091 32.9764 29.8394 33.0662C29.9001 33.2158 30.4159 33.2607 31.7814 33.2607C33.1469 33.2607 33.6628 33.2158 33.7083 33.0662C33.7538 32.9764 33.8752 32.8866 33.9965 32.8866C34.2848 32.8866 34.8158 32.3477 34.8158 32.0634C34.8158 31.9436 34.8765 31.8388 34.9372 31.8388C35.1193 31.8388 35.5744 31.0007 35.5744 30.6564C35.5744 30.4768 35.6503 30.3421 35.7261 30.3421C35.8172 30.3421 35.8779 29.8931 35.8779 29.2944C35.8779 28.7107 35.8172 28.2467 35.7413 28.2467C35.6655 28.2467 35.5592 28.082 35.5137 27.8725C35.453 27.663 35.3468 27.4983 35.271 27.4983C35.18 27.4983 35.1193 27.3636 35.1193 27.199C35.1193 27.0343 35.0586 26.8996 34.9675 26.8996C34.8917 26.8996 34.8158 26.7949 34.8158 26.6751C34.8158 26.5554 34.7096 26.4506 34.5882 26.4506C34.4669 26.4506 34.3607 26.3907 34.3607 26.3159C34.3607 26.1662 32.9193 24.6545 32.7828 24.6545C32.6766 24.6545 32.4793 24.5049 32.009 24.0858C31.9028 23.996 31.7511 23.9062 31.6904 23.9062C31.6449 23.9062 31.478 23.7864 31.3414 23.6218C31.2049 23.4721 30.947 23.3075 30.7649 23.2476C30.5677 23.1877 30.4159 23.068 30.4159 22.9932C30.4159 22.9183 30.2491 22.8585 30.0366 22.8585C29.8242 22.8585 29.6573 22.7836 29.6573 22.7088C29.6573 22.619 29.4905 22.5591 29.2932 22.5591C29.0808 22.5591 28.8229 22.4543 28.6863 22.3346C28.565 22.2149 28.2615 22.1101 28.0036 22.1101C27.7457 22.1101 27.5333 22.0353 27.5333 21.9604C27.5333 21.8706 27.2905 21.8107 27.0023 21.8107C26.7292 21.8107 26.0919 21.706 25.6064 21.5862C24.4382 21.2869 19.0066 21.2869 17.8991 21.5862Z" fill="#5F6262"/>
<path d="M21.4644 25.8522C21.4644 25.9271 21.3582 26.0019 21.2369 26.0019C21.1155 26.0019 20.8576 26.1666 20.6452 26.3761C20.4327 26.5856 20.19 26.7503 20.099 26.7503C20.0231 26.7503 19.9472 26.855 19.9472 26.9748C19.9472 27.0945 19.8866 27.1993 19.7955 27.1993C19.7045 27.1993 19.6438 27.7531 19.6438 28.5464C19.6438 29.3396 19.7045 29.8934 19.7955 29.8934C19.8866 29.8934 19.9472 29.9682 19.9472 30.058C19.9472 30.2975 20.7969 31.0908 21.07 31.0908C21.1913 31.0908 21.3431 31.1507 21.3886 31.2405C21.4341 31.3153 21.9499 31.3901 22.5417 31.3901C23.1334 31.3901 23.5885 31.3303 23.5885 31.2405C23.5885 31.1507 23.6947 31.0908 23.8161 31.0908C24.0892 31.0908 24.954 30.2676 24.954 30.0131C24.954 29.9084 25.0602 29.6839 25.1816 29.5342C25.303 29.3696 25.4092 28.9804 25.4092 28.6661C25.4092 28.0524 24.9995 26.8999 24.7871 26.8999C24.7112 26.8999 24.6506 26.7952 24.6506 26.6754C24.6506 26.5557 24.5444 26.4509 24.423 26.4509C24.3016 26.4509 24.1954 26.3911 24.1954 26.3013C24.1954 26.2264 24.0285 26.1216 23.8161 26.0618C23.6037 26.0169 23.4368 25.9121 23.4368 25.8373C23.4368 25.7624 22.9968 25.7026 22.4506 25.7026C21.8893 25.7026 21.4644 25.7624 21.4644 25.8522Z" fill="#5F6262"/>
<path d="M12.2096 28.0973C12.2096 28.1722 12.1034 28.247 11.982 28.247C11.7544 28.247 11.5117 28.3967 11.102 28.8008C10.6469 29.2498 10.5407 29.4594 10.5407 29.8784C10.5407 30.1179 10.48 30.3724 10.389 30.4173C10.3131 30.4622 10.2372 30.6418 10.2372 30.8064C10.2372 30.9561 10.3131 31.0908 10.389 31.0908C10.48 31.0908 10.5407 31.3303 10.5407 31.6147C10.5407 31.899 10.6014 32.1385 10.6772 32.1385C10.7531 32.1385 10.8593 32.3032 10.9048 32.4977C10.9503 32.7073 11.1324 32.9168 11.2993 32.9617C11.4662 33.0066 11.6027 33.1264 11.6027 33.2012C11.6027 33.276 11.7393 33.3359 11.891 33.3359C12.0579 33.3359 12.2399 33.3958 12.2855 33.4856C12.331 33.5604 12.771 33.6353 13.2413 33.6353C13.924 33.6353 14.2426 33.5454 14.6675 33.2611C14.9709 33.0515 15.3047 32.8869 15.3805 32.8869C15.4716 32.8869 15.5474 32.7821 15.5474 32.6624C15.5474 32.5277 15.6536 32.2583 15.7902 32.0637C16.0936 31.6147 16.0481 29.4294 15.7295 29.3247C15.6233 29.2947 15.5474 29.2049 15.5474 29.1301C15.5474 28.8607 14.804 28.247 14.4854 28.247C14.3185 28.247 14.182 28.1722 14.182 28.0973C14.182 28.0075 13.7571 27.9477 13.1958 27.9477C12.6344 27.9477 12.2096 28.0075 12.2096 28.0973Z" fill="#5F6262"/>
<path d="M2.49951 38.1254V38.7241H39.4433H76.3871V38.1254V37.5267H39.4433H2.49951V38.1254Z" fill="#5F6262"/>
</svg>
