<svg width="51" height="42" viewBox="0 0 51 42" fill="none" xmlns="http://www.w3.org/2000/svg">
<path d="M22.1317 0.228302C22.0235 0.349964 21.9309 0.760574 21.9309 1.14077C21.9309 1.52096 21.8691 1.82511 21.7764 1.82511C21.6992 1.82511 21.5911 2.23572 21.5293 2.73757C21.4676 3.23943 21.3594 3.65003 21.2977 3.65003C21.2204 3.65003 21.1587 3.9846 21.1587 4.41042C21.1587 4.82103 21.0969 5.1708 21.0197 5.1708C20.9579 5.1708 20.8498 5.52058 20.8035 5.96161C20.7417 6.38742 20.6336 6.81324 20.5409 6.90448C20.4637 6.98052 20.3865 7.3455 20.3865 7.71049C20.3865 8.07547 20.3247 8.36442 20.232 8.36442C20.1548 8.36442 20.0776 8.57733 20.0776 8.82065C20.0776 9.07918 19.9695 9.53541 19.8459 9.83957C19.7224 10.1285 19.6142 10.6456 19.6142 10.9649C19.6142 11.2995 19.5525 11.558 19.4598 11.558C19.3826 11.558 19.3054 11.7862 19.3054 12.0751C19.3054 12.3488 19.1973 12.8355 19.0737 13.1244C18.9501 13.4286 18.842 13.8848 18.842 14.1433C18.842 14.3867 18.7803 14.5996 18.6876 14.5996C18.6104 14.5996 18.5331 14.9037 18.5331 15.2687C18.5331 15.6337 18.4714 15.9683 18.3941 15.9987C18.3324 16.0139 18.2397 16.3637 18.1934 16.7591L18.1007 17.489H18.703C19.0428 17.489 19.3054 17.4282 19.3054 17.3674C19.3054 17.2457 20.6645 16.9568 22.0544 16.7895C22.4097 16.7439 22.7031 16.6374 22.7031 16.5614C22.7031 16.4853 23.0583 16.4245 23.4753 16.4245C23.9077 16.4245 24.2475 16.3485 24.2475 16.2724C24.2475 16.0291 25.0197 16.0899 25.2668 16.3485C25.4676 16.5462 25.4831 16.7439 25.3286 17.6715C25.236 18.2798 25.097 18.8121 25.0352 18.8577C24.958 18.9034 24.8498 19.3748 24.8035 19.9223C24.6491 21.732 24.4637 23.0398 24.2784 23.4657C24.1703 23.709 24.0931 24.2717 24.0931 24.7279C24.0931 25.1841 24.0313 25.5491 23.9386 25.5491C23.846 25.5491 23.7842 26.0053 23.7842 26.5984C23.7842 27.1915 23.707 27.6782 23.6298 27.7086C23.5371 27.739 23.429 28.2561 23.3672 28.8644C23.3209 29.4575 23.2128 29.9593 23.151 29.9593C23.0738 29.9593 23.012 30.4308 23.012 30.9935C23.012 31.5562 22.9348 32.1036 22.8421 32.1949C22.7649 32.2709 22.7031 32.7728 22.734 33.3203C22.7803 34.1871 22.8112 34.2327 22.9193 33.7917C22.9965 33.5332 23.1046 33.305 23.1819 33.305C23.2591 33.305 23.3209 33.1378 23.3209 32.9248C23.3209 32.7119 23.3826 32.5447 23.4599 32.5447C23.5371 32.5447 23.6452 32.3774 23.6915 32.1645C23.7533 31.9516 23.8614 31.7843 23.9386 31.7843C24.0313 31.7843 24.0931 31.617 24.0931 31.4041C24.0931 31.1912 24.1703 31.0239 24.2475 31.0239C24.3402 31.0239 24.402 30.8566 24.402 30.6589C24.402 30.446 24.5101 30.1875 24.6336 30.0506C24.7572 29.9289 24.8653 29.6856 24.8653 29.5183C24.8653 29.3358 24.9425 29.199 25.0197 29.199C25.1124 29.199 25.1742 29.0317 25.1742 28.8188C25.1742 28.6059 25.236 28.4386 25.3286 28.4386C25.4058 28.4386 25.5139 28.2713 25.5757 28.0584C25.6221 27.8455 25.7302 27.6782 25.8074 27.6782C25.8846 27.6782 25.9464 27.5109 25.9464 27.3132C25.9464 27.1003 26.0082 26.9026 26.0854 26.8418C26.1626 26.7961 26.2707 26.5528 26.3325 26.3095C26.3943 26.051 26.5024 25.8533 26.5796 25.8533C26.6568 25.8533 26.7186 25.7164 26.7186 25.5491C26.7186 25.3818 26.7958 25.245 26.873 25.245C26.9657 25.245 27.0275 25.0777 27.0275 24.8648C27.0275 24.6519 27.0893 24.4846 27.1665 24.4846C27.2437 24.4846 27.3518 24.3173 27.3981 24.1044C27.4599 23.8915 27.568 23.7242 27.6453 23.7242C27.7379 23.7242 27.7997 23.6025 27.7997 23.4657C27.7997 23.0855 28.2785 21.8993 28.4329 21.8993C28.5101 21.8993 28.5719 21.732 28.5719 21.5191C28.5719 21.3062 28.6337 21.1389 28.7109 21.1389C28.7881 21.1389 28.9735 20.8347 29.1279 20.4545C29.2669 20.0743 29.4522 19.7702 29.514 19.7702C29.5912 19.7702 29.653 19.6029 29.653 19.39C29.653 19.1771 29.7148 19.0098 29.792 19.0098C29.8692 19.0098 29.9773 18.8425 30.0237 18.6296C30.0854 18.4167 30.1936 18.2494 30.2708 18.2494C30.3634 18.2494 30.4252 18.0821 30.4252 17.8692C30.4252 17.6563 30.5024 17.489 30.5797 17.489C30.6723 17.489 30.7341 17.3218 30.7341 17.1241C30.7341 16.9111 30.8422 16.6526 30.9658 16.5157C31.0893 16.3941 31.1974 16.1508 31.1974 15.9835C31.1974 15.801 31.2747 15.6641 31.3519 15.6641C31.4445 15.6641 31.5063 15.4968 31.5063 15.2839C31.5063 15.071 31.5681 14.9037 31.6608 14.9037C31.738 14.9037 31.8461 14.7364 31.9079 14.5235C31.9542 14.3106 32.0623 14.1433 32.1395 14.1433C32.2168 14.1433 32.2785 13.9304 32.2785 13.6871C32.2785 13.4286 32.3558 13.2309 32.433 13.2309C32.5256 13.2309 32.5874 13.1092 32.5874 12.9419C32.5874 12.7899 32.6955 12.577 32.8191 12.4705C32.9426 12.364 33.0507 12.1511 33.0507 11.9991C33.0507 11.8318 33.128 11.7101 33.2052 11.7101C33.2979 11.7101 33.3596 11.558 33.3596 11.3603C33.3596 11.1778 33.4677 10.8889 33.5913 10.7368C33.7148 10.5695 33.823 10.311 33.823 10.1589C33.823 10.0069 33.9002 9.88519 33.9774 9.88519C34.0701 9.88519 34.1318 9.71791 34.1318 9.5202C34.1318 9.3225 34.1936 9.1248 34.2708 9.09439C34.3326 9.06397 34.4562 8.89669 34.5025 8.69899C34.6106 8.39484 34.5643 8.36442 33.9928 8.36442C33.6376 8.36442 33.3596 8.42525 33.3596 8.50129C33.3596 8.59254 33.0507 8.69899 32.6646 8.75982C32.2785 8.80544 31.9696 8.9119 31.9696 8.98794C31.9696 9.06397 31.6917 9.12481 31.3519 9.12481C31.0121 9.12481 30.7341 9.18564 30.7341 9.26167C30.7341 9.35292 30.4252 9.45937 30.0391 9.5202C29.653 9.56583 29.3441 9.67228 29.3441 9.74832C29.3441 9.82436 29.0044 9.88519 28.5719 9.88519C28.1549 9.88519 27.7997 9.94602 27.7997 10.0373C27.7997 10.1133 27.5526 10.1893 27.2592 10.1893C26.7495 10.1893 26.7186 10.1589 26.7186 9.65707C26.7186 9.36813 26.7804 9.12481 26.8422 9.12481C26.9039 9.12481 27.0893 8.77503 27.2592 8.36442C27.429 7.9386 27.6144 7.60404 27.6761 7.60404C27.7379 7.60404 27.7997 7.43675 27.7997 7.23905C27.7997 6.84365 28.263 5.93119 28.4638 5.93119C28.5256 5.93119 28.5719 5.71828 28.5719 5.47496C28.5719 5.21643 28.6182 5.01873 28.6955 5.01873C28.7572 5.01873 28.9426 4.60812 29.097 4.10627C29.2669 3.60441 29.4522 3.1938 29.5295 3.1938C29.5912 3.1938 29.653 3.05693 29.653 2.90486C29.653 2.73757 29.7302 2.55508 29.8075 2.50946C29.9001 2.46383 29.9619 2.28134 29.9619 2.12926C29.9619 1.97719 30.07 1.74907 30.1936 1.6122C30.3171 1.49054 30.4252 1.2168 30.4252 1.00389C30.4252 0.790989 30.5024 0.608494 30.5797 0.608494C30.6723 0.608494 30.7341 0.471626 30.7341 0.30434C30.7341 0.00018692 30.626 0.00018692 26.5333 0.00018692C23.0892 0.0153961 22.2861 0.0458107 22.1317 0.228302Z" fill="#5F6262"/>
<path d="M4.46339 9.74876C4.12362 10.0377 4.09273 10.1898 4.06184 11.5889C4.03095 12.4405 3.98462 13.1705 3.92284 13.2161C3.87651 13.2617 3.15063 13.3074 2.3012 13.3074C1.4672 13.3074 0.772213 13.353 0.772213 13.4138C0.772213 13.4899 0.694992 13.5355 0.602326 13.5355C0 13.5355 0 13.3682 0 27.7547C0 39.495 0.0308885 41.5785 0.21622 41.761C0.555993 42.0803 49.9467 42.0803 50.2865 41.761C50.4719 41.5785 50.5027 39.495 50.5027 27.7547C50.5027 15.0562 50.4873 13.9461 50.2402 13.718C50.0549 13.5203 49.6533 13.4442 48.7421 13.4138C46.6417 13.3378 46.7961 13.4899 46.7961 11.5585C46.7961 10.4635 46.7343 9.88563 46.6262 9.88563C46.5336 9.88563 46.3637 9.77918 46.2401 9.65752C46.0393 9.47503 45.4061 9.4294 42.4408 9.4294H38.8887L38.4871 9.85522C38.1319 10.2354 38.101 10.3723 38.1319 11.6041C38.1628 12.5622 38.101 12.988 37.962 13.1401C37.823 13.2617 37.2825 13.3682 36.5875 13.3986C35.3056 13.4746 34.904 13.6876 34.904 14.3567C34.904 14.5696 35.0276 14.889 35.1666 15.0562C35.4291 15.3452 35.6145 15.3604 41.7458 15.3604C47.0123 15.3604 48.0934 15.3908 48.2788 15.5733C48.4641 15.7558 48.495 17.5655 48.495 27.5722C48.495 34.0659 48.4487 39.4646 48.4023 39.6015C48.3097 39.8296 46.132 39.8448 25.2359 39.8448H2.1622V27.6026V15.3604H8.6179H15.0736L15.3516 14.889C15.5833 14.5088 15.5987 14.3567 15.4443 13.9917C15.2435 13.5355 14.9192 13.3834 14.0234 13.3834C13.7145 13.3834 13.2666 13.3074 13.0504 13.2009C12.6797 13.0336 12.6643 12.988 12.6643 11.4672V9.90084L12.201 9.65752C11.8457 9.47503 11.089 9.4294 8.29357 9.4294C5.00394 9.4294 4.81861 9.44461 4.46339 9.74876ZM10.2395 11.6497C10.7955 11.741 10.811 11.7714 10.811 12.4101C10.811 13.2922 10.5948 13.3834 8.49434 13.3834C6.39392 13.3834 6.17771 13.2922 6.17771 12.3949C6.17771 11.7866 6.20859 11.7258 6.61014 11.6649C7.30514 11.5585 9.60633 11.5585 10.2395 11.6497ZM44.5567 11.7106C44.6957 11.9387 44.7111 13.0488 44.5721 13.1857C44.3714 13.3986 41.0972 13.429 40.603 13.2313C40.2014 13.064 40.1551 12.9728 40.1551 12.3797C40.1551 11.7866 40.186 11.7258 40.5875 11.6649C41.4833 11.5281 44.464 11.5585 44.5567 11.7106Z" fill="#5F6262"/>
</svg>
