<svg width="50" height="62" viewBox="0 0 50 62" fill="none" xmlns="http://www.w3.org/2000/svg">
<path d="M29.7713 0.225758C29.6646 0.347992 29.5731 0.51606 29.5731 0.607735C29.5731 0.699409 29.4054 0.928596 29.192 1.12722C28.9786 1.32585 28.8109 1.52448 28.8109 1.5856C28.8109 1.64671 28.7195 1.7995 28.628 1.90646C28.1859 2.39539 28.0487 2.59402 28.0487 2.70097C28.0487 2.77737 27.9115 2.93016 27.7438 3.05239C27.5762 3.17462 27.439 3.35797 27.439 3.46493C27.439 3.57188 27.2713 3.81635 27.0579 4.03025C26.8445 4.24416 26.6768 4.45807 26.6768 4.51918C26.6768 4.5803 26.5091 4.77893 26.2957 4.97756C26.0823 5.17619 25.9146 5.40537 25.9146 5.51233C25.9146 5.604 25.6707 5.90958 25.381 6.19988C25.0914 6.47491 24.8475 6.79577 24.8475 6.918C24.8475 7.04023 24.6798 7.26942 24.4664 7.42221C24.253 7.575 24.0853 7.77363 24.0853 7.83475C24.0853 7.91114 23.9939 8.06393 23.9024 8.17089C23.4451 8.6751 23.3231 8.85845 23.3231 9.01124C23.3231 9.08764 23.2621 9.16403 23.1707 9.16403C23.0945 9.16403 23.0182 9.24043 23.0182 9.3321C23.0182 9.42377 22.9268 9.59184 22.8353 9.6988C22.4085 10.1725 22.256 10.3711 22.256 10.4628C22.256 10.5239 22.1646 10.6614 22.0731 10.7683C21.6463 11.242 21.4939 11.4406 21.4939 11.5323C21.4939 11.5934 21.2499 11.8684 20.9603 12.1587C20.6707 12.4338 20.4268 12.7393 20.4268 12.831C20.4268 12.9685 20.1524 13.3658 19.6646 13.8853C19.5426 14.0228 19.3445 14.3284 19.2225 14.5575C19.1006 14.7867 18.9176 14.9701 18.7957 14.9701C18.689 14.9701 18.5975 15.077 18.5975 15.1993C18.5975 15.3215 18.5518 15.4285 18.4756 15.4285C18.4146 15.4285 18.2317 15.6729 18.0792 15.9632C17.9115 16.2535 17.7286 16.498 17.6524 16.498C17.5914 16.498 17.5304 16.5744 17.5304 16.6661C17.5304 16.7577 17.439 16.9258 17.3475 17.0328C16.9359 17.4911 16.7682 17.705 16.7682 17.7967C16.7682 17.8426 16.6158 18.0565 16.4329 18.2551C15.5792 19.1566 15.4573 19.5538 15.8689 19.9205C16.0365 20.058 16.2347 20.165 16.3109 20.165C16.4024 20.165 16.4634 20.2108 16.4634 20.2872C16.4634 20.3483 16.6006 20.4858 16.7682 20.5775C17.0121 20.7456 17.1189 20.715 17.4542 20.4094C17.6676 20.2108 17.8353 20.0122 17.8353 19.9511C17.8353 19.89 17.9268 19.7372 18.0335 19.6302C18.4451 19.1566 18.5975 18.9579 18.5975 18.8663C18.5975 18.7135 19.0243 18.3315 19.192 18.3315C19.2835 18.3315 19.3597 18.194 19.3597 18.0106C19.3597 17.8426 19.6036 17.4606 19.8932 17.1703C20.1829 16.8953 20.4268 16.5591 20.4268 16.4216C20.4268 16.2994 20.503 16.1924 20.5792 16.1924C20.6707 16.1924 20.7317 16.0855 20.7317 15.9632C20.7317 15.841 20.8384 15.734 20.9603 15.734C21.0823 15.734 21.189 15.6576 21.189 15.5812C21.189 15.3062 22.1798 14.2061 22.4085 14.2061C22.4999 14.2061 22.5609 14.3131 22.5609 14.4353C22.5609 14.5575 22.4999 14.6645 22.4085 14.6645C22.3323 14.6645 22.256 14.909 22.256 15.1993C22.256 15.4896 22.1951 15.734 22.1036 15.734C22.0274 15.734 21.9512 15.8716 21.9512 16.0549C21.9512 16.223 21.8445 16.4674 21.7225 16.5897C21.6006 16.7272 21.4939 16.9869 21.4939 17.2008C21.4939 17.3995 21.4329 17.5675 21.3414 17.5675C21.2652 17.5675 21.189 17.812 21.189 18.1023C21.189 18.3926 21.128 18.6371 21.0518 18.6371C20.9756 18.6371 20.8689 18.8357 20.8079 19.0954C20.7469 19.3399 20.6402 19.5538 20.564 19.5538C20.4878 19.5538 20.4268 19.7524 20.4268 20.0122C20.4268 20.2567 20.3658 20.4706 20.2896 20.4706C20.2134 20.4706 20.0304 20.8831 19.878 21.3873C19.7103 21.8915 19.5426 22.3041 19.4817 22.3041C19.4054 22.3041 19.3597 22.4721 19.3597 22.6707C19.3597 22.8847 19.2987 23.0986 19.2073 23.1444C19.131 23.1902 19.0548 23.3736 19.0548 23.5264C19.0548 23.6792 18.9481 23.9084 18.8262 24.0459C18.7042 24.1681 18.5975 24.4431 18.5975 24.657C18.5975 24.8709 18.5365 25.0543 18.4451 25.0543C18.3689 25.0543 18.2926 25.2529 18.2926 25.5127C18.2926 25.7571 18.2317 25.971 18.1402 25.971C18.064 25.971 17.9878 26.1544 18.003 26.3836C18.003 26.628 18.0487 26.7197 18.0945 26.6128C18.1249 26.5211 18.3384 26.4294 18.5518 26.4294C18.7499 26.4294 19.0243 26.3225 19.1463 26.2002C19.2835 26.078 19.5121 25.971 19.6646 25.971C19.817 25.971 19.9999 25.8946 20.0457 25.8182C20.0914 25.7266 20.3048 25.6655 20.5182 25.6655C20.7164 25.6655 20.8841 25.5891 20.8841 25.5127C20.8841 25.421 21.006 25.3599 21.1585 25.3599C21.3109 25.3599 21.5701 25.2529 21.7378 25.1307C21.8902 25.0085 22.1798 24.9015 22.378 24.9015C22.5609 24.9015 22.7134 24.8251 22.7134 24.7487C22.7134 24.657 22.8506 24.5959 23.0182 24.5959C23.1859 24.5959 23.3231 24.5348 23.3231 24.4431C23.3231 24.3667 23.567 24.2598 23.8567 24.1987C24.1463 24.1528 24.3902 24.0459 24.3902 23.9695C24.3902 23.8931 24.5579 23.832 24.756 23.832C24.9542 23.832 25.1524 23.7861 25.1829 23.7097C25.2591 23.5417 26.3414 23.068 26.6768 23.068C26.8292 23.068 26.9817 23.0069 27.0121 22.9458C27.0731 22.793 28.567 22.1513 28.8719 22.1513C29.0091 22.1513 29.1158 22.2888 29.1158 22.4568C29.1158 22.6249 29.0091 22.7624 28.8871 22.7624C28.7499 22.7624 28.4146 23.0069 28.1402 23.2972C27.8506 23.5875 27.5609 23.832 27.4847 23.832C27.4237 23.832 27.1798 24 26.9512 24.2139C26.7225 24.4278 26.4938 24.5959 26.4481 24.5959C26.3871 24.5959 26.2499 24.6876 26.1432 24.7793C25.6707 25.2071 25.4725 25.3599 25.381 25.3599C25.3201 25.3599 25.0457 25.6043 24.756 25.8946C24.4817 26.1849 24.1463 26.4294 24.0091 26.4294C23.8871 26.4294 23.7804 26.5364 23.7804 26.6586C23.7804 26.7808 23.7042 26.8878 23.628 26.8878C23.5365 26.8878 23.2621 27.0864 23.003 27.3462C22.7439 27.5906 22.3932 27.8351 22.2408 27.8809C22.0731 27.942 21.9512 28.049 21.9512 28.1254C21.9512 28.2018 21.8749 28.2629 21.7835 28.2629C21.5701 28.2629 21.189 28.6449 21.189 28.8588C21.189 28.9505 21.1128 29.0269 21.0213 29.0269C20.9298 29.0269 20.7621 29.1185 20.6554 29.2102C20.1524 29.6686 19.9695 29.7908 19.817 29.7908C19.6036 29.7908 19.6189 29.9283 19.8628 30.1575C19.9695 30.2645 20.5792 30.402 21.2347 30.4631C21.8902 30.5242 22.5914 30.6312 22.8048 30.7076C23.0182 30.7992 23.628 30.8603 24.1768 30.8603C24.7103 30.8603 25.1524 30.9215 25.1524 30.9979C25.1524 31.0743 25.6554 31.1812 26.2652 31.2118C28.2926 31.3493 30.2591 31.6243 30.3048 31.7771C30.3353 31.8535 30.8384 31.9299 31.4176 31.9299C32.4695 31.9299 32.8353 32.1591 32.0579 32.3119C31.814 32.373 31.5091 32.4647 31.3719 32.5563C31.2195 32.6327 30.5182 32.6938 29.8018 32.6938C29.0396 32.6938 28.506 32.755 28.506 32.8466C28.506 32.923 28.1402 32.9994 27.7134 32.9994C27.2713 33.0147 26.4634 33.1064 25.9146 33.2286C25.3658 33.3508 24.4969 33.4425 23.9786 33.4578C23.4451 33.4578 23.0182 33.5189 23.0182 33.6106C23.0182 33.7023 22.5457 33.7634 21.9207 33.7787C20.7469 33.7787 19.8018 34.0231 19.6951 34.3287C19.6646 34.4357 19.7103 34.5273 19.817 34.5273C19.9085 34.5273 20.1524 34.6954 20.3658 34.9093C20.5792 35.1232 20.8231 35.2913 20.9146 35.2913C21.006 35.2913 21.3109 35.5357 21.6006 35.8261C21.8902 36.1164 22.1951 36.3608 22.2865 36.3608C22.378 36.3608 22.6067 36.5289 22.8048 36.7428C23.003 36.9567 23.2012 37.1248 23.2469 37.1248C23.3079 37.1248 23.4451 37.2164 23.5518 37.3081C24.0091 37.7207 24.2225 37.8887 24.314 37.8887C24.3597 37.8887 24.6493 38.1332 24.9542 38.4235C25.2591 38.7138 25.6097 38.9583 25.7164 38.9583C25.8231 38.9583 25.9146 39.0194 25.9146 39.1111C25.9146 39.1875 25.9908 39.2638 26.0823 39.2638C26.2957 39.2638 26.6768 39.6458 26.6768 39.8597C26.6768 39.9514 26.814 40.0278 26.9817 40.0278C27.1493 40.0278 27.2865 40.0889 27.2865 40.1806C27.2865 40.257 27.3932 40.3334 27.5152 40.3334C27.6371 40.3334 27.7438 40.4403 27.7438 40.5626C27.7438 40.6848 27.881 40.7918 28.0487 40.7918C28.2164 40.7918 28.3536 40.8529 28.3536 40.9445C28.3536 41.0209 28.4603 41.0973 28.5823 41.0973C28.7042 41.0973 28.8109 41.2043 28.8109 41.3265C28.8109 41.4488 28.9176 41.5557 29.0396 41.5557C29.1615 41.5557 29.2682 41.6168 29.2682 41.7085C29.2682 41.7849 28.9938 41.8613 28.6585 41.8613C28.3231 41.8613 28.0487 41.7849 28.0487 41.7085C28.0487 41.6168 27.9115 41.5557 27.7286 41.5557C27.5609 41.5557 27.317 41.4488 27.1951 41.3265C27.0579 41.2043 26.8292 41.0973 26.6615 41.0973C26.5091 41.0973 26.3719 41.0209 26.3719 40.9445C26.3719 40.8529 26.1737 40.7918 25.9146 40.7918C25.6707 40.7918 25.4573 40.7154 25.4573 40.639C25.4573 40.5473 25.3353 40.4862 25.1829 40.4862C25.0304 40.4862 24.7713 40.3792 24.6036 40.257C24.4512 40.1348 24.1615 40.0278 23.9786 40.0278C23.7804 40.0278 23.628 39.9514 23.628 39.875C23.628 39.7833 23.4908 39.7222 23.3231 39.7222C22.9878 39.7222 21.9054 39.2486 21.8292 39.0652C21.7987 39.0041 21.5701 38.9583 21.3109 38.9583C21.067 38.9583 20.7621 38.8513 20.6402 38.7291C20.503 38.6068 20.2439 38.4999 20.0304 38.4999C19.8323 38.4999 19.6646 38.4235 19.6646 38.3471C19.6646 38.2554 19.4969 38.1943 19.2835 38.1943C19.0701 38.1943 18.9024 38.1332 18.9024 38.0568C18.9024 37.8887 18.003 37.7512 17.9115 37.904C17.8201 38.0415 18.3231 39.4778 18.4908 39.5389C18.5518 39.5694 18.5975 39.7681 18.5975 39.982C18.5975 40.1806 18.7042 40.4556 18.8262 40.5779C18.9481 40.7154 19.0548 40.9445 19.0548 41.1126C19.0548 41.2654 19.131 41.4029 19.2073 41.4029C19.2987 41.4029 19.3597 41.571 19.3597 41.7849C19.3597 41.9988 19.4207 42.1669 19.4817 42.1669C19.5426 42.1669 19.7256 42.5489 19.8932 43.0072C20.0457 43.4656 20.2286 43.8476 20.3048 43.8476C20.3658 43.8476 20.4268 44.0462 20.4268 44.306C20.4268 44.5504 20.4878 44.7643 20.564 44.7643C20.6402 44.7643 20.7469 44.9782 20.8079 45.2227C20.8689 45.4824 20.9756 45.6811 21.0518 45.6811C21.128 45.6811 21.189 45.8797 21.189 46.1394C21.189 46.3839 21.2652 46.5978 21.3414 46.5978C21.4329 46.5978 21.4939 46.7506 21.4939 46.934C21.4939 47.1326 21.6006 47.4229 21.7225 47.5757C21.8445 47.7437 21.9512 48.0035 21.9512 48.1563C21.9512 48.3091 22.0274 48.4313 22.1036 48.4313C22.1951 48.4313 22.256 48.6299 22.256 48.8897C22.256 49.1341 22.3323 49.3481 22.4085 49.3481C22.4999 49.3481 22.5609 49.4703 22.5609 49.6231C22.5609 49.7759 22.6676 50.0356 22.7896 50.2037C22.9115 50.3565 23.0182 50.6773 23.0182 50.9065C23.0182 51.151 23.0945 51.3343 23.1707 51.3343C23.2621 51.3343 23.3231 51.6094 23.3231 51.9455C23.3231 52.2816 23.2926 52.5567 23.2469 52.5567C23.1097 52.5567 19.0548 48.4007 19.0548 48.2632C19.0548 48.1868 18.9481 48.1257 18.8262 48.1257C18.7042 48.1257 18.5975 48.0646 18.5975 47.9729C18.5975 47.7896 17.8658 47.0562 17.6829 47.0562C17.5914 47.0562 17.5304 46.9798 17.5304 46.8881C17.5304 46.6742 17.1493 46.2922 16.9359 46.2922C16.8445 46.2922 16.7682 46.3686 16.7682 46.4603C16.7682 46.6284 16.3871 47.0562 16.2347 47.0562C16.0518 47.0562 15.7012 47.4993 15.7012 47.7437C15.7012 47.866 17.4085 49.6995 19.5121 51.808C21.6158 53.9012 23.3231 55.6889 23.3231 55.7653C23.3231 55.8569 23.3993 55.9181 23.4756 55.9181C23.689 55.9181 24.3902 56.6209 24.3902 56.8348C24.3902 56.9112 24.4664 56.9876 24.5579 56.9876C24.7256 56.9876 25.1524 57.3696 25.1524 57.5224C25.1524 57.6752 25.5792 58.0571 25.7469 58.0571C25.8384 58.0571 25.9146 58.1335 25.9146 58.2252C25.9146 58.3933 26.2957 58.8211 26.4481 58.8211C26.5701 58.8211 26.9817 59.2336 26.9817 59.3559C26.9817 59.5087 27.4085 59.8906 27.5762 59.8906C27.6676 59.8906 27.7438 59.967 27.7438 60.0587C27.7438 60.2268 28.1249 60.6546 28.2774 60.6546C28.4298 60.6546 28.8109 61.0824 28.8109 61.2505C28.8109 61.3421 28.9176 61.4185 29.0396 61.4185C29.1615 61.4185 29.2682 61.4797 29.2682 61.5713C29.2682 61.6477 29.3445 61.7241 29.4207 61.7241C29.6493 61.7241 29.6036 61.4797 29.192 60.624C28.9786 60.1962 28.8109 59.7073 28.8109 59.5545C28.8109 59.4017 28.7499 59.2795 28.6585 59.2795C28.5823 59.2795 28.506 59.1267 28.506 58.928C28.506 58.7447 28.3993 58.4544 28.2774 58.3016C28.1554 58.1335 28.0487 57.8432 28.0487 57.6446C28.0487 57.446 27.9878 57.2932 27.8963 57.2932C27.8201 57.2932 27.7438 57.1557 27.7438 56.9723C27.7438 56.8043 27.6371 56.5598 27.5152 56.4376C27.3932 56.3 27.2865 56.0403 27.2865 55.8264C27.2865 55.6278 27.2256 55.4597 27.1341 55.4597C27.0579 55.4597 26.9817 55.2916 26.9817 55.0777C26.9817 54.8638 26.9207 54.6957 26.8292 54.6957C26.753 54.6957 26.6768 54.5277 26.6768 54.329C26.6768 54.1151 26.5701 53.8554 26.4481 53.7179C26.3262 53.5956 26.2195 53.3512 26.2195 53.1831C26.2195 52.9998 26.1585 52.8622 26.067 52.8622C25.9908 52.8622 25.9146 52.6483 25.9146 52.3886C25.9146 52.1288 25.8079 51.8233 25.6859 51.701C25.564 51.5635 25.4573 51.3038 25.4573 51.0899C25.4573 50.8912 25.3963 50.7232 25.3048 50.7232C25.2286 50.7232 25.1524 50.5551 25.1524 50.3412C25.1524 50.1273 25.0914 49.9592 25.0152 49.9592C24.939 49.9592 24.8323 49.7148 24.7865 49.4244C24.7256 49.1341 24.6188 48.8897 24.5426 48.8897C24.4512 48.8897 24.3902 48.7216 24.3902 48.5077C24.3902 48.2938 24.3292 48.1257 24.2378 48.1257C24.1615 48.1257 24.0853 47.8813 24.0853 47.591C24.0853 47.3007 24.0243 47.0562 23.9329 47.0562C23.8567 47.0562 23.7499 46.8881 23.689 46.6742C23.6432 46.4603 23.5365 46.2922 23.4603 46.2922C23.3841 46.2922 23.3231 46.1242 23.3231 45.9103C23.3231 45.6963 23.2621 45.5283 23.1859 45.5283C23.1097 45.5283 23.003 45.2838 22.9573 44.9935C22.8963 44.7032 22.7896 44.4587 22.7134 44.4587C22.6219 44.4587 22.5609 44.2907 22.5609 44.0768C22.5609 43.8629 22.4999 43.6948 22.4085 43.6948C22.3323 43.6948 22.256 43.4656 22.256 43.1753C22.256 42.885 22.1951 42.6252 22.1189 42.5947C22.0579 42.5641 21.9359 42.3961 21.8902 42.1974C21.7835 41.8919 21.8292 41.8613 22.3932 41.8613C22.7439 41.8613 23.0182 41.9224 23.0182 42.0141C23.0182 42.0905 23.1707 42.1669 23.3689 42.1669C23.5518 42.1822 23.8719 42.2738 24.0853 42.3961C24.2987 42.5183 24.6188 42.61 24.817 42.6252C24.9999 42.6252 25.1524 42.6864 25.1524 42.778C25.1524 42.8544 25.2896 42.9308 25.4725 42.9308C25.6402 42.9308 25.8841 43.0378 26.006 43.16C26.1432 43.2823 26.4024 43.3892 26.6158 43.3892C26.814 43.3892 26.9817 43.4503 26.9817 43.542C26.9817 43.6184 27.1493 43.6948 27.3628 43.6948C27.5762 43.6948 27.7438 43.7559 27.7438 43.8323C27.7438 43.9087 27.9878 44.0156 28.2774 44.0615C28.567 44.1226 28.8109 44.2296 28.8109 44.306C28.8109 44.3976 28.9786 44.4587 29.192 44.4587C29.4054 44.4587 29.5731 44.5199 29.5731 44.6115C29.5731 44.6879 29.7103 44.7643 29.878 44.7643C30.2134 44.7643 31.2957 45.238 31.3719 45.406C31.4024 45.4824 31.6006 45.5283 31.7987 45.5283C31.9969 45.5283 32.1646 45.5894 32.1646 45.6658C32.1646 45.7422 32.4085 45.8491 32.6981 45.895C32.9877 45.9561 33.2317 46.063 33.2317 46.1394C33.2317 46.2311 33.3993 46.2922 33.6127 46.2922C33.8262 46.2922 33.9938 46.3533 33.9938 46.445C33.9938 46.5214 34.1615 46.5978 34.3597 46.5978C34.5731 46.5978 34.8323 46.7048 34.9695 46.827C35.0914 46.9492 35.3353 47.0562 35.503 47.0562C35.6859 47.0562 35.8231 47.1173 35.8231 47.209C35.8231 47.2854 35.9756 47.3618 36.1585 47.3618C36.5548 47.3618 37.6524 47.8354 37.6524 48.0035C37.6524 48.0646 37.8963 48.1257 38.1859 48.1257C38.4756 48.1257 38.7195 48.1868 38.7195 48.2785C38.7195 48.3549 38.8414 48.4313 38.9938 48.4313C39.1463 48.4313 39.4054 48.5383 39.5731 48.6605C39.7256 48.7827 40.0152 48.8897 40.2134 48.8897C40.3963 48.8897 40.5487 48.9508 40.5487 49.0425C40.5487 49.1189 40.7926 49.1953 41.0823 49.1953C41.3719 49.1953 41.6158 49.2564 41.6158 49.3481C41.6158 49.4244 41.7835 49.5314 41.9969 49.5925C42.2103 49.6384 42.378 49.7453 42.378 49.8217C42.378 49.8981 42.6066 49.9592 42.8963 49.9592C43.1859 49.9592 43.4451 50.0356 43.4755 50.1273C43.506 50.219 43.6737 50.2648 43.8262 50.2342C44.131 50.1578 44.131 50.1578 43.8262 50.0356C43.6585 49.9592 43.3079 49.6842 43.0335 49.3939C42.7743 49.1189 42.4695 48.8897 42.378 48.8897C42.2865 48.8897 42.0579 48.7216 41.8597 48.5077C41.6615 48.2938 41.4634 48.1257 41.4024 48.1257C41.3414 48.1257 41.128 47.9577 40.9146 47.7437C40.7012 47.5298 40.4573 47.3618 40.381 47.3618C40.2896 47.3618 39.9847 47.1173 39.6951 46.827C39.4207 46.5367 39.0853 46.2922 38.9481 46.2922C38.8262 46.2922 38.7195 46.2158 38.7195 46.1394C38.7195 46.0478 38.6432 45.9867 38.5518 45.9867C38.4603 45.9867 38.2926 45.895 38.1859 45.788C37.6829 45.3449 37.4999 45.2227 37.3475 45.2227C37.2713 45.2227 37.1951 45.1157 37.1951 44.9935C37.1951 44.8713 37.0884 44.7643 36.9664 44.7643C36.8445 44.7643 36.7377 44.6879 36.7377 44.6115C36.7377 44.5199 36.6006 44.4587 36.4329 44.4587C36.2652 44.4587 36.128 44.3671 36.128 44.2601C36.128 44.1379 35.9603 43.9545 35.7469 43.8476C35.5335 43.7406 35.3658 43.5878 35.3658 43.5114C35.3658 43.4503 35.2743 43.3892 35.1829 43.3892C35.0762 43.3892 34.7713 43.1906 34.5121 42.9614C34.253 42.7322 33.8567 42.4113 33.6127 42.2433C33.3841 42.0752 33.1097 41.846 33.003 41.7391C32.881 41.6474 32.7438 41.5557 32.6829 41.5557C32.6219 41.5557 32.4237 41.3876 32.2256 41.1737C32.0274 40.9598 31.7987 40.7918 31.692 40.7918C31.6006 40.7918 31.2957 40.5473 31.006 40.257C30.7317 39.9667 30.442 39.7222 30.3506 39.7222C30.2743 39.7222 30.0304 39.5542 29.817 39.3402C29.6036 39.1263 29.3902 38.9583 29.3445 38.9583C29.253 38.9583 29.0396 38.7902 28.5823 38.3777C28.4756 38.286 28.3384 38.1943 28.2774 38.1943C28.2317 38.1943 28.003 38.0262 27.7743 37.8123C27.5457 37.5984 27.3018 37.4304 27.2103 37.4304C27.1188 37.4304 26.9512 37.2928 26.8292 37.1248C26.7073 36.9567 26.5243 36.8192 26.4176 36.8192C26.2042 36.8192 25.4573 36.1164 25.4573 35.9024C25.4573 35.3982 25.6707 35.2913 26.5853 35.2913C27.1036 35.2913 27.9268 35.1843 28.3993 35.0621C28.8871 34.9399 29.756 34.8329 30.3353 34.8329C30.9451 34.8329 31.4024 34.7718 31.4024 34.6801C31.4024 34.5884 31.9817 34.5273 32.8353 34.5273C33.689 34.5273 34.2987 34.4662 34.3292 34.3745C34.3902 34.1912 36.4481 33.9162 38.6127 33.8092C39.4207 33.7787 40.0914 33.6717 40.0914 33.5953C40.0914 33.5189 40.5335 33.4578 41.0823 33.4578C41.631 33.4578 42.3323 33.3508 42.6371 33.2286C42.9725 33.0911 43.6585 32.9994 44.4512 32.9994C45.1981 32.9994 45.7316 32.9383 45.7316 32.8466C45.7316 32.755 46.2042 32.6938 46.8597 32.6938C47.5152 32.6938 48.2164 32.6022 48.5213 32.4647C48.8262 32.3424 49.2835 32.2355 49.5426 32.2355C49.7865 32.2355 49.9999 32.1591 49.9999 32.0827C49.9999 31.991 49.5121 31.9299 48.8566 31.9299C48.2012 31.9299 47.7134 31.8688 47.7134 31.7771C47.7134 31.6854 47.1951 31.6243 46.4634 31.6243C45.7621 31.6243 44.8627 31.5173 44.4512 31.3951C44.0396 31.2729 43.2316 31.1659 42.6524 31.1659C42.0579 31.1659 41.6158 31.1048 41.6158 31.0131C41.6158 30.9215 41.0823 30.8603 40.3201 30.8603C39.6036 30.8603 39.0243 30.7992 39.0243 30.7228C39.0243 30.6617 38.3841 30.5548 37.6219 30.4936C36.8445 30.4478 36.189 30.3256 36.1585 30.2492C36.128 30.1575 35.4877 30.0964 34.6646 30.0964C33.8109 30.0964 33.2317 30.0353 33.2317 29.9436C33.2317 29.8519 32.7896 29.7908 32.2103 29.7908C31.631 29.7908 30.7621 29.6839 30.2591 29.5616C29.756 29.4394 28.8871 29.3477 28.3231 29.3324C27.7438 29.3324 27.2865 29.2713 27.2865 29.1796C27.2865 29.1032 26.8292 29.0269 26.2652 28.9963C25.4268 28.9657 25.2286 28.9046 25.1829 28.6907C25.1371 28.431 25.4573 27.9573 25.6859 27.9573C25.7926 27.9573 26.0518 27.7434 26.6768 27.1475C26.9054 26.9183 27.1798 26.735 27.2713 26.735C27.3628 26.735 27.439 26.6586 27.439 26.5822C27.439 26.4905 27.5762 26.4294 27.7438 26.4294C27.9115 26.4294 28.0487 26.3225 28.0487 26.2002C28.0487 26.078 28.1249 25.971 28.2012 25.971C28.2926 25.971 28.567 25.7571 28.8414 25.5127C29.1006 25.2529 29.3749 25.0543 29.4359 25.0543C29.5121 25.0543 29.8323 24.7793 30.1676 24.4431C30.503 24.107 30.8384 23.832 30.9451 23.832C31.0365 23.832 31.2652 23.6639 31.4634 23.45C31.6615 23.2361 31.8597 23.068 31.9207 23.068C31.9817 23.068 32.1951 22.9152 32.3932 22.7166C32.942 22.2124 33.2012 21.9985 33.3079 21.9985C33.3536 21.9985 33.628 21.754 33.9024 21.4637C34.192 21.1734 34.4969 20.9289 34.6036 20.9289C34.6951 20.9289 34.9237 20.7609 35.1219 20.547C35.3201 20.333 35.5182 20.165 35.5792 20.165C35.6859 20.165 35.8841 20.0122 36.3566 19.5844C36.4634 19.4927 36.6006 19.401 36.6615 19.401C36.7073 19.401 36.9207 19.233 37.1341 19.019C37.3475 18.8051 37.5914 18.6371 37.6676 18.6371C37.7591 18.6371 38.064 18.3926 38.3536 18.1023C38.628 17.812 38.9329 17.5675 39.0243 17.5675C39.1158 17.5675 39.4207 17.3231 39.6951 17.0328C39.9847 16.7425 40.2591 16.498 40.3201 16.498C40.3658 16.498 40.5182 16.4063 40.6249 16.2994C41.0975 15.8868 41.2957 15.734 41.3871 15.734C41.4481 15.734 41.7073 15.4896 41.9816 15.1993C42.2713 14.909 42.5457 14.6645 42.6219 14.6645C42.7896 14.6645 43.7499 13.8242 43.7499 13.6866C43.7499 13.6408 43.6127 13.595 43.4451 13.595C43.2774 13.595 43.1402 13.6561 43.1402 13.7478C43.1402 13.8242 42.9725 13.9005 42.7591 13.9005C42.5457 13.9005 42.378 13.9617 42.378 14.0533C42.378 14.1297 42.1341 14.2367 41.8445 14.2978C41.5548 14.3436 41.3109 14.4506 41.3109 14.527C41.3109 14.6034 41.1432 14.6645 40.9298 14.6645C40.7164 14.6645 40.5487 14.7256 40.5487 14.8173C40.5487 14.8937 40.4115 14.9701 40.2286 14.9701C40.0609 14.9701 39.817 15.077 39.6951 15.1993C39.5579 15.3215 39.2987 15.4285 39.0853 15.4285C38.8871 15.4285 38.7195 15.4896 38.7195 15.5812C38.7195 15.6576 38.5518 15.734 38.3384 15.734C38.1249 15.734 37.9573 15.7952 37.9573 15.8868C37.9573 15.9632 37.7896 16.0702 37.5762 16.1313C37.3627 16.1771 37.1951 16.2841 37.1951 16.3605C37.1951 16.4369 36.9664 16.498 36.6768 16.498C36.3871 16.498 36.128 16.5438 36.0975 16.6049C36.0213 16.7883 34.939 17.262 34.6036 17.262C34.4359 17.262 34.2987 17.3231 34.2987 17.4147C34.2987 17.4911 34.1615 17.5675 33.9786 17.5675C33.8109 17.5675 33.567 17.6745 33.4451 17.7967C33.3079 17.919 33.0487 18.0259 32.8353 18.0259C32.6371 18.0259 32.4695 18.087 32.4695 18.1787C32.4695 18.2551 32.3323 18.3315 32.1493 18.3315C31.9817 18.3315 31.7377 18.4384 31.6158 18.5607C31.4786 18.6829 31.2499 18.7899 31.0975 18.7899C30.9451 18.7899 30.7621 18.851 30.7164 18.9426C30.6707 19.019 30.4878 19.0954 30.3201 19.0954C30.1524 19.0954 29.9085 19.1871 29.8018 19.3093C29.6798 19.4163 29.2835 19.6149 28.9024 19.7219C28.506 19.8288 28.2012 19.9816 28.2012 20.0427C28.2012 20.1039 28.0335 20.165 27.8353 20.165C27.6371 20.165 27.439 20.2108 27.4085 20.2719C27.3475 20.44 26.3871 20.9289 26.128 20.9289C26.006 20.9289 25.9146 20.9901 25.9146 21.0817C25.9146 21.1581 25.7774 21.2345 25.6097 21.2345C25.2743 21.2345 24.192 21.7082 24.1158 21.8762C24.0853 21.9526 23.9176 21.9985 23.7347 21.9985C23.5518 22.0137 23.2317 22.1054 23.0182 22.2277C22.3932 22.5791 21.9512 22.518 21.9512 22.0749C21.9512 21.861 22.0274 21.6929 22.1036 21.6929C22.1951 21.6929 22.256 21.4484 22.256 21.1581C22.256 20.8678 22.317 20.6234 22.378 20.6234C22.4542 20.6234 22.6371 20.2414 22.7896 19.783C22.9573 19.3246 23.1402 18.9426 23.2012 18.9426C23.2621 18.9426 23.3231 18.7287 23.3231 18.4843C23.3231 18.2245 23.3841 18.0259 23.4756 18.0259C23.5518 18.0259 23.6585 17.7814 23.7195 17.4911C23.7652 17.2008 23.8719 16.9564 23.9481 16.9564C24.0243 16.9564 24.0853 16.7425 24.0853 16.498C24.0853 16.2383 24.131 16.0396 24.2073 16.0396C24.2682 16.0396 24.4512 15.6271 24.6036 15.1229C24.7713 14.6187 24.9542 14.2061 25.0304 14.2061C25.0914 14.2061 25.1524 14.0075 25.1524 13.763C25.1524 13.5033 25.2134 13.2741 25.2896 13.2283C25.3658 13.1824 25.4725 12.8921 25.5182 12.6018C25.5792 12.3115 25.6859 12.0671 25.7621 12.0671C25.8536 12.0671 25.9146 11.899 25.9146 11.6851C25.9146 11.4712 25.9908 11.3031 26.067 11.3031C26.1585 11.3031 26.2195 11.0892 26.2195 10.8294C26.2195 10.5697 26.3262 10.2641 26.4481 10.1419C26.5701 10.0044 26.6768 9.74463 26.6768 9.53073C26.6768 9.3321 26.753 9.16403 26.8292 9.16403C26.9207 9.16403 26.9817 8.99596 26.9817 8.78205C26.9817 8.56815 27.0579 8.40007 27.1341 8.40007C27.2256 8.40007 27.2865 8.24728 27.2865 8.04866C27.2865 7.85003 27.3932 7.55972 27.5152 7.39165C27.6371 7.23886 27.7438 6.918 27.7438 6.67353C27.7438 6.44435 27.8201 6.261 27.8963 6.261C27.9878 6.261 28.0487 6.09293 28.0487 5.87902C28.0487 5.66512 28.1097 5.49705 28.2012 5.49705C28.2774 5.49705 28.3841 5.25258 28.4451 4.96228C28.4908 4.67197 28.5975 4.42751 28.6737 4.42751C28.7499 4.42751 28.8109 4.22888 28.8109 3.98442C28.8109 3.72467 28.8719 3.49548 28.9481 3.43437C29.0243 3.38853 29.131 3.14407 29.192 2.8996C29.253 2.63985 29.3597 2.44123 29.4359 2.44123C29.5121 2.44123 29.5731 2.27316 29.5731 2.05925C29.5731 1.84534 29.6493 1.67727 29.7256 1.67727C29.817 1.67727 29.878 1.52448 29.878 1.32585C29.878 1.12722 29.939 0.913319 30.0152 0.821644C30.0914 0.745247 30.1981 0.531338 30.2591 0.33271C30.3658 -0.0492668 30.0762 -0.12566 29.7713 0.225758Z" fill="#5F6262"/>
<path d="M0 32.4644V55.4595H0.685974H1.37195V32.4644V9.46938H0.685974H0V32.4644Z" fill="#5F6262"/>
<path d="M8.90246 31.3949C8.75002 31.5172 8.49088 31.6241 8.35368 31.6241C8.20124 31.6241 8.07929 31.6852 8.07929 31.7769C8.07929 31.8533 8.00307 31.9297 7.91161 31.9297C7.82014 31.9297 7.65246 32.0214 7.53051 32.1436C7.40856 32.2658 7.3171 32.4339 7.3171 32.5256C7.3171 32.6173 7.25612 32.6937 7.16466 32.6937C7.08844 32.6937 6.98173 32.8617 6.92075 33.0756C6.87502 33.2895 6.76832 33.4576 6.6921 33.4576C6.61588 33.4576 6.5549 33.8702 6.5549 34.3744C6.5549 34.8786 6.61588 35.2911 6.6921 35.2911C6.75307 35.2911 6.936 35.5967 7.07319 35.9634C7.25612 36.4218 7.48478 36.7121 7.85063 36.9107C8.14027 37.0635 8.38417 37.2468 8.38417 37.3079C8.38417 37.3843 8.96344 37.4302 9.6799 37.4302C10.4421 37.4302 10.9756 37.3691 10.9756 37.2774C10.9756 37.1857 11.0823 37.1246 11.2043 37.1246C11.4939 37.1246 12.2866 36.3454 12.4238 35.9175C12.4695 35.7495 12.5915 35.5967 12.6829 35.5967C12.9116 35.5967 12.7744 33.1215 12.5305 33.0298C12.439 32.9992 12.3476 32.8465 12.3476 32.6784C12.3476 32.5256 12.2866 32.3881 12.1951 32.3881C12.1189 32.3881 12.0427 32.2811 12.0427 32.1589C12.0427 32.0367 11.9512 31.9297 11.8293 31.9297C11.7073 31.9297 11.5854 31.8839 11.5549 31.8075C11.4787 31.6394 10.0458 31.1658 9.58844 31.1658C9.37502 31.1658 9.07014 31.2727 8.90246 31.3949Z" fill="#5F6262"/>
</svg>
