<svg width="21" height="28" viewBox="0 0 21 28" fill="none" xmlns="http://www.w3.org/2000/svg">
<path d="M20.7196 7.02188C20.8986 7.20938 21 7.4625 21 7.72812V27C21 27.5531 20.5734 28 20.0455 28H0.954545C0.426562 28 0 27.5531 0 27V1C0 0.446875 0.426562 0 0.954545 0H13.6232C13.8767 0 14.1213 0.10625 14.3003 0.29375L20.7196 7.02188ZM18.7986 8.1875L13.1847 2.30625V8.1875H18.7986ZM14.1159 17.9144C13.6631 17.8988 13.1817 17.9353 12.6349 18.0069C11.91 17.5384 11.422 16.895 11.0754 15.9497L11.1073 15.8128L11.1443 15.6509C11.2726 15.0844 11.3415 14.6709 11.3621 14.2541C11.3776 13.9394 11.3609 13.6491 11.3075 13.38C11.209 12.7991 10.8168 12.4594 10.3225 12.4384C9.86165 12.4187 9.43807 12.6884 9.32979 13.1062C9.15349 13.7819 9.2567 14.6709 9.63047 16.1872C9.15439 17.3762 8.52528 18.7703 8.1032 19.5478C7.53972 19.8522 7.10092 20.1291 6.73223 20.4359C6.24601 20.8412 5.94234 21.2578 5.85882 21.6953C5.81825 21.8981 5.8794 22.1631 6.01871 22.3803C6.1768 22.6266 6.41484 22.7866 6.70031 22.8097C7.4207 22.8681 8.30604 22.09 9.28355 20.3328C9.38169 20.2984 9.4855 20.2622 9.61227 20.2172L9.96724 20.0916C10.1919 20.0122 10.3547 19.9553 10.5158 19.9006C11.2138 19.6625 11.7418 19.5122 12.2221 19.4266C13.0567 19.8947 14.0214 20.2016 14.6711 20.2016C15.2074 20.2016 15.5698 19.9103 15.7008 19.4519C15.8156 19.0494 15.7246 18.5825 15.4777 18.3244C15.2223 18.0616 14.7528 17.9359 14.1159 17.9144ZM6.71851 21.9275V21.9163L6.72239 21.9056C6.76603 21.7874 6.82206 21.6746 6.88943 21.5694C7.0171 21.3637 7.1928 21.1475 7.41055 20.9172C7.52749 20.7937 7.64919 20.6734 7.79207 20.5384C7.82399 20.5084 8.02803 20.3181 8.06621 20.2806L8.3994 19.9556L8.15719 20.3597C7.78969 20.9734 7.45739 21.4153 7.17281 21.7034C7.06811 21.8097 6.97594 21.8878 6.90136 21.9381C6.87674 21.9554 6.85069 21.9702 6.82351 21.9825C6.81128 21.9878 6.80054 21.9909 6.7898 21.9919C6.77846 21.9934 6.76695 21.9918 6.75639 21.9872C6.74516 21.9823 6.73558 21.974 6.72884 21.9633C6.7221 21.9527 6.7185 21.9403 6.71851 21.9275ZM10.4752 15.1063L10.4078 15.2313L10.3661 15.0944C10.2736 14.7872 10.2056 14.3244 10.1868 13.9069C10.1653 13.4319 10.2014 13.1469 10.3446 13.1469C10.5456 13.1469 10.6378 13.4844 10.645 13.9922C10.6515 14.4384 10.5844 14.9028 10.4749 15.1063H10.4752ZM10.3019 16.9331L10.3476 16.8066L10.4099 16.9253C10.7586 17.5891 11.2111 18.1428 11.7087 18.5287L11.8161 18.6119L11.6851 18.64C11.198 18.7456 10.7443 18.9044 10.1238 19.1666C10.1886 19.1391 9.47893 19.4434 9.29936 19.5156L9.14276 19.5784L9.22628 19.4259C9.59467 18.7541 9.93503 17.9472 10.3016 16.9331H10.3019ZM15.0037 19.3162C14.7692 19.4131 14.2645 19.3266 13.3759 18.9291L13.1504 18.8284L13.395 18.8097C14.09 18.7556 14.5822 18.7956 14.8691 18.9056C14.9914 18.9525 15.0729 19.0116 15.109 19.0791C15.128 19.111 15.1343 19.1495 15.1268 19.1863C15.1192 19.2231 15.0983 19.2553 15.0684 19.2763C15.0494 19.2938 15.0275 19.3073 15.0037 19.3162Z" fill="#096DD9"/>
</svg>
