<svg width="31" height="31" viewBox="0 0 31 31" fill="none" xmlns="http://www.w3.org/2000/svg">
<path d="M10.0388 3.15029L11.4287 2.70596C12.7333 2.29004 14.1244 2.963 14.6837 4.27792L15.7932 6.89742C16.2763 8.03796 16.0089 9.38 15.1293 10.2144L12.6829 12.5368C12.8327 13.9267 13.3003 15.2945 14.0831 16.6405C14.8268 17.9427 15.8243 19.0825 17.0164 19.9923L19.955 19.0107C21.0697 18.64 22.2826 19.0675 22.9646 20.0711L24.5572 22.409C25.3516 23.5767 25.2095 25.1861 24.2239 26.1755L23.1674 27.236C22.1159 28.2913 20.6137 28.6749 19.2252 28.2409C15.9456 27.2179 12.9309 24.1812 10.1796 19.1308C7.42452 14.0726 6.45189 9.77913 7.26306 6.25546C7.60406 4.77263 8.65935 3.59075 10.0388 3.15029Z" fill="#333333"/>
</svg>
