<svg width="21" height="28" viewBox="0 0 21 28" fill="none" xmlns="http://www.w3.org/2000/svg">
<path d="M20.7196 7.02188C20.8986 7.20938 21 7.4625 21 7.72812V27C21 27.5531 20.5734 28 20.0455 28H0.954545C0.426562 28 0 27.5531 0 27V1C0 0.446875 0.426562 0 0.954545 0H13.6232C13.8767 0 14.1213 0.10625 14.3003 0.29375L20.7196 7.02188ZM18.7986 8.1875L13.1847 2.30625V8.1875H18.7986ZM6.71851 21.9275V21.9163L6.72239 21.9056C6.76603 21.7874 6.82206 21.6746 6.88943 21.5694C7.0171 21.3637 7.1928 21.1475 7.41055 20.9172C7.52749 20.7937 7.64919 20.6734 7.79207 20.5384C7.82399 20.5084 8.02802 20.3181 8.06621 20.2806L8.3994 19.9556L8.15719 20.3597C7.78969 20.9734 7.45739 21.4153 7.17281 21.7034C7.06811 21.8097 6.97594 21.8878 6.90136 21.9381C6.87674 21.9554 6.85069 21.9702 6.82351 21.9825C6.81128 21.9878 6.80054 21.9909 6.7898 21.9919C6.77846 21.9934 6.76695 21.9918 6.75639 21.9872C6.74516 21.9823 6.73558 21.974 6.72884 21.9633C6.7221 21.9527 6.7185 21.9403 6.71851 21.9275ZM10.4752 15.1063L10.4078 15.2313L10.3661 15.0944C10.2736 14.7872 10.2056 14.3244 10.1868 13.9069C10.1653 13.4319 10.2014 13.1469 10.3446 13.1469C10.5456 13.1469 10.6378 13.4844 10.645 13.9922C10.6515 14.4384 10.5847 14.9028 10.4752 15.1063ZM15.0037 19.3162C14.7692 19.4131 14.2645 19.3266 13.3759 18.9291L13.1504 18.8284L13.395 18.8097C14.09 18.7556 14.5822 18.7956 14.8691 18.9056C14.9914 18.9525 15.0729 19.0116 15.109 19.0791C15.128 19.111 15.1343 19.1495 15.1268 19.1863C15.1192 19.2231 15.0983 19.2553 15.0684 19.2763C15.0494 19.2938 15.0275 19.3073 15.0037 19.3162Z" fill="#096DD9"/>
<path d="M8.36274 15.4615C8.36274 15.7212 8.34055 15.9656 8.29618 16.1948C8.25402 16.4217 8.18858 16.629 8.09984 16.8167C8.01332 17.0044 7.9035 17.1713 7.77039 17.3175C7.6395 17.4637 7.4842 17.5848 7.3045 17.6808L8.50583 19H7.18137L6.28952 17.9198C6.27399 17.9198 6.25957 17.9209 6.24626 17.9231C6.23517 17.9253 6.22297 17.9263 6.20966 17.9263C6.19856 17.9263 6.18858 17.9263 6.17971 17.9263C5.80699 17.9263 5.48309 17.8674 5.20799 17.7496C4.93511 17.6317 4.70882 17.4648 4.52912 17.2488C4.35164 17.0327 4.21852 16.773 4.12978 16.4697C4.04326 16.1642 4 15.826 4 15.455C4 15.084 4.04326 14.748 4.12978 14.4468C4.21852 14.1435 4.35275 13.8849 4.53244 13.671C4.71215 13.4572 4.93844 13.2924 5.21132 13.1768C5.48641 13.0589 5.81143 13 6.18636 13C6.55907 13 6.88187 13.0589 7.15474 13.1768C7.42763 13.2924 7.65281 13.4583 7.83029 13.6743C8.00999 13.8882 8.1431 14.1468 8.22963 14.4501C8.31837 14.7512 8.36274 15.0884 8.36274 15.4615ZM5.06156 15.4615C5.06156 15.7125 5.08375 15.9384 5.12813 16.1391C5.17249 16.3377 5.24015 16.5068 5.33112 16.6465C5.4243 16.784 5.54077 16.8898 5.68054 16.964C5.8203 17.0382 5.98669 17.0753 6.17971 17.0753C6.37715 17.0753 6.54577 17.0382 6.68553 16.964C6.82752 16.8898 6.94288 16.784 7.03162 16.6465C7.12258 16.5068 7.18914 16.3377 7.23129 16.1391C7.27566 15.9384 7.29784 15.7125 7.29784 15.4615C7.29784 15.2106 7.27566 14.9858 7.23129 14.7872C7.18914 14.5865 7.12258 14.4163 7.03162 14.2766C6.94288 14.1369 6.82862 14.03 6.68886 13.9558C6.54909 13.8816 6.38159 13.8445 6.18636 13.8445C5.99335 13.8445 5.82585 13.8816 5.68386 13.9558C5.54188 14.03 5.4243 14.1369 5.33112 14.2766C5.24015 14.4163 5.17249 14.5865 5.12813 14.7872C5.08375 14.9858 5.06156 15.2106 5.06156 15.4615ZM11.5375 13.0753L9.7238 17.8609H8.80201L10.6157 13.0753H11.5375ZM14.9584 17.8609L14.6257 16.7218H12.9484L12.6123 17.8609H11.5707L13.1514 13.0556H14.4126L16 17.8609H14.9584ZM14.3861 15.8707L14.0732 14.8232C14.0599 14.784 14.0399 14.7196 14.0133 14.6301C13.9867 14.5406 13.9579 14.4424 13.9268 14.3355C13.898 14.2264 13.8702 14.1173 13.8436 14.0082C13.817 13.8991 13.7981 13.8063 13.7871 13.73C13.7781 13.778 13.7659 13.8347 13.7504 13.9002C13.7371 13.9656 13.7205 14.0355 13.7005 14.1097C13.6828 14.1817 13.6639 14.2548 13.6439 14.329C13.624 14.4032 13.6051 14.473 13.5874 14.5385C13.5697 14.6039 13.553 14.6618 13.5375 14.7119C13.5241 14.7621 13.5141 14.7992 13.5075 14.8232L13.198 15.8707H14.3861Z" fill="white"/>
<path d="M15.5 21H5.5C5.22386 21 5 21.2239 5 21.5C5 21.7761 5.22386 22 5.5 22H15.5C15.7761 22 16 21.7761 16 21.5C16 21.2239 15.7761 21 15.5 21Z" fill="white"/>
<path d="M13.5 23H7.5C7.22386 23 7 23.2239 7 23.5C7 23.7761 7.22386 24 7.5 24H13.5C13.7761 24 14 23.7761 14 23.5C14 23.2239 13.7761 23 13.5 23Z" fill="white"/>
</svg>
