<svg width="30" height="30" viewBox="0 0 30 30" fill="none" xmlns="http://www.w3.org/2000/svg">
<path d="M7 19.75C5.34549 19.75 4 21.0955 4 22.75C4 24.4045 5.34549 25.75 7 25.75C8.65451 25.75 10 24.4045 10 22.75C10 21.0955 8.65445 19.75 7 19.75ZM7 24.75C5.89697 24.75 5.00002 23.853 5.00002 22.75C5.00002 21.647 5.89703 20.75 7 20.75C8.10297 20.75 8.99998 21.647 8.99998 22.75C8.99998 23.853 8.10297 24.75 7 24.75Z" fill="#5F6262"/>
<path d="M24 19.75C22.3455 19.75 21 21.0955 21 22.75C21 24.4045 22.3455 25.75 24 25.75C25.6545 25.75 27 24.4045 27 22.75C27 21.0955 25.6545 19.75 24 19.75ZM24 24.75C22.897 24.75 22 23.853 22 22.75C22 21.647 22.897 20.75 24 20.75C25.103 20.75 26 21.647 26 22.75C26 23.853 25.103 24.75 24 24.75Z" fill="#5F6262"/>
<path d="M29.9205 16.9795L25.4205 9.97951C25.3285 9.83648 25.17 9.75 24.9999 9.75H19.5C19.2235 9.75 19 9.974 19 10.25V22.75C19 23.0265 19.2235 23.2499 19.5 23.2499H21.5V22.2499H20V10.75H24.727L29 17.397V22.25H26.4999V23.25H29.4999C29.7764 23.25 29.9999 23.0265 29.9999 22.75V17.25C30 17.1545 29.9725 17.06 29.9205 16.9795Z" fill="#5F6262"/>
<path d="M22 16.25V12.75H26V11.75H21.5C21.2235 11.75 21.0001 11.974 21.0001 12.25V16.75C21.0001 17.0265 21.2235 17.25 21.5 17.25H29V16.2499H22V16.25Z" fill="#5F6262"/>
<path d="M19.5 6.25H0.49998C0.224004 6.25 0 6.474 0 6.74998V22.75C0 23.0265 0.224004 23.25 0.49998 23.25H4.5V22.25H1.00002V7.24996H19V22.25H9.49998V23.25H19.5C19.7765 23.25 20 23.0265 20 22.75V6.74998C20 6.474 19.7765 6.25 19.5 6.25Z" fill="#5F6262"/>
<path d="M3.5 20.25H0.5V21.25H3.5V20.25Z" fill="#5F6262"/>
<path d="M19 20.25H10.5V21.25H19V20.25Z" fill="#5F6262"/>
<path d="M29.5 20.25H27.5V21.25H29.5V20.25Z" fill="#5F6262"/>
<path d="M19.5 8.25H2V9.25002H19.5V8.25Z" fill="#5F6262"/>
<path d="M7.50002 22.25H6.5V23.25H7.50002V22.25Z" fill="#5F6262"/>
<path d="M24.5 22.25H23.5V23.25H24.5V22.25Z" fill="#5F6262"/>
<path d="M9.00002 4.25H2V5.25002H9.00002V4.25Z" fill="#5F6262"/>
<path d="M1.00002 4.25H0V5.25002H1.00002V4.25Z" fill="#5F6262"/>
<path d="M13.9148 10.3612C13.7308 10.3612 13.5815 10.5105 13.5815 10.6945V10.9723C12.8655 10.348 11.9523 10 10.9792 10C8.78499 10 7 11.7915 7 13.9933C7 14.1773 7.14933 14.3267 7.33333 14.3267C7.51733 14.3267 7.66666 14.1773 7.66666 13.9933C7.66666 12.159 9.15266 10.6667 10.9792 10.6667C11.7803 10.6667 12.533 10.9503 13.1263 11.4598H12.8208C12.6368 11.4598 12.4875 11.6092 12.4875 11.7932C12.4875 11.9772 12.6368 12.1265 12.8208 12.1265H13.9148C14.0988 12.1265 14.2481 11.9772 14.2481 11.7932V10.6945C14.2481 10.5105 14.0988 10.3612 13.9148 10.3612Z" fill="#5F6262"/>
<path d="M14.6668 13.6738C14.4828 13.6738 14.3334 13.8232 14.3334 14.0072C14.3334 15.8415 12.8474 17.3338 11.0209 17.3338C10.2291 17.3338 9.48444 17.0571 8.89444 16.5588H9.2146C9.3986 16.5588 9.54794 16.4095 9.54794 16.2255C9.54794 16.0415 9.3986 15.8922 9.2146 15.8922H8.12044C8.11744 15.8922 8.11477 15.893 8.11194 15.893C8.09927 15.8933 8.08677 15.895 8.07411 15.8968C8.06478 15.8982 8.05544 15.899 8.04628 15.9012C8.03528 15.9037 8.02444 15.9077 8.01361 15.9113C8.00361 15.9148 7.99344 15.9178 7.98378 15.9222C7.97461 15.9263 7.96594 15.9317 7.95711 15.9367C7.94661 15.9427 7.93628 15.9485 7.92644 15.9555C7.92394 15.9573 7.92111 15.9583 7.91861 15.9603C7.91294 15.9647 7.90861 15.97 7.90328 15.9747C7.89444 15.9823 7.88561 15.99 7.87761 15.9987C7.87011 16.0067 7.86361 16.015 7.85711 16.0235C7.85061 16.032 7.84428 16.0405 7.83844 16.0495C7.83261 16.0588 7.82761 16.0685 7.82278 16.0782C7.81794 16.0877 7.81344 16.0973 7.80961 16.1073C7.80578 16.1177 7.80278 16.128 7.79994 16.1387C7.79728 16.1488 7.79444 16.159 7.79278 16.1695C7.79078 16.1813 7.78994 16.1932 7.78911 16.2052C7.78861 16.212 7.78711 16.2187 7.78711 16.2257V17.3243C7.78711 17.5083 7.93644 17.6576 8.12044 17.6576C8.30444 17.6576 8.45377 17.5083 8.45377 17.3243V17.0593C9.16427 17.6641 10.0638 18.0005 11.0209 18.0005C13.2151 18.0005 15.0001 16.209 15.0001 14.0072C15.0001 13.8232 14.8508 13.6738 14.6668 13.6738Z" fill="#5F6262"/>
</svg>
