<svg width="29" height="29" viewBox="0 0 29 29" fill="none" xmlns="http://www.w3.org/2000/svg">
<path d="M23.1134 20.1278C23.0461 20.1277 22.98 20.1103 22.9215 20.0773C22.8629 20.0443 22.8137 19.9968 22.7788 19.9393C22.7439 19.8819 22.7244 19.8164 22.7221 19.7492C22.7198 19.682 22.7349 19.6153 22.7658 19.5556C22.9433 19.2123 23.0969 18.8847 23.2361 18.5547C23.2777 18.4613 23.3541 18.3878 23.4491 18.35C23.5441 18.3122 23.6502 18.3131 23.7446 18.3523C23.839 18.3916 23.9143 18.4662 23.9545 18.5603C23.9946 18.6543 23.9964 18.7603 23.9595 18.8557C23.8141 19.206 23.6519 19.5528 23.4637 19.9161C23.4305 19.9803 23.3802 20.034 23.3184 20.0713C23.2566 20.1087 23.1856 20.1282 23.1134 20.1278Z" fill="#5F6262"/>
<path d="M14.5 28.2162C14.4386 28.2161 14.3781 28.2017 14.3232 28.1742C7.80607 24.8851 3.91498 19.3676 3.91498 13.4144V5.48645C3.915 5.43163 3.92652 5.37742 3.94879 5.32734C3.97107 5.27725 4.00361 5.23239 4.0443 5.19566C4.08512 5.15909 4.13309 5.1314 4.18516 5.11433C4.23724 5.09726 4.2923 5.0912 4.34684 5.09651C8.22226 5.49546 11.5377 4.09092 14.1998 0.923257C14.2362 0.880012 14.2815 0.845153 14.3327 0.821071C14.3838 0.79699 14.4395 0.784256 14.4961 0.783744C14.5527 0.782811 14.6088 0.794332 14.6605 0.817492C14.7121 0.840653 14.7581 0.874887 14.7951 0.917771C17.1335 3.59243 20.4665 4.99737 24.7021 5.09455C24.8045 5.09691 24.9018 5.13924 24.9734 5.21248C25.0449 5.28572 25.085 5.38405 25.085 5.48645V11.9409C25.085 12.0448 25.0437 12.1445 24.9702 12.218C24.8967 12.2915 24.797 12.3328 24.6931 12.3328C24.5891 12.3328 24.4895 12.2915 24.416 12.218C24.3425 12.1445 24.3012 12.0448 24.3012 11.9409V5.86658C20.193 5.69611 16.9019 4.31861 14.507 1.767C11.8187 4.79241 8.52245 6.18441 4.69876 5.914V13.4144C4.69876 19.0122 8.35864 24.2224 14.5 27.3842C17.1486 26.0597 19.4732 24.1687 21.3091 21.8452C21.3404 21.8043 21.3794 21.77 21.4239 21.7442C21.4684 21.7183 21.5176 21.7016 21.5686 21.6948C21.6197 21.688 21.6715 21.6913 21.7213 21.7045C21.771 21.7177 21.8176 21.7406 21.8585 21.7719C21.8994 21.8032 21.9337 21.8422 21.9596 21.8867C21.9854 21.9312 22.0022 21.9804 22.009 22.0314C22.0158 22.0825 22.0125 22.1343 21.9992 22.1841C21.986 22.2338 21.9631 22.2805 21.9318 22.3213C19.9814 24.7901 17.5022 26.7901 14.6767 28.1742C14.6219 28.2017 14.5613 28.2161 14.5 28.2162Z" fill="#5F6262"/>
<path d="M24.4231 16.4674C24.3968 16.4675 24.3705 16.4649 24.3447 16.4595C24.2428 16.4392 24.1532 16.3792 24.0955 16.2928C24.0378 16.2064 24.0168 16.1006 24.0371 15.9987C24.1155 15.6181 24.175 15.2294 24.2205 14.8426C24.2256 14.7907 24.2409 14.7404 24.2657 14.6945C24.2904 14.6487 24.3241 14.6082 24.3646 14.5755C24.4052 14.5428 24.4519 14.5186 24.5019 14.5041C24.552 14.4897 24.6045 14.4854 24.6562 14.4914C24.708 14.4975 24.758 14.5138 24.8033 14.5395C24.8487 14.5651 24.8885 14.5995 24.9204 14.6407C24.9523 14.6819 24.9757 14.7291 24.9891 14.7794C25.0026 14.8298 25.0059 14.8823 24.9988 14.9339C24.951 15.3415 24.8859 15.7514 24.8056 16.1523C24.7879 16.2408 24.7402 16.3205 24.6705 16.378C24.6008 16.4354 24.5134 16.467 24.4231 16.4674Z" fill="#5F6262"/>
<path d="M14.5 25.6512C14.4327 25.6513 14.3665 25.6338 14.308 25.6007C9.193 22.7258 6.13977 18.1877 6.13977 13.4607V7.7355C6.13967 7.63455 6.17853 7.53745 6.24825 7.46445C6.31797 7.39144 6.41318 7.34815 6.51403 7.34361C9.42045 7.21757 12.1815 6.03732 14.2809 4.0235C14.3511 3.95844 14.4426 3.92129 14.5383 3.91905C14.6339 3.91681 14.7271 3.94965 14.8002 4.01135C16.9974 5.81159 19.6841 6.91122 22.513 7.16804C22.6086 7.17892 22.6969 7.22459 22.761 7.29635C22.8251 7.36812 22.8606 7.46096 22.8606 7.55719V13.4603C22.8606 18.1873 19.807 22.7258 14.692 25.6007C14.6335 25.6338 14.5673 25.6513 14.5 25.6512ZM6.92355 8.10506V13.4607C6.92355 17.8416 9.75145 22.0697 14.5 24.8071C19.249 22.0689 22.0768 17.84 22.0768 13.4591V7.90362C19.3352 7.59264 16.7333 6.52837 14.5596 4.82884C12.4542 6.7472 9.76452 7.9012 6.92355 8.10506Z" fill="#5F6262"/>
<path d="M12.7879 17.9925C12.6839 17.9925 12.5843 17.9512 12.5108 17.8777L10.304 15.6709C10.2327 15.597 10.1932 15.498 10.194 15.3953C10.1949 15.2925 10.2362 15.1942 10.3088 15.1216C10.3815 15.0489 10.4798 15.0077 10.5825 15.0068C10.6853 15.0059 10.7843 15.0454 10.8582 15.1168L12.7879 17.0473L18.1419 11.6921C18.1783 11.6556 18.2215 11.6268 18.269 11.607C18.3166 11.5873 18.3675 11.5772 18.419 11.5771C18.4705 11.5771 18.5214 11.5873 18.569 11.6069C18.6166 11.6266 18.6598 11.6555 18.6962 11.6919C18.7326 11.7282 18.7615 11.7714 18.7812 11.819C18.8009 11.8665 18.8111 11.9175 18.8111 11.969C18.8111 12.0205 18.801 12.0714 18.7813 12.119C18.7616 12.1666 18.7328 12.2098 18.6964 12.2462L13.0649 17.8777C12.9914 17.9512 12.8918 17.9925 12.7879 17.9925Z" fill="#5F6262"/>
</svg>
