<svg width="30" height="30" viewBox="0 0 30 30" fill="none" xmlns="http://www.w3.org/2000/svg">
<g clip-path="url(#clip0)">
<path d="M5.85811 23.311C4.70246 23.311 3.76227 24.2512 3.76227 25.4069C3.76227 26.5625 4.70246 27.5027 5.85811 27.5027C7.01381 27.5027 7.95395 26.5625 7.95395 25.4069C7.95395 24.2512 7.01381 23.311 5.85811 23.311ZM5.85811 26.6246C5.18668 26.6246 4.64041 26.0784 4.64041 25.4069C4.64041 24.7355 5.18668 24.1892 5.85811 24.1892C6.52959 24.1892 7.0758 24.7355 7.0758 25.4069C7.0758 26.0784 6.52959 26.6246 5.85811 26.6246Z" fill="#5F6262"/>
<path d="M14.0486 25.4069C14.0486 24.2512 13.1084 23.311 11.9527 23.311C10.7971 23.311 9.85687 24.2512 9.85687 25.4069C9.85687 26.5625 10.7971 27.5027 11.9527 27.5027C13.1084 27.5027 14.0486 26.5625 14.0486 25.4069ZM10.735 25.4069C10.735 24.7354 11.2813 24.1892 11.9527 24.1892C12.6242 24.1892 13.1704 24.7354 13.1704 25.4069C13.1704 26.0783 12.6241 26.6246 11.9527 26.6246C11.2812 26.6246 10.735 26.0783 10.735 25.4069Z" fill="#5F6262"/>
<path d="M20.1432 25.4069C20.1432 24.2512 19.203 23.311 18.0473 23.311C16.8917 23.311 15.9515 24.2512 15.9515 25.4069C15.9515 26.5625 16.8917 27.5027 18.0473 27.5027C19.203 27.5027 20.1432 26.5625 20.1432 25.4069ZM16.8296 25.4069C16.8296 24.7354 17.3758 24.1892 18.0473 24.1892C18.7187 24.1892 19.265 24.7354 19.265 25.4069C19.265 26.0783 18.7187 26.6246 18.0473 26.6246C17.3758 26.6246 16.8296 26.0783 16.8296 25.4069Z" fill="#5F6262"/>
<path d="M26.2378 25.4069C26.2378 24.2512 25.2976 23.311 24.1419 23.311C22.9862 23.311 22.0461 24.2512 22.0461 25.4069C22.0461 26.5625 22.9863 27.5027 24.1419 27.5027C25.2976 27.5027 26.2378 26.5625 26.2378 25.4069ZM22.9242 25.4069C22.9242 24.7354 23.4705 24.1892 24.1419 24.1892C24.8133 24.1892 25.3596 24.7354 25.3596 25.4069C25.3596 26.0783 24.8133 26.6246 24.1419 26.6246C23.4704 26.6246 22.9242 26.0783 22.9242 25.4069Z" fill="#5F6262"/>
<path d="M25.4147 20.8211H21.2498V19.0802C21.2498 18.8377 21.0532 18.6411 20.8107 18.6411C20.5682 18.6411 20.3716 18.8377 20.3716 19.0802V20.8211H8.28522V8.75442C8.28522 8.74358 8.29406 8.73467 8.30496 8.73467H12.3416V11.7384C12.3416 11.9883 12.4689 12.2153 12.6822 12.3456C12.7966 12.4155 12.9246 12.4507 13.0529 12.4507C13.1638 12.4507 13.2749 12.4245 13.378 12.3716L14.3285 11.8845L15.2788 12.3716C15.5013 12.4858 15.7614 12.476 15.9747 12.3456C16.188 12.2153 16.3153 11.9883 16.3153 11.7384V8.73467H20.352C20.3628 8.73467 20.3717 8.74352 20.3717 8.75442V17.0492C20.3717 17.2917 20.5683 17.4883 20.8108 17.4883C21.0533 17.4883 21.2499 17.2917 21.2499 17.0492V15.9299H22.0638C22.593 15.9299 23.0237 15.4993 23.0237 14.97V13.8843C23.0237 13.8505 23.0441 13.8197 23.0733 13.8094C23.2765 13.7376 23.478 13.6541 23.6723 13.5614C23.7011 13.5479 23.7366 13.5549 23.7608 13.5791L24.5285 14.3468C24.9027 14.7209 25.5116 14.7209 25.8858 14.3468L27.3833 12.8494C27.7575 12.4751 27.7575 11.8662 27.3833 11.4919L26.6156 10.7243C26.5914 10.7001 26.5843 10.6645 26.598 10.6358C26.6907 10.4415 26.7741 10.24 26.8459 10.0369C26.8563 10.0076 26.8871 9.98711 26.9208 9.98711H28.0066C28.5358 9.98711 28.9664 9.5565 28.9664 9.02723V6.90953C28.9664 6.38031 28.5359 5.94971 28.0066 5.94971H26.9208C26.887 5.94971 26.8562 5.92926 26.8459 5.90002C26.7741 5.69682 26.6907 5.49531 26.598 5.30107C26.5843 5.27231 26.5914 5.23674 26.6156 5.21254L27.3833 4.4449C27.7575 4.07066 27.7575 3.4617 27.3833 3.08746L25.8858 1.59004C25.5116 1.21592 24.9027 1.21592 24.5285 1.59004L23.7607 2.35768C23.7364 2.38193 23.7008 2.38914 23.6721 2.37531C23.478 2.28273 23.2766 2.19941 23.0732 2.1274C23.0439 2.11703 23.0235 2.08621 23.0235 2.05246V0.966719C23.0235 0.4375 22.5929 0.00683594 22.0637 0.00683594H19.946C19.4167 0.00683594 18.9861 0.437441 18.9861 0.966719V2.0524C18.9861 2.08621 18.9657 2.11703 18.9363 2.1274C18.7329 2.1993 18.5315 2.28273 18.3374 2.37531C18.3087 2.38891 18.2732 2.38188 18.2489 2.35762L17.4813 1.58998C17.107 1.21586 16.4981 1.21586 16.1239 1.58998L14.6265 3.0874C14.2522 3.46164 14.2522 4.07061 14.6265 4.44484L15.3942 5.21248C15.4184 5.23674 15.4254 5.27231 15.4117 5.30096C15.3192 5.49502 15.2358 5.69647 15.1638 5.8999C15.1535 5.9292 15.1226 5.94965 15.0889 5.94965H14.0031C13.4739 5.94965 13.0433 6.3802 13.0433 6.90947V7.85646H8.30496C7.80984 7.85646 7.40707 8.25924 7.40707 8.75436V20.821H4.58531C2.05693 20.8211 0 22.878 0 25.4064C0 27.9348 2.05693 29.9917 4.58531 29.9917H6.59197C6.83449 29.9917 7.03107 29.7951 7.03107 29.5526C7.03107 29.3101 6.83449 29.1135 6.59197 29.1135H4.58531C2.54121 29.1135 0.878145 27.4505 0.878145 25.4064C0.878145 23.3623 2.54115 21.6992 4.58531 21.6992H25.4147C27.4588 21.6992 29.1219 23.3622 29.1219 25.4064C29.1219 27.4505 27.4588 29.1135 25.4147 29.1135H8.62986C8.38734 29.1135 8.19076 29.3101 8.19076 29.5526C8.19076 29.7951 8.38734 29.9917 8.62986 29.9917H25.4147C27.9431 29.9917 30 27.9348 30 25.4064C30 22.878 27.9431 20.8211 25.4147 20.8211ZM20.3519 7.85652H17.7531C17.8124 6.11359 19.2478 4.71379 21.0049 4.71379C22.7995 4.71379 24.2595 6.17377 24.2595 7.96844C24.2595 9.68055 22.9303 11.0871 21.2498 11.2129V8.75442C21.2498 8.2593 20.847 7.85652 20.3519 7.85652ZM13.9215 6.90953C13.9215 6.86453 13.9581 6.82791 14.0031 6.82791H15.0889C15.4946 6.82791 15.8575 6.57262 15.9918 6.19275C16.0535 6.01832 16.1249 5.84553 16.2043 5.67924C16.3778 5.31543 16.3018 4.87832 16.015 4.59162L15.2474 3.82398C15.2156 3.79223 15.2156 3.74037 15.2474 3.70855L16.7448 2.21113C16.7767 2.17932 16.8285 2.1792 16.8603 2.21113L17.628 2.97877C17.9147 3.26553 18.3518 3.34152 18.7155 3.16803C18.882 3.08869 19.0547 3.01715 19.2291 2.95545C19.609 2.82121 19.8643 2.45834 19.8643 2.05252V0.966719C19.8643 0.92166 19.901 0.885039 19.946 0.885039H22.0637C22.1087 0.885039 22.1453 0.92166 22.1453 0.966719V2.0524C22.1453 2.45822 22.4006 2.82109 22.7804 2.95527C22.9549 3.01703 23.1277 3.08852 23.294 3.16785C23.6578 3.34141 24.0948 3.26541 24.3816 2.97865L25.1493 2.21102C25.1811 2.17908 25.2329 2.1792 25.2647 2.21102L26.7622 3.70844C26.794 3.74025 26.794 3.79211 26.7622 3.82387L25.9945 4.5915C25.7078 4.8782 25.6317 5.31531 25.8053 5.67912C25.8847 5.84564 25.9562 6.01844 26.0178 6.19264C26.1521 6.57256 26.515 6.82779 26.9207 6.82779H28.0065C28.0515 6.82779 28.0881 6.86441 28.0881 6.90941V9.02711C28.0881 9.07217 28.0515 9.10879 28.0065 9.10879H26.9207C26.515 9.10879 26.1521 9.36408 26.0178 9.744C25.9562 9.91815 25.8847 10.0909 25.8053 10.2575C25.6317 10.6212 25.7078 11.0583 25.9945 11.3451L26.7622 12.1127C26.794 12.1445 26.794 12.1963 26.7622 12.2281L25.2647 13.7256C25.2329 13.7574 25.1811 13.7575 25.1493 13.7256L24.3816 12.958C24.0949 12.6712 23.6578 12.5951 23.2941 12.7687C23.1275 12.8481 22.9547 12.9196 22.7804 12.9812C22.4005 13.1155 22.1453 13.4784 22.1453 13.8841V14.9699C22.1453 15.0149 22.1087 15.0515 22.0636 15.0515H21.2497V12.0931C23.4148 11.9658 25.1375 10.1647 25.1375 7.9682C25.1375 5.68938 23.2835 3.83541 21.0047 3.83541C18.7635 3.83541 16.9345 5.62914 16.8748 7.85629H13.9214V6.90953H13.9215ZM13.2197 8.73467H15.4371V11.466L14.6531 11.0642C14.4499 10.9599 14.2071 10.9599 14.0037 11.0642L13.2197 11.466V8.73467Z" fill="#5F6262"/>
<path d="M12.1446 16.2422C11.7576 16.2422 11.4427 16.557 11.4427 16.944V18.8182C11.4427 19.2052 11.7576 19.52 12.1446 19.52H16.5122C16.8992 19.52 17.2141 19.2052 17.2141 18.8182V16.944C17.2141 16.557 16.8992 16.2422 16.5122 16.2422H12.1446ZM16.3359 18.6418H12.321V17.1203H16.3359V18.6418Z" fill="#5F6262"/>
</g>
<defs>
<clipPath id="clip0">
<rect width="30" height="30" fill="white"/>
</clipPath>
</defs>
</svg>
