<svg width="30" height="30" viewBox="0 0 30 30" fill="none" xmlns="http://www.w3.org/2000/svg">
<path d="M2.57812 17.3882C2.48488 17.3882 2.39546 17.4252 2.32953 17.4912C2.2636 17.5571 2.22656 17.6465 2.22656 17.7397V18.1089C2.22656 18.2021 2.2636 18.2915 2.32953 18.3575C2.39546 18.4234 2.48488 18.4604 2.57812 18.4604C2.67137 18.4604 2.76079 18.4234 2.82672 18.3575C2.89265 18.2915 2.92969 18.2021 2.92969 18.1089V17.7397C2.92969 17.6465 2.89265 17.5571 2.82672 17.4912C2.76079 17.4252 2.67137 17.3882 2.57812 17.3882Z" fill="#5F6262"/>
<path d="M2.57812 18.8706C2.48488 18.8706 2.39546 18.9076 2.32953 18.9736C2.2636 19.0395 2.22656 19.1289 2.22656 19.2222V23.0894C2.22656 23.1826 2.2636 23.272 2.32953 23.3379C2.39546 23.4039 2.48488 23.4409 2.57812 23.4409C2.67137 23.4409 2.76079 23.4039 2.82672 23.3379C2.89265 23.272 2.92969 23.1826 2.92969 23.0894V19.2222C2.92969 19.1289 2.89265 19.0395 2.82672 18.9736C2.76079 18.9076 2.67137 18.8706 2.57812 18.8706Z" fill="#5F6262"/>
<path d="M29.0115 13.477H26.7187V1.91008C26.7213 1.86664 26.7147 1.82314 26.6993 1.78243C26.684 1.74171 26.6602 1.70469 26.6296 1.67378C26.599 1.64286 26.5622 1.61875 26.5216 1.60301C26.481 1.58727 26.4376 1.58025 26.3941 1.58242H13.5972C13.5512 1.58022 13.5051 1.58739 13.4619 1.6035C13.4186 1.61962 13.3791 1.64434 13.3457 1.67617L10.9434 4.12826C10.9112 4.15946 10.8855 4.19671 10.8677 4.23786C10.8499 4.27901 10.8405 4.32327 10.8398 4.36808V13.477H3.37498C3.32906 13.4763 3.28344 13.4847 3.24078 13.5017C3.19812 13.5187 3.15926 13.544 3.12643 13.5761L0.737094 15.9736C0.705931 16.0065 0.681679 16.0452 0.665776 16.0876C0.649873 16.13 0.642643 16.1751 0.644515 16.2203V28.0907C0.642643 28.1345 0.649944 28.1782 0.665949 28.219C0.681954 28.2598 0.706311 28.2968 0.737458 28.3277C0.768605 28.3585 0.805855 28.3825 0.846819 28.3982C0.887783 28.4138 0.931557 28.4207 0.975336 28.4184H26.625C26.6704 28.4205 26.7158 28.4136 26.7585 28.398C26.8012 28.3823 26.8403 28.3583 26.8735 28.3273L29.2629 25.934C29.294 25.902 29.3183 25.864 29.3342 25.8222C29.3501 25.7805 29.3573 25.736 29.3555 25.6914V13.8209C29.3555 13.7297 29.3192 13.6422 29.2547 13.5777C29.1902 13.5132 29.1027 13.477 29.0115 13.477ZM25.5454 2.28555L23.849 3.98476H18.4449L20.1412 2.28555H25.5454ZM26.0156 2.75881V13.6348L24.375 15.3312V4.4551L26.0156 2.75881ZM19.043 4.68789V6.15273H16.1719V4.68789H19.043ZM13.7452 2.28555H19.1469L17.4506 3.98476H12.0892L13.7452 2.28555ZM11.543 4.68789H15.4687V6.5241C15.4669 6.56818 15.4743 6.61215 15.4904 6.65324C15.5064 6.69432 15.5308 6.73163 15.562 6.76281C15.5932 6.79399 15.6306 6.81835 15.6717 6.83437C15.7128 6.85038 15.7568 6.8577 15.8008 6.85586H19.4059C19.4504 6.85785 19.4948 6.8507 19.5364 6.83485C19.578 6.81899 19.616 6.79477 19.6478 6.76367C19.6797 6.73258 19.7049 6.69528 19.7218 6.65407C19.7387 6.61286 19.747 6.56863 19.7461 6.5241V4.68789H23.6719V15.8793H19.6289V12.9551C19.63 12.8852 19.6099 12.8166 19.5713 12.7583C19.5326 12.7 19.4773 12.6547 19.4124 12.6285C19.3476 12.6023 19.2763 12.5964 19.208 12.6115C19.1397 12.6266 19.0776 12.662 19.0298 12.7131L18.731 13.0295L18.4172 12.7063C18.3848 12.6725 18.3459 12.6455 18.3029 12.627C18.2599 12.6084 18.2136 12.5985 18.1667 12.598H18.1658C18.1187 12.5986 18.0722 12.6086 18.0291 12.6274C17.9859 12.6462 17.9469 12.6734 17.9144 12.7075L17.6034 13.0294L17.2923 12.7068C17.2598 12.6728 17.2208 12.6457 17.1777 12.627C17.1345 12.6083 17.088 12.5985 17.041 12.598H17.04C16.9931 12.5986 16.9468 12.6084 16.9037 12.6269C16.8606 12.6455 16.8216 12.6725 16.789 12.7062L16.4747 13.028L16.1744 12.7124C16.1279 12.6615 16.0668 12.6262 15.9995 12.6112C15.9322 12.5961 15.8619 12.6021 15.7981 12.6283C15.7339 12.6549 15.6792 12.7004 15.6413 12.7587C15.6034 12.8171 15.5841 12.8856 15.5859 12.9551V15.8793H11.543V4.68789ZM18.8086 16.5824H21.6797V18.1059H18.8086V16.5824ZM16.289 15.8793V13.8251C16.3436 13.8646 16.4091 13.8863 16.4765 13.8871C16.523 13.8868 16.5689 13.8773 16.6117 13.8592C16.6545 13.8411 16.6933 13.8148 16.7259 13.7816L17.0407 13.4584L17.3521 13.7806C17.3847 13.8144 17.4239 13.8413 17.4672 13.8596C17.5105 13.878 17.557 13.8874 17.604 13.8874C17.651 13.8874 17.6975 13.878 17.7408 13.8596C17.7841 13.8413 17.8233 13.8144 17.856 13.7806L18.1682 13.4584L18.4853 13.7816C18.5177 13.8148 18.5564 13.8413 18.5991 13.8594C18.6418 13.8775 18.6877 13.8869 18.7341 13.8871C18.8028 13.8864 18.8697 13.8647 18.9258 13.8251V15.8793H16.289ZM10.8398 14.1801V15.8793H8.22256L9.91885 14.1801H10.8398ZM8.84764 16.5824V18.1059H5.91795V16.5824H8.84764ZM3.52041 14.1801H8.92457L7.22823 15.8793H1.82407L3.52041 14.1801ZM8.73045 27.7152H6.03514V25.7359C6.09556 25.7758 6.1662 25.7974 6.23858 25.798C6.33486 25.7981 6.4273 25.7602 6.4958 25.6926L6.81467 25.3693L7.12791 25.6916C7.16075 25.7253 7.20002 25.7522 7.24341 25.7705C7.28679 25.7888 7.33341 25.7983 7.38051 25.7983C7.42761 25.7983 7.47423 25.7888 7.51762 25.7705C7.561 25.7522 7.60028 25.7253 7.63311 25.6916L7.94565 25.3693L8.26282 25.6926C8.33289 25.7611 8.42726 25.799 8.52526 25.798C8.59814 25.7973 8.66931 25.7758 8.73034 25.7359L8.73045 27.7152ZM21.5625 27.7152H18.9258V25.7359C18.9792 25.7755 19.0438 25.7973 19.1103 25.798C19.1566 25.798 19.2024 25.7886 19.245 25.7705C19.2875 25.7524 19.326 25.7259 19.3581 25.6926L19.6722 25.3693L19.9831 25.6916C20.0158 25.7253 20.0549 25.7522 20.0981 25.7705C20.1414 25.7888 20.1879 25.7983 20.2348 25.7983C20.2818 25.7983 20.3283 25.7888 20.3716 25.7705C20.4148 25.7522 20.4539 25.7253 20.4866 25.6916L20.7988 25.3693L21.1158 25.6926C21.1484 25.7264 21.1875 25.7533 21.2309 25.7714C21.2742 25.7895 21.3208 25.7986 21.3678 25.798C21.4374 25.7973 21.5053 25.7757 21.5625 25.7359V27.7152ZM26.25 27.7152H22.2656V24.8659C22.266 24.7958 22.2452 24.7272 22.2061 24.669C22.167 24.6108 22.1112 24.5658 22.0462 24.5397C21.9811 24.5136 21.9097 24.5076 21.8412 24.5227C21.7727 24.5377 21.7103 24.5729 21.6621 24.6239L21.3623 24.9403L21.0481 24.6089C20.9832 24.5385 20.893 24.4966 20.7973 24.4926H20.7963C20.7487 24.4947 20.702 24.5061 20.6589 24.5263C20.6158 24.5465 20.577 24.575 20.5449 24.6102L20.2339 24.9362L19.9229 24.6075C19.8906 24.5727 19.8518 24.5446 19.8087 24.5249C19.7655 24.5051 19.7189 24.4942 19.6715 24.4926H19.6706C19.5748 24.4967 19.4846 24.5385 19.4195 24.6089L19.1052 24.9348L18.8049 24.6212C18.7589 24.5705 18.6983 24.5353 18.6315 24.5205C18.5647 24.5056 18.4949 24.5118 18.4318 24.5381C18.3677 24.5651 18.3134 24.611 18.2761 24.6696C18.2387 24.7282 18.2201 24.7968 18.2226 24.8662V27.7152H14.1797V20.977C14.1797 20.8837 14.1426 20.7943 14.0767 20.7284C14.0108 20.6624 13.9213 20.6254 13.8281 20.6254C13.7349 20.6254 13.6454 20.6624 13.5795 20.7284C13.5136 20.7943 13.4765 20.8837 13.4765 20.977V27.7152H9.43358V24.8659C9.43165 24.795 9.40886 24.7262 9.36805 24.6682C9.32725 24.6101 9.27024 24.5654 9.20416 24.5396C9.13807 24.5138 9.06584 24.508 8.9965 24.523C8.92715 24.538 8.86375 24.5731 8.81424 24.6239L8.51184 24.9403L8.19643 24.6089C8.13105 24.5385 8.0405 24.4967 7.94448 24.4926H7.94354C7.89596 24.4947 7.84927 24.5062 7.80613 24.5264C7.763 24.5466 7.72427 24.5751 7.69217 24.6102L7.3811 24.9362L7.07008 24.6075C7.03785 24.5727 6.99905 24.5446 6.9559 24.5249C6.91276 24.5052 6.86613 24.4942 6.81871 24.4926H6.81778C6.72203 24.4967 6.63179 24.5385 6.56676 24.6089L6.25246 24.9348L5.95217 24.6213C5.90239 24.5704 5.83872 24.5354 5.76912 24.5205C5.69952 24.5057 5.6271 24.5117 5.5609 24.5378C5.49471 24.5639 5.43769 24.609 5.39697 24.6674C5.35626 24.7257 5.33367 24.7948 5.33202 24.8659V27.7152H1.34764V16.5824H5.21483V18.4349C5.21672 18.5318 5.25535 18.6243 5.32288 18.6937C5.39042 18.7632 5.48182 18.8044 5.57858 18.809H9.18356C9.28068 18.8045 9.37252 18.7635 9.44063 18.6941C9.50874 18.6247 9.54809 18.5321 9.55077 18.4349V16.5824H13.4765V18.6332C13.4765 18.7264 13.5136 18.8159 13.5795 18.8818C13.6454 18.9477 13.7349 18.9848 13.8281 18.9848C13.9213 18.9848 14.0108 18.9477 14.0767 18.8818C14.1426 18.8159 14.1797 18.7264 14.1797 18.6332V16.5824H18.1055V18.4349C18.1055 18.6291 18.2372 18.809 18.4314 18.809H22.0364C22.2306 18.809 22.3828 18.6291 22.3828 18.4349V16.5824H26.25V27.7152ZM26.4796 15.8793L24.7295 15.8774L26.4722 14.1801H28.1683L26.4796 15.8793ZM28.6523 25.5457L26.9531 27.2188V16.366L28.6523 14.6902V25.5457Z" fill="#5F6262"/>
</svg>
