<svg width="16" height="16" viewBox="0 0 16 16" fill="none" xmlns="http://www.w3.org/2000/svg">
<path fill-rule="evenodd" clip-rule="evenodd" d="M2.26705 0.980004C2.43105 0.815985 2.62805 0.688713 2.84499 0.606631C3.06192 0.524549 3.29383 0.489534 3.52533 0.503908C3.75683 0.518282 3.98263 0.581717 4.18774 0.690004C4.39286 0.798292 4.5726 0.948957 4.71505 1.132L6.39605 3.294C6.70505 3.69 6.81405 4.207 6.69205 4.694L6.17905 6.747C6.15237 6.85353 6.15373 6.96515 6.183 7.071C6.21226 7.17685 6.26844 7.27331 6.34605 7.351L8.65005 9.654C8.72774 9.73162 8.82421 9.78779 8.93005 9.81706C9.0359 9.84632 9.14752 9.84768 9.25405 9.821L11.3061 9.308C11.5467 9.24789 11.7979 9.2433 12.0407 9.29458C12.2834 9.34587 12.5113 9.45167 12.7071 9.604L14.8691 11.285C15.6461 11.889 15.7181 13.038 15.0221 13.733L14.0521 14.703C13.3591 15.396 12.3221 15.701 11.3551 15.361C8.88146 14.4903 6.6356 13.074 4.78405 11.217C2.92669 9.36555 1.51 7.11969 0.639051 4.646C0.299051 3.679 0.604051 2.642 1.29705 1.948L2.26705 0.979004V0.980004Z" fill="#9B9B9B"/>
</svg>
