<svg width="28" height="28" viewBox="0 0 28 28" fill="none" xmlns="http://www.w3.org/2000/svg">
<path d="M8.39999 20.9965C7.36907 20.9965 6.53333 21.8322 6.53333 22.8632C6.53333 23.8941 7.36907 24.7298 8.39999 24.7298C9.43092 24.7298 10.2667 23.8941 10.2667 22.8632C10.2667 21.8322 9.43092 20.9965 8.39999 20.9965ZM8.39999 23.7965C7.8845 23.7965 7.46666 23.3786 7.46666 22.8632C7.46666 22.3477 7.8845 21.9298 8.39999 21.9298C8.91548 21.9298 9.33332 22.3477 9.33332 22.8632C9.33332 23.3786 8.91548 23.7965 8.39999 23.7965Z" fill="black"/>
<path d="M25.6667 14.4632H25.1389C25.0207 14.4631 24.907 14.4183 24.8206 14.3376L20.9225 8.4357L20.8759 8.37457C20.6104 8.09107 20.2394 7.93007 19.8511 7.92984H19.6V7.46317C19.6 5.65904 18.1375 4.1965 16.3333 4.1965C14.5292 4.1965 13.0667 5.65904 13.0667 7.46317V7.92984H1.4C0.626792 7.92984 0 8.55663 0 9.32984V21.9298C0 22.703 0.626792 23.3298 1.4 23.3298H4.66667V22.3965H1.4C1.14228 22.3965 0.933333 22.1875 0.933333 21.9298V21.4632H1.86667V20.5298H0.933333V9.32984C0.933333 9.07212 1.14228 8.86317 1.4 8.86317H15.8667V13.9965C15.8667 14.7697 16.4935 15.3965 17.2667 15.3965H25.6667C26.4399 15.3965 27.0667 16.0233 27.0667 16.7965V20.5298H24.7333V21.4632H27.0667V21.9298C27.0667 22.1875 26.8577 22.3965 26.6 22.3965H23.3333V23.3298H26.6C27.3732 23.3298 28 22.703 28 21.9298V16.7965C27.9985 15.5085 26.9547 14.4647 25.6667 14.4632ZM14 7.92984V7.46317C14 6.17453 15.0447 5.12984 16.3333 5.12984C17.622 5.12984 18.6667 6.17453 18.6667 7.46317V7.92984H14ZM17.2667 14.4632C17.0089 14.4632 16.8 14.2542 16.8 13.9965V8.86317H19.8511C19.9692 8.86323 20.0829 8.90808 20.1693 8.9887L23.7851 14.4632H17.2667Z" fill="black"/>
<path d="M12.1333 22.3965V22.8632V23.3298H15.8667V22.8632V22.3965H12.1333Z" fill="black"/>
<path d="M19.6 20.9965C18.5691 20.9965 17.7333 21.8322 17.7333 22.8632C17.7333 23.8941 18.5691 24.7298 19.6 24.7298C20.6309 24.7298 21.4667 23.8941 21.4667 22.8632C21.4667 21.8322 20.6309 20.9965 19.6 20.9965ZM19.6 23.7965C19.0845 23.7965 18.6667 23.3786 18.6667 22.8632C18.6667 22.3477 19.0845 21.9298 19.6 21.9298C20.1155 21.9298 20.5333 22.3477 20.5333 22.8632C20.5333 23.3786 20.1155 23.7965 19.6 23.7965Z" fill="black"/>
<path d="M9.80001 12.5965V10.7298H7.00001V12.5965H5.13335V15.3965H7.00001V17.2632H9.80001V15.3965H11.6667V12.5965H9.80001ZM10.7333 14.4632H8.86668V16.3298H7.93335V14.4632H6.06668V13.5298H7.93335V11.6632H8.86668V13.5298H10.7333V14.4632Z" fill="black"/>
<path d="M12.6 20.5298H11.3097C10.0264 18.9229 7.68348 18.6604 6.07651 19.9436C5.85992 20.1166 5.66328 20.3132 5.49032 20.5298H2.79999V21.4632H4.94152C4.16499 23.3732 5.08397 25.5511 6.99398 26.3276C8.90405 27.1041 11.0819 26.1852 11.8585 24.2752C12.225 23.3737 12.225 22.3647 11.8585 21.4632H12.6V20.5298ZM8.39999 25.6632C6.85357 25.6632 5.59999 24.4096 5.59999 22.8632C5.59999 21.3168 6.85357 20.0632 8.39999 20.0632C9.9464 20.0632 11.2 21.3168 11.2 22.8632C11.1982 24.4088 9.94565 25.6614 8.39999 25.6632Z" fill="black"/>
<path d="M23.8 20.5298H22.5097C21.2265 18.9229 18.8835 18.6604 17.2765 19.9436C17.0599 20.1166 16.8633 20.3132 16.6903 20.5298H13.5333V21.4632H16.1415C15.365 23.3732 16.284 25.5511 18.194 26.3276C20.1041 27.1041 22.2819 26.1852 23.0585 24.2752C23.425 23.3737 23.425 22.3647 23.0585 21.4632H23.8V20.5298ZM19.6 25.6632C18.0536 25.6632 16.8 24.4096 16.8 22.8632C16.8 21.3168 18.0536 20.0632 19.6 20.0632C21.1464 20.0632 22.4 21.3168 22.4 22.8632C22.3982 24.4088 21.1457 25.6614 19.6 25.6632Z" fill="black"/>
<path d="M12.1333 6.06317H10.2667V6.9965H12.1333V6.06317Z" fill="black"/>
<path d="M22.4 6.06317H20.5333V6.9965H22.4V6.06317Z" fill="black"/>
<path d="M16.8 1.39651H15.8667V3.26318H16.8V1.39651Z" fill="black"/>
<path d="M12.4634 2.46657L11.8035 3.12653L13.2036 4.52663L13.8635 3.86667L12.4634 2.46657Z" fill="black"/>
<path d="M20.2037 2.46662L18.8036 3.86673L19.4635 4.52669L20.8637 3.12658L20.2037 2.46662Z" fill="black"/>
<path d="M20.5333 16.3298H18.6667V17.2632H20.5333V16.3298Z" fill="black"/>
</svg>
