<?xml version="1.0" encoding="utf-8"?>
<!-- Generator: Adobe Illustrator 24.1.0, SVG Export Plug-In . SVG Version: 6.00 Build 0)  -->
<svg version="1.1" id="Слой_1" xmlns="http://www.w3.org/2000/svg" xmlns:xlink="http://www.w3.org/1999/xlink" x="0px" y="0px"
	 viewBox="0 0 24 24" style="enable-background:new 0 0 24 24;" xml:space="preserve">
<style type="text/css">
	.st0{fill:none;stroke:#000000;stroke-width:0.7;}
	.st1{stroke:#000000;stroke-width:0.1;}
</style>
<path class="st0" d="M2.9,23L2.9,23h17.5h0c1.4,0,2.6-1.2,2.6-2.6v0V2.9v0c0-1-0.8-1.9-1.9-1.9h0h-2.2h0c-1,0-1.9,0.8-1.9,1.9v0V16
	c0,0.6-0.5,1-1,1H2.9h0c-1,0-1.9,0.8-1.9,1.9l0,0v2.2v0C1,22.1,1.9,23,2.9,23z"/>
<path class="st1" d="M20,5.7L20,5.7c0.8,0,1.5-0.7,1.5-1.5S20.8,2.7,20,2.7c-0.8,0-1.5,0.7-1.5,1.5v0C18.5,5,19.2,5.7,20,5.7z
	 M20,3.5c0.4,0,0.7,0.3,0.7,0.7c0,0.4-0.3,0.7-0.7,0.7c-0.4,0-0.7-0.3-0.7-0.7C19.3,3.8,19.6,3.5,20,3.5z"/>
<path class="st1" d="M20,13.5L20,13.5c0.8,0,1.5-0.7,1.5-1.5s-0.7-1.5-1.5-1.5c-0.8,0-1.5,0.7-1.5,1.5v0
	C18.5,12.9,19.2,13.5,20,13.5z M20,11.4c0.4,0,0.7,0.3,0.7,0.7c0,0.4-0.3,0.7-0.7,0.7c-0.4,0-0.7-0.3-0.7-0.7
	C19.3,11.7,19.6,11.4,20,11.4z"/>
<path class="st1" d="M4.4,21.4L4.4,21.4c0.8,0,1.5-0.7,1.5-1.5c0-0.8-0.7-1.5-1.5-1.5c-0.8,0-1.5,0.7-1.5,1.5v0
	C2.8,20.7,3.5,21.4,4.4,21.4z M4.4,19.2c0.4,0,0.7,0.3,0.7,0.7c0,0.4-0.3,0.7-0.7,0.7c-0.4,0-0.7-0.3-0.7-0.7
	C3.7,19.5,4,19.2,4.4,19.2z"/>
<path class="st1" d="M12.2,21.4L12.2,21.4c0.8,0,1.5-0.7,1.5-1.5c0-0.8-0.7-1.5-1.5-1.5c-0.8,0-1.5,0.7-1.5,1.5v0
	C10.7,20.7,11.4,21.4,12.2,21.4z M12.2,19.2c0.4,0,0.7,0.3,0.7,0.7c0,0.4-0.3,0.7-0.7,0.7c-0.4,0-0.7-0.3-0.7-0.7
	C11.5,19.5,11.8,19.2,12.2,19.2z"/>
<path class="st1" d="M20,21.4L20,21.4c0.8,0,1.5-0.7,1.5-1.5c0-0.8-0.7-1.5-1.5-1.5c-0.8,0-1.5,0.7-1.5,1.5v0
	C18.5,20.7,19.2,21.4,20,21.4z M20,19.2c0.4,0,0.7,0.3,0.7,0.7c0,0.4-0.3,0.7-0.7,0.7c-0.4,0-0.7-0.3-0.7-0.7
	C19.3,19.5,19.6,19.2,20,19.2z"/>
</svg>
