<svg width="23" height="23" viewBox="0 0 23 23" fill="none" xmlns="http://www.w3.org/2000/svg">
<path d="M23 1.75951V7.96755C23 8.17924 22.8284 8.35088 22.6167 8.35088C22.405 8.35088 22.2333 8.17924 22.2333 7.96755V1.75951C22.2333 1.54782 22.405 1.37618 22.6167 1.37618C22.8284 1.37618 23 1.54782 23 1.75951ZM11.5 5.31905C13.7185 5.31905 15.5484 3.62285 15.7608 1.45917L18.1401 1.69712C18.3505 1.71797 18.5385 1.56449 18.5596 1.3538C18.5806 1.14316 18.427 0.955327 18.2163 0.934243L15.4361 0.656231C15.2099 0.633806 15.0146 0.811624 15.0146 1.03765C15.0146 2.97568 13.4379 4.55238 11.4999 4.55238C9.56187 4.55238 7.98517 2.97568 7.98517 1.03765C7.98517 0.825952 7.81353 0.654314 7.60184 0.654314C7.39014 0.654314 7.2185 0.825952 7.2185 1.03765C7.2186 3.39841 9.13924 5.31905 11.5 5.31905ZM4.25898 19.3269C4.25898 19.5386 4.43061 19.7102 4.64231 19.7102H18.3576C18.5693 19.7102 18.741 19.5386 18.741 19.3269V7.96755C18.741 7.75585 18.5693 7.58421 18.3576 7.58421C18.1459 7.58421 17.9743 7.75585 17.9743 7.96755V18.9436H5.02564V7.96755C5.02564 7.75585 4.85401 7.58421 4.64231 7.58421H0.766667V2.10643L5.11218 1.67192C5.32282 1.65084 5.47654 1.463 5.4555 1.25236C5.43442 1.04172 5.24644 0.888052 5.03595 0.909039L0.345192 1.3781C0.149212 1.39769 0 1.56257 0 1.75951V7.96755C0 8.17924 0.171637 8.35088 0.383333 8.35088H4.25898V19.3269ZM22.5522 21.7147C22.5168 21.598 22.5171 21.6157 21.7856 20.8842C21.636 20.7345 21.3933 20.7345 21.2436 20.8842C21.1068 21.0209 21.0754 21.2581 21.26 21.4427H3.68958C3.47789 21.4427 3.30625 21.6144 3.30625 21.8261C3.30625 22.0378 3.47789 22.2094 3.68958 22.2094H21.26C21.0783 22.3911 21.1042 22.6286 21.2436 22.768C21.3933 22.9177 21.636 22.9176 21.7856 22.768C22.229 22.3246 22.4629 22.0941 22.4916 22.0561C22.565 21.9583 22.5876 21.8318 22.5522 21.7147ZM2.23565 20.8842C2.08596 20.7345 1.84326 20.7345 1.69357 20.8842L1.02273 21.555C0.872994 21.7047 0.872994 21.9474 1.02273 22.0971L1.69357 22.7679C1.76841 22.8428 1.8665 22.8802 1.96463 22.8802C2.30302 22.8802 2.47791 22.468 2.2357 22.2258L1.83593 21.826L2.2357 21.4262C2.38534 21.2765 2.38534 21.0338 2.23565 20.8842ZM20.2687 1.42855V16.8906C20.2687 17.1023 20.4404 17.274 20.6521 17.274C20.8638 17.274 21.0354 17.1023 21.0354 16.8906V1.42855C21.1154 1.50852 21.2025 1.5573 21.3229 1.5573C21.6613 1.5573 21.8362 1.14512 21.594 0.902906C21.5715 0.880433 20.9196 0.226754 20.895 0.206629C20.8178 0.143091 20.7161 0.111658 20.6144 0.12172C20.4403 0.138635 20.4263 0.186839 19.7102 0.902906C19.5605 1.0526 19.5605 1.2953 19.7102 1.44499C19.8469 1.58174 20.0842 1.61313 20.2687 1.42855ZM20.381 19.5575C20.5308 19.7072 20.7734 19.7072 20.9231 19.5575L21.5939 18.8867C21.7437 18.737 21.7437 18.4943 21.5939 18.3446C21.4442 18.1949 21.2015 18.1949 21.0519 18.3446L20.6521 18.7443L20.2523 18.3445C20.1026 18.1948 19.8599 18.1948 19.7102 18.3445C19.5605 18.4942 19.5605 18.7369 19.7102 18.8866L20.381 19.5575Z" fill="black"/>
</svg>
